<?xml version="1.0" encoding="UTF-8" standalone="no"?>
<!-- Created with Inkscape (http://www.inkscape.org/) -->
<svg id="svg3438" xmlns:rdf="http://www.w3.org/1999/02/22-rdf-syntax-ns#" xmlns="http://www.w3.org/2000/svg" height="765.08" viewBox="0 0 899.99994 765.08405" width="900" version="1.1" xmlns:cc="http://creativecommons.org/ns#" xmlns:dc="http://purl.org/dc/elements/1.1/">
 <metadata id="metadata3444">
  <rdf:RDF>
   <cc:Work rdf:about="">
    <dc:format>image/svg+xml</dc:format>
    <dc:type rdf:resource="http://purl.org/dc/dcmitype/StillImage"/>
    <dc:title/>
   </cc:Work>
  </rdf:RDF>
 </metadata>
 <path id="path3450" d="m226.78 764.42c-25.262-0.96777-27.191-1.5912-27.917-9.0207-0.66676-6.8247-13.667-5.3004-13.667 1.6025 0 3.6339-8.8138 5.638-18.195 4.1372-4.9225-0.78747-14.668-2.1175-21.656-2.9556-6.9884-0.8381-12.854-1.5726-13.036-1.6323-0.18118-0.0597 0.20867-1.114 0.86633-2.3428s1.1958-3.5449 1.1958-5.1467 1.3401-4.8847 2.9779-7.2954c2.0933-3.081 2.8491-5.4927 2.5443-8.1188-0.23851-2.0547 0.0975-3.9129 0.74661-4.1293 0.64915-0.21639 1.2664-2.2236 1.3716-4.4604 0.10523-2.2368 1.548-6.216 3.2061-8.8427 5.2786-8.3618 3.6728-10.597-7.6122-10.597-8.8803 0-8.649-0.20345-5.5488 4.8813 4.5438 7.4525 3.2797 8.9704-8.5947 10.32-4.4825 0.50958-11.789 1.4174-16.236 2.0174-29.47 3.9758-47.412 1.4034-52.057-7.4633-1.7074-3.2592-3.106-4.5342-4.9092-4.4752-7.3881 0.24174-9.2364 0.69984-11.561 2.8652-5.4882 5.113-15.293 3.0628-26.741-5.5915-5.4156-4.0941-10.439-7.6767-11.163-7.9614-1.5032-0.59113-0.76567-4.7264 1.3018-7.299 0.76581-0.95297 4.4271-7.4504 8.1361-14.439 3.709-6.9884 7.4737-13.439 8.3659-14.335 1.3931-1.3991 1.363-1.7742-0.21326-2.6564-2.749-1.5384-2.6149-14.547 0.1609-15.612 2.1033-0.80713 5.6596-4.7127 10.984-12.063 3.2398-4.4724 9.9647-6.3274 11.854-3.27 2.4504 3.9648 7.491 1.0534 22.173-12.807 8.1345-7.6791 17.649-15.992 21.143-18.473 5.6278-3.9964 10.845-7.8731 29.81-22.152 4.8651-3.663 14.1-9.4021 17.55-10.907 2.7773-1.2114 3.2286-2.6276 2.2378-7.0209-1.0313-4.5726 0.89871-9.7072 4.3813-11.656 1.7481-0.97827 1.8205-1.6114 0.57758-5.0486-3.3807-9.3492 3.8579-26.291 11.233-26.291 2.7199 0 2.7277-3.8721 0.0267-13.284-0.54698-1.9059-1.5637-9.7029-2.2595-17.327-0.69572-7.6237-1.7404-17.24-2.3215-21.369-0.58111-4.1295-1.4239-16.516-1.8729-27.526l-0.8163-20.018-7.0371 0.81274c-3.8704 0.44699-8.2405 1.2682-9.7113 1.8249-13.861 5.2466-21.99-5.8168-11.778-16.029 4.6565-4.6565 17.367-8.3708 28.644-8.3708 4.2175 0 4.7164-1.1198 5.6089-12.588 0.64103-8.2374 3.832-16.258 6.4778-16.282 0.47648-0.005 0.86633-0.70141 0.86633-1.549 0-1.7524 8.3854-14.137 11.713-17.298 2.6866-2.5528 2.0311-3.8514-2.44-4.8334-5.7442-1.2616-28.391-13.457-36.538-19.676-2.7671-2.1122-5.9872-4.1438-7.1557-4.5146-1.1686-0.37089-3.2792-2.236-4.6904-4.1446-1.4111-1.9086-5.395-5.067-8.8531-7.0186-6.6598-3.7586-12.562-9.7459-11.717-11.885 5.1817-13.117 35.308-45.747 46.801-50.689 1.6847-0.72456 5.236-2.7694 7.8917-4.544s5.1744-3.2266 5.5972-3.2266c0.42276 0 2.1484-0.94884 3.8348-2.1085s4.8854-2.7702 7.109-3.579c3.4533-1.256 12.427-5.5468 13.688-6.5452 0.2226-0.17618-1.2943-2.4346-3.371-5.0187-5.6204-6.9938 0.28776-14.358 15.667-19.527 6.1687-2.0735 7.0079-2.7319 7.6816-6.0261 2.034-9.9454 15.018 0.48152 25.573 20.536 1.1335 2.1538 4.7904 7.6555 8.1264 12.226 8.2503 11.303 9.751 13.844 9.1738 15.529-0.84106 2.4564-4.6379 1.5974-7.6583-1.7327-10.534-11.613-13.96-15.901-20.311-25.412-3.9235-5.8766-7.3977-10.685-7.7205-10.685-1.7036 0-11.029 6.3244-12 8.1379-0.62709 1.1717-2.7059 2.273-4.6696 2.4738l-3.5393 0.36185 9.2135 9.4372c5.0674 5.1905 10.64 11.948 12.384 15.016 1.7438 3.0686 6.2376 10.128 9.9862 15.688 3.7486 5.5601 7.8953 12.707 9.2149 15.883 1.3196 3.1754 2.8756 5.7734 3.4578 5.7734 4.0922 0 12.897-7.9761 16.503-14.95 1.8659-3.6083 5.921-5.615 7.7171-3.819 2.53 2.53-1.7391 17.986-5.7064 20.66-3.6004 2.4264-3.6252 2.5038-1.2925 4.0527l2.3781 1.579-2.6577 10.032c-1.4617 5.5178-2.3006 10.39-1.8641 10.826 2.4635 2.4635 36.36-10.893 42.748-16.845 1.355-1.2623 2.8745-2.2952 3.3767-2.2952 0.83001 0 18.453-11.849 32.642-21.947 14.47-10.298 28.135-27.637 32.316-41.006 1.1923-3.8119 2.5784-7.9702 3.0801-9.2409 4.4953-11.383 5.241-49.749 1.1356-58.428-1.6652-3.5205-12.914-6.783-20.006-5.8026-0.48702 0.0673 0.86472 2.6668 3.0039 5.7765 9.2056 13.383 12.709 38.24 5.3898 38.24-2.8308 0-5.0733-4.9757-4.1634-9.2378 2.4116-11.296-12.661-35.803-20.934-34.036-2.3971 0.5119-6.9574 1.024-10.134 1.138-16.394 0.58825-25.781 7.6744-28.359 21.409-0.76869 4.094-2.3409 10.563-3.4938 14.374-1.1529 3.8118-2.6527 9.2697-3.3329 12.129-3.8541 16.198-7.6802 21.957-12.537 18.871-2.509-1.5944-2.7287-19.233-0.33581-26.957 0.88572-2.8589 2.2541-7.2772 3.0408-9.8184 0.78672-2.5412 1.1971-6.1798 0.91193-8.0858-0.41777-2.7922 0.33775-4.4022 3.8898-8.2891 2.4246-2.6531 5.6178-6.4221 7.0961-8.3757s6.2233-5.6524 10.544-8.2195l7.8565-4.6675 4.1354 1.9721 4.1355 1.972 5.2364-4.8267c4.6354-4.2728 5.7346-4.764 9.5774-4.2802 2.3876 0.30061 9.539 0.90772 15.892 1.3491 6.3531 0.44143 13.37 0.93727 15.594 1.1019 2.2236 0.1646 12.459 0.65818 22.744 1.0969l18.701 0.79756 6.8869-5.2993c6.4552-4.9671 6.9173-5.6445 7.3723-10.805 0.267-3.0283 0.87596-6.3708 1.3532-7.4278 0.72561-1.607-0.23442-2.1326-5.8594-3.2084-14.099-2.6964-31.358-13.075-33.535-20.166-2.1167-6.8969 2.428-8.2374 6.8225-2.0123 1.6687 2.3638 8 5.9386 10.518 5.9386 0.89175 0 3.0188 1.2951 4.7268 2.8781 1.708 1.5829 4.5129 3.1988 6.233 3.5907 16.856 3.8411 18.456 4.956 20.63 14.376 3.2705 14.174 3.2722 13.652-0.0474 14.914-3.806 1.447-3.9381 0.28581 2.1821 19.172 2.8589 8.8221 5.198 16.639 5.198 17.371 0 0.73195 0.97481 3.606 2.1662 6.3868s3.576 8.8246 5.299 13.431c3.7217 9.949 3.8638 9.9898 9.1494 2.6327 7.6445-10.641 16.133-13.793 26.413-9.8105 2.3952 0.92798 2.7584-1.7807 0.68403-5.1022-0.73557-1.1778-1.0165-2.9779-0.62418-4.0001 1.0132-2.6403 14.471 4.5367 16.973 9.052 6.0797 10.969 23.107 8.9764 23.107-2.7045 0-5.1238 0.58842-7.5416 2.394-9.8371l2.394-3.0435h-3.3284c-4.3228 0-7.6009-2.4516-7.0524-5.2743 0.37362-1.9226 1.2537-2.1805 6.3155-1.851 5.758 0.37488 5.8963 0.30809 6.5949-3.1847 0.70568-3.5284 9.4111-10.482 13.123-10.482 2.1698 0 1.8532-3.1976-0.66865-6.7523-1.1964-1.6863-2.9526-5.3738-3.9027-8.1944-2.1346-6.3366-9.114-9.2675-22.463-9.4331-5.4854-0.068-8.7698-0.63709-9.6251-1.6676-6.2621-7.5454 17.948-11.678 26.459-4.517 5.0443 4.2445 6.6544 3.7046 7.5072-2.5174 2.1644-15.791 0.75244-18.133-13.436-22.285-4.5946-1.3445-10.173-3.3011-12.397-4.348-6.626-3.1197-33.413-3.6153-38.376-0.70992-2.0822 1.2191-7.6731 2.944-12.424 3.8332-9.1459 1.7117-25.542 9.8926-28.129 14.035-1.6241 2.6005-5.2136 2.7866-6.1604 0.31938-0.78826-2.0542 6.0077-9.7423 8.6119-9.7423 0.88909 0 2.9963-0.9714 4.6826-2.1587s4.2356-2.5218 5.6651-2.9656c5.4734-1.6994 2.1847-2.9675-8.0858-3.118-17.724-0.25967-20.241-0.49842-22.174-2.1027-2.5705-2.1333-15.816-1.9852-24.144 0.26993-7.3049 1.9782-10.308 1.5874-9.7575-1.27 1.0123-5.2566 17.391-9.6037 32.326-8.58l9.2147 0.63159-0.80274-5.3531c-1.8824-12.553 3.3876-26.504 12.299-32.559 2.7829-1.8909 5.233-3.8278 5.4448-4.3043 0.21178-0.47648 0.94548-0.86633 1.6305-0.86633 0.68498 0 5.1899-3.0184 10.011-6.7075 18.624-14.251 38.805-20.043 51.442-14.762 13.692 5.7207 44.96 42.411 43.664 51.236-0.64148 4.3706-1.4038 4.2437 14.572 2.4271l11.475-1.3048 1.3628-9.38c3.0662-21.105 10.646-33.609 25.441-41.969 2.8589-1.6155 6.6064-3.9104 8.3278-5.0999s4.3842-2.1626 5.9175-2.1626c1.5332 0 5.0629-0.99452 7.8437-2.21 29.555-12.919 62.691 2.2916 78.69 36.121 3.975 8.4052 7.4536 11.799 13.861 13.525 20.467 5.5112 19.037 9.7511-5.1942 15.398-2.5041 0.58361-3.1766 1.4046-3.1766 3.8783 0 1.7259-1.3865 5.8783-3.0811 9.2276l-3.0811 6.0897 2.4054 5.478c9.3553 21.306 8.635 23.803-7.5433 26.155-1.4502 0.21083-2.7858 0.58289-2.9678 0.82679-1.8515 2.4804-5.3688 9.5864-5.3688 10.847 0 0.88432-1.8647 3.0301-4.1438 4.7685-3.8514 2.9376-4.0961 3.4919-3.4683 7.8558 1.1452 7.9595 0.91655 8.963-2.9518 12.954-4.7349 4.8852-6.3903 4.846-22.605-0.53488l-12.954-4.299-6.9715 4.6041c-8.6853 5.7358-8.2779 10.561 1.9426 23.009 6.0072 7.3169 7.3027 14.111 4.2134 22.096-0.9831 2.5412-2.6496 7.4907-3.7034 10.999-1.0538 3.5082-3.0855 8.346-4.515 10.751-3.0517 5.1338-3.2356 6.5505-0.85065 6.5505 0.96158 0 2.7827 0.64596 4.0469 1.4355 1.8328 1.1446 2.7073 1.1432 4.316-0.007 6.4565-4.6168 9.454-5.4341 12.762-3.4799 2.9238 1.7271 3.4112 1.7272 6.2568 0.00053 2.6649-1.617 3.4876-1.6576 6.0285-0.29775 3.1544 1.6882 2.664 1.7951 24.523-5.3434 4.5539-1.4871 9.2919-2.7038 10.529-2.7038s3.4888-0.95725 5.004-2.1272c1.5151-1.17 7.9528-3.535 14.306-5.2555 14.717-3.9857 14.899-4.0964 15.076-9.1926 0.1667-4.8003 4.1991-9.9921 7.7608-9.9921 3.275 0 8.929 4.4384 8.929 7.0093 0 1.6984 0.8099 2.2316 3.3901 2.2316 6.2782 0 9.1058 1.8603 10.458 6.8799 1.1356 4.2174 1.6152 4.6711 4.9378 4.6711 4.1271 0 36.803-8.65 41.28-10.928 1.5883-0.80802 6.2665-2.324 10.396-3.3687 4.1295-1.0448 9.8473-2.6158 12.706-3.4912 30.441-9.3207 65.553-16.329 68.49-13.671 6.1987 5.6097 7.0486 12.381 1.6825 13.404-2.0648 0.39392-7.9125 1.9818-12.995 3.5286-18.087 5.5045-25.631 7.5762-42.739 11.738-9.5296 2.3179-19.815 5.193-22.856 6.389-3.0412 1.196-6.4535 2.1746-7.5829 2.1746-1.1293 0-9.2347 2.3391-18.012 5.198s-16.965 5.198-18.194 5.198c-5.1121 0-6.7041 2.0606-6.7041 8.6773 0 5.5078-0.37479 6.5314-3.0278 8.2697-3.4754 2.2772-6.8638-0.37096-5.5939-4.3718 1.6964-5.345-10.123-5.2746-21.989 0.13098-12.322 5.6134-19.04 5.2584-19.077-1.0078-0.0499-8.5673-4.0236-7.2476-4.941 1.6409-0.87446 8.4727-3.1138 11.774-8.6051 12.686-2.3872 0.39634-5.7845 1.1784-7.5495 1.7379-6.4326 2.0391-8.7343-1.6724-4.0978-6.6078 2.0618-2.1947 2.1774-2.6734 0.64573-2.6734-1.0262 0-2.1871 0.5198-2.5797 1.1551-0.39264 0.63531-1.637 1.1551-2.7652 1.1551-1.9988 0-13.675 3.4762-20.048 5.9686-1.7471 0.68327-3.1766 1.919-3.1766 2.7462 0 2.4969-5.3116 8.0071-10.015 10.39-2.4331 1.2324-5.5763 3.2305-6.985 4.4402-2.3341 2.0045-3.1534 2.0744-9.2409 0.78929-8.3622-1.7654-12.653-0.44312-13.674 4.2142-0.38792 1.7696-1.1821 4.7244-1.7649 6.5663-0.58278 1.8417-1.0596 5.2867-1.0596 7.6553 0 5.6367-1.3425 6.4662-10.804 6.6746-4.5942 0.10118-9.4412 0.94304-11.551 2.0061-1.9994 1.0074-9.8729 3.8942-17.497 6.4149-18.906 6.2511-22.694 7.9061-23.478 10.257-0.69685 2.0905 6.4866 1.1831 36.562-4.6187 62.187-11.996 81.76-13.449 98.813-7.332 4.5286 1.6244 12.329 4.2449 17.334 5.8232l9.1005 2.8697 4.7608-3.3953c9.457-6.7446 12.782-7.6697 38.259-10.644 4.4472-0.51927 11.984-1.4697 16.749-2.112 22.728-3.0639 34.307-3.9496 43.321-3.3134 5.3974 0.3809 9.8135 0.26502 9.8135-0.25752 0-1.6487 11.59-2.6529 13.389-1.16 5.5144 4.5766-0.1005 8.4917-14.544 10.141-20.58 2.3505-32.912 3.5504-43.317 4.2148-17.425 1.1126-22.791 1.7007-30.61 3.3547-4.1295 0.87352-7.9276 1.3357-8.4402 1.027-1.8476-1.1126-6.4319 0.87344-11.188 4.8469-6.5718 5.4906-9.9037 3.4164-4.3405-2.7021 2.4118-2.6525 2.4326-2.794 0.28878-1.9648-1.2706 0.49146-3.2452 1.1618-4.3879 1.4895-1.1427 0.32777-3.3606 3.1277-4.9287 6.222-3.1526 6.2214-3.6568 6.4299-9.1947 3.802-2.1142-1.0032-5.0516-1.6132-6.5277-1.3554-2.2596 0.39461-1.771 0.87537 3.0919 3.0425 3.1766 1.4156 8.0809 3.6695 10.899 5.0086 5.7623 2.7386 36.032 3.2401 54.943 0.91035 5.0825-0.62613 13.659-1.3783 19.059-1.6714 11.593-0.62931 37.893-3.6679 46.497-5.3721 25.834-5.1167 31.305-4.8075 30.665 1.7327-0.47678 4.8748-3.8974 6.249-17.153 6.8908-6.0048 0.29075-13.777 1.0506-17.271 1.6885-6.1334 1.1198-25.138 2.6589-57.755 4.6774-18.262 1.1301-34.393 0.98491-37.252-0.33533-5.2249-2.4129-1.274 1.6243 4.3981 4.4941l6.4195 3.248 20.437-0.68329c11.24-0.37582 24.595-1.2154 29.678-1.8658 5.0825-0.65037 13.919-1.7834 19.637-2.5179 5.7178-0.73449 12.475-1.4793 15.016-1.6552 8.1858-0.56655 25.31-2.9302 28.878-3.9862 9.3186-2.7577 14.946-2.6287 18.233 0.41795 7.3038 6.7689 4.3304 7.9774-30.362 12.34-5.4001 0.67915-13.197 1.7233-17.327 2.3204-4.1295 0.59708-13.226 1.5752-20.214 2.1735-6.9884 0.59834-18.424 2.0214-25.412 3.1624-25.868 4.2233-43.341 2.14-61.221-7.2993-1.9059-1.0062-8.4034-4.4303-14.439-7.6091-6.0354-3.1788-13.053-6.9974-15.594-8.4858-2.5412-1.4884-7.4793-3.4721-10.974-4.4082-3.4942-0.93613-7.9125-2.2066-9.8184-2.8232-13.362-4.3232-23.876-4.0069-50.825 1.5286-4.4472 0.9135-12.764 2.4201-18.482 3.3481-9.9889 1.6211-18.841 3.6261-31.188 7.0644-3.1765 0.88456-9.2137 1.8647-13.416 2.178-7.0752 0.52761-16.545 2.2944-20.66 3.8546-0.95297 0.36134-2.3824 0.55221-3.1766 0.42416-0.86532-0.13953-1.4456 1.0603-1.4482 2.9944-0.002 1.775-1.042 4.9291-2.3102 7.0092-2.7624 4.5308-2.928 8.0995-0.53428 11.517 0.97438 1.3911 2.9882 6.3149 4.4752 10.942 2.3401 7.2812 8.4886 20.126 16.468 34.402 1.2428 2.2236 3.4978 7.1617 5.0112 10.974 1.5133 3.8118 4.2177 9.3385 6.0098 12.282 1.792 2.943 4.2338 8.1863 5.4261 11.652 1.1923 3.4655 2.9907 7.8922 3.9964 9.837 2.6026 5.033 10.774 30.006 11.686 35.715 1.1659 7.2976-1.732 13.945-11.794 27.052-11.36 14.798-15.123 20.654-15.237 23.71-0.55722 14.892-11.301 27.325-25.334 29.315-10.171 1.4425-17.054 5.3865-26.195 15.01-3.7918 3.9916-8.8376 8.4932-11.213 10.004-2.3754 1.5104-6.2739 4.5236-8.6633 6.6961-15.753 14.323-19.982 17.985-20.775 17.989-0.49251 0.002-3.4945 2.3694-6.671 5.2593-3.1766 2.8899-11.493 9.5946-18.482 14.899-6.9884 5.3048-13.764 10.605-15.057 11.779-1.2927 1.1734-4.6714 3.9335-7.5082 6.1336s-5.3617 4.501-5.6109 5.1132c-0.24916 0.61221-2.4583 3.2886-4.9092 5.9475s-4.4562 5.1966-4.4562 5.6392c0 0.44269-1.6174 2.8176-3.5943 5.2775-3.0358 3.7777-3.4965 5.158-2.965 8.8844 1.3121 9.1991 2.5732 13.429 4.2491 14.252 4.9779 2.4451 11.484 3.5458 24.96 4.2229l14.891 0.74815 3.8302 3.8172c11.734 11.694 2.479 14.862-43.104 14.753-79.254-0.18951-101.81-5.9558-87.909-22.475 1.6548-1.9667 3.0088-3.9294 3.0088-4.3617 0-0.43224 2.3548-3.6411 5.2328-7.1308 3.9928-4.8413 5.0757-6.9877 4.5699-9.0574-0.73552-3.0096 2.2157-7.5909 10.531-16.347 10.151-10.69 12.338-13.441 15.604-19.637 1.8422-3.4942 6.194-10.771 9.6708-16.171 3.4768-5.4001 6.7967-10.875 7.3777-12.166 0.58099-1.2914 2.9314-4.8046 5.2232-7.807s4.1669-5.9684 4.1669-6.5911 2.469-4.3075 5.4868-8.1884c3.0177-3.8809 6.5854-8.6949 7.9281-10.698 3.9131-5.8366 17.256-17.072 26.959-22.701 16.127-9.3552 20.762-14.289 21.404-22.786 0.65334-8.6437 1.5057-10.111 8.9049-15.333 10.763-7.5951 10.997-7.8504 11.797-12.857 0.46016-2.8777 0.28801-5.3315-0.42401-6.0435-2.0706-2.0706-1.312-6.7232 1.7509-10.739l2.9496-3.8672-3.816-4.771c-2.0988-2.624-4.8728-5.9119-6.1645-7.3063-5.6116-6.0577-23.323-29.309-28.408-37.294-3.1856-5.0021-4.469-3.8294-4.497 4.1093-0.0128 3.6155-0.56982 9.9524-1.2379 14.082-0.66806 4.1295-1.364 9.5874-1.5466 12.129-0.1826 2.5412-0.68968 6.7043-1.1269 9.2513-0.43717 2.547-1.2507 9.8242-1.8078 16.172-1.6448 18.74-3.5005 27.226-7.0212 32.11-2.514 3.4872-3.0519 5.2816-2.5978 8.6668 0.47605 3.5492-0.15346 5.34-3.7328 10.619-2.368 3.4922-4.7791 8.0258-5.358 10.074-0.57893 2.0487-2.7436 5.942-4.8105 8.6518-3.8849 5.0934-3.6207 4.9832-18.339 7.6481-5.3271 0.96449-8.9983 2.9692-8.9983 4.9138 0 0.53682-3.0393 5.5412-6.754 11.121-3.7147 5.5797-7.4294 11.444-8.255 13.033-1.4381 2.7667-15.128 20.113-17.787 22.537-3.8899 3.5466-18.089 20.304-20.631 24.349-1.6333 2.5986-3.714 5.4691-4.6237 6.3788-0.90974 0.90973-3.1648 3.926-5.0112 6.7028s-4.7767 7.1836-6.5118 9.7927-3.1646 5.7297-3.1766 6.9346c-0.0776 7.7976-28.578 41.172-37.125 43.474-4.5965 1.2377-6.34 4.0104-5.0593 8.0455 0.92052 2.9003 2.1887 3.162 22.001 4.5406 18.539 1.29 19.386 1.5042 21.136 5.3441 0.70774 1.5533 1.7277 2.8242 2.2666 2.8242 1.6211 0 0.0703 7.2879-2.2544 10.594-3.0829 4.3848-31.761 6.0111-76.068 4.3137zm-11.551-7.9774c-2.2909-1.4805-7.2681-1.4805-6.3531 0 0.39264 0.63531 2.3726 1.1472 4.3998 1.1374 2.8047-0.0135 3.2717-0.2854 1.9533-1.1374zm-41.584-3.4653c0-0.63531-2.5683-1.1551-5.7074-1.1551-3.139 0-6.0286 0.5198-6.4213 1.1551-0.44322 0.71716 1.7207 1.1551 5.7074 1.1551 3.5317 0 6.4213-0.5198 6.4213-1.1551zm105.45-2.1332c5.9955-2.3678-4.1759-7.4214-14.65-7.2787-11.366 0.15489-22.928-4.3368-30.7-11.927l-4.1395-4.0422-17.872-0.57106c-18.831-0.60173-23.884-1.7478-47.277-10.725-8.8546-3.3978-10.031-2.9427-12.846 4.97-7.3983 20.796-7.4292 23.067-0.32664 24.041 10.208 1.3991 18.898 0.91897 18.898-1.0441 0-2.8635-4.5834-11.204-8.3185-15.137-4.1038-4.3215-3.9462-7.7665 0.37825-8.2698 4.2487-0.49448 12.483 7.9554 15.232 15.63 3.4234 9.5588 3.6629 9.7141 11.972 7.7604 7.6678-1.8029 10.599-1.2839 16.507 2.923 2.2548 1.6056 6.0741 2.4483 13.708 3.0246l10.582 0.79883 4.7212-5.3635c4.8495-5.5093 8.6561-6.8272 9.9535-3.4462 0.49153 1.2809-0.33622 2.7721-2.4937 4.4925-5.6691 4.5204 26.515 8.1741 36.671 4.1632zm-31.75-32.01c10.047-1.4918 12.694-1.5502 14.973-0.33029 3.3056 1.7691 6.2502-1.1818 8.5316-8.5498 1.7824-5.7567 2.1419-5.643-12.969-4.1012-7.2616 0.74092-14.632 1.3837-16.379 1.4284-3.746 0.0959-4.1619 1.3455-0.80274 2.4117 4.5488 1.4437 1.4995 3.3444-5.9185 3.689-7.4351 0.34545-14.587-1.1278-19.042-3.9225-2.3236-1.4576-4.2561-2.1884-25.295-9.5647-12.264-4.2996-24.861-10.723-28.847-14.709-3.478-3.478-4.7716-2.862-5.8293 2.7757-0.44414 2.3675-1.539 5.719-2.433 7.4478-3.251 6.2868 1.4491 9.4769 24.348 16.526 7.6237 2.3467 15.161 4.8229 16.749 5.5028 2.9573 1.2658 18.615 2.7137 32.772 3.0307 4.3656 0.0977 13.429-0.63777 20.142-1.6344zm-127.75-4.8434c-2.1703-0.72344-5.1304 0.67618-4.2936 2.0301 0.4752 0.7689 1.5816 0.70571 3.2467-0.18538 1.6341-0.87456 2.0037-1.5258 1.0469-1.8447zm-26.815-2.1069c11.518-1.1586 11.876-1.2063 15.883-2.118 6.1257-1.3938 0.65987-8.7564-6.5005-8.7564-1.4319 0-3.6387-0.55405-4.904-1.2312-1.2653-0.67717-9.1385-2.773-17.496-4.6575-10.531-2.3745-16.804-4.4498-20.437-6.7607-2.8828-1.8339-7.1906-4.2526-9.573-5.3749-2.3824-1.1222-4.3317-2.464-4.3317-2.9816 0-0.51765-0.5097-0.94117-1.1327-0.94117-0.94968 0-10.498-5.9396-15.656-9.7389-2.6466-1.9495-7.683 2.4285-7.2745 6.3234 0.28172 2.6858-0.73046 4.4632-5.0534 8.8738-8.0373 8.2002-8.8959 11.399-4.1306 15.392l3.7915 3.1764 0.35519-4.505c0.34586-4.3867 1.9792-5.6934 4.323-3.4588 7.2577 6.9197 24.408 9.7183 29.339 4.7875 1.7739-1.7739 3.362-2.3591 5.0742-1.8699 1.3707 0.39169 3.957 1.0316 5.7472 1.422 1.8168 0.39621 4.6239 2.5102 6.3531 4.7845 6.6166 8.7024 7.7661 9.4823 13.14 8.915 2.7361-0.28885 8.3535-0.86505 12.483-1.2804zm-62.376-2.5746c0-0.99277-7.3743-4.8344-9.28-4.8344-2.6064 0-0.79153 2.1298 3.2157 3.7739 5.2114 2.1381 6.0643 2.2872 6.0643 1.0605zm240.22-19.331c2.5954-5.3622 6.1927-11.441 7.9939-13.509 1.8012-2.0679 4.1914-5.5792 5.3116-7.8028 1.9424-3.8556 7.875-11.736 11.759-15.62 0.99897-0.99897 1.5635-2.0691 1.2546-2.3781-0.81684-0.81683-26.392 19.527-36.844 29.307-4.4629 4.1761-9.1111 4.4092-9.0364 0.45317 0.0392-2.0723 2.5834-5.9865 3.8913-5.9865 0.43206 0 6.1682-4.5482 12.747-10.107 6.5788-5.559 15.575-12.878 19.991-16.265s12.397-10.905 17.736-16.706c11.358-12.343 18.198-19.243 25.465-25.692 2.8898-2.5642 5.4644-5.2565 5.7214-5.9828 0.25704-0.72628 7.0517-8.0823 15.099-16.347 16.039-16.472 29.451-33.201 30.507-38.052 0.37182-1.7089 1.222-4.5496 1.8893-6.3126 1.7133-4.5263-9.9283-27.539-23.213-45.887-2.07-2.8589-6.3656-9.3032-9.5458-14.321-3.1802-5.0175-8.6802-12.71-12.222-17.093-3.542-4.3839-7.3196-9.6107-8.3945-11.615-1.1358-2.1178-3.2707-3.9963-5.0968-4.4847-5.0662-1.3549-6.654-3.263-5.8316-7.0076 1.0163-4.6269-1.1006-6.6993-6.8433-6.6993-2.8788 0-6.9325-1.1475-10.202-2.8878-6.2962-3.3517-13.981-3.734-21.124-1.0507-2.5412 0.95464-6.9595 2.4436-9.8184 3.3088-2.8589 0.86521-6.2402 1.9079-7.514 2.3172-2.7851 0.8948-7.7368-3.1981-6.8054-5.6252 0.33998-0.88596 2.5314-1.9684 4.8698-2.4053 2.3384-0.43695 4.7714-1.1923 5.4068-1.6786 5.9126-4.5257 30.729-6.0606 34.884-2.1576 2.6199 2.4613 2.6475 2.4623 6.7823 0.2609 6.7932-3.6168 6.0794-7.4084-1.3947-7.4084-2.1544 0-4.9304-0.63277-6.1687-1.4062-1.7691-1.1048-3.3783-1.1048-7.5091 0-12.165 3.2535-14.549 2.2348-23.706-10.127-8.0655-10.888-11.942-15.24-14.411-16.179-1.495-0.56841-3.0556-2.0965-3.468-3.3958-0.86272-2.7182-21.444-13.415-41.587-21.613-7.0008-2.8496-14.289-5.8909-16.196-6.7585-15.95-7.256-18.899-7.7843-20.956-3.7534-3.9285 7.7004-6.7584 13.538-8.8151 18.184-1.2656 2.8589-3.2048 7.0173-4.3092 9.2409-2.4144 4.8608-3.957 13.861-2.3757 13.861 0.61056 0 6.4644-1.0237 13.009-2.275 40.837-7.808 67.524-11.554 69.906-9.8123 4.4898 3.283 0.84863 4.7298-20.068 7.9742-11.337 1.7584-22.432 3.6476-24.655 4.1981-4.8818 1.2088-29.072 5.5335-38.696 6.9181-24.099 3.467-46.335 11.479-31.859 11.479 2.4899 0 7.558-0.71727 11.262-1.5939 3.7043-0.87666 13.493-2.7537 21.752-4.1713 18.503-3.1758 49.981-8.8236 57.755-10.363 5.4249-1.0739 17.845-2.7754 31.319-4.2906 6.1156-0.68772 7.945 0.2685 6.7035 3.5039-0.717 1.8684-5.1357 2.9814-23.583 5.9398-15.246 2.445-41.88 7.2517-60.825 10.978-6.4529 1.269-13.6 2.3074-15.883 2.3074-4.6486 0-4.8244 0.4125-2.5247 5.9232 0.89403 2.1423 2.1887 10.494 2.877 18.56 0.68834 8.0657 2.0005 19.241 2.916 24.835 0.91543 5.5935 1.9713 16.148 2.3463 23.454 0.62823 12.239 4.0246 43.821 6.3329 58.887 1.1274 7.3592-0.0639 11.574-3.2711 11.574-2.4996 0-2.6121-0.36687-5.3112-17.327-0.96052-6.0354-2.149-12.446-2.6412-14.247l-0.89476-3.2731-3.788 5.8459-3.788 5.8459 2.3758 5.371c3.2242 7.2889 3.0263 8.9711-1.667 14.166-2.2236 2.4612-4.0429 5.5114-4.0429 6.7782s-1.0396 3.6249-2.3102 5.2402-2.3102 3.6591-2.3102 4.5418c0 2.1793-6.5101 8.1734-19.637 18.08-6.0354 4.5549-13.912 10.574-17.503 13.376s-8.0093 5.8711-9.8184 6.8202-7.2671 5.5369-12.129 10.195c-4.8618 4.6582-12.776 12.108-17.588 16.555-9.7507 9.012-10.163 9.903-5.6266 12.172 1.7471 0.8741 3.9562 2.1835 4.9092 2.9099 2.9065 2.2153 22.219 9.5734 29.72 11.323 3.8861 0.90657 7.7345 2.0617 8.5519 2.5669 0.81744 0.5052 8.0047 0.95051 15.972 0.98955l14.486 0.071-0.0455 3.1766c-0.0633 4.4202 1.6976 4.0162 10.092-2.3146 4.0043-3.0202 14.015-10.167 22.245-15.883 8.2305-5.7153 17.587-12.777 20.792-15.692 3.205-2.9155 6.8114-5.6567 8.0141-6.0915s1.9025-1.0748 1.5552-1.4221c-0.34738-0.34739-3.9304 0.632-7.9623 2.1764s-9.4099 3.3478-11.951 4.0075c-2.5412 0.65973-6.9595 1.8069-9.8184 2.5492-2.8589 0.74235-12.735 2.8836-21.947 4.7584s-21.192 4.4386-26.623 5.6975c-11.96 2.7724-14.717 2.8298-20.713 0.43077-8.7954-3.5192-4.8645-8.5332 6.701-8.5473 12.53-0.0152 64.307-11.948 70.09-16.153 4.62-3.3594 12.197-4.9259 14.36-2.9687 1.7844 1.6148 2.6658 1.7373 4.6935 0.6521 3.5822-1.9171 6.1622-0.58659 5.5072 2.84-1.0831 5.6658 5.5222-0.0751 15.743-13.683 5.4564-7.2645 11.798-14.945 14.093-17.067 10.614-9.8167 16.365-20.6 12.495-23.43-2.4091-1.7615-0.60207-5.2639 2.7158-5.2639 2.1452 0 1.329-9.1025-1.5537-17.326-1.0021-2.8587-2.0857-9.876-2.4081-15.594-0.85231-15.118-9.6437-30.563-17.419-30.603-0.79414-0.005-1.4589-0.39732-1.4772-0.8738-0.0184-0.47648-2.4874-3.4964-5.4868-6.7109s-7.7925-8.6324-10.651-12.04c-5.8895-7.0193-12.598-13.468-17.043-16.384-1.6585-1.088-3.5704-2.9416-4.2485-4.1191-0.67816-1.1775-3.3714-4.9894-5.985-8.4708-6.1809-8.2332-9.9143-15.64-9.4668-18.783 0.50639-3.5558 4.7624-3.8901 6.9615-0.54683 0.96125 1.4613 5.1965 6.17 9.4117 10.464 4.2152 4.2937 7.664 8.5602 7.664 9.4809 0 0.92077 3.2553 4.1031 7.234 7.0719s8.89 7.5389 10.914 10.156c4.803 6.2104 16.172 17.847 21.013 21.507 2.1005 1.5883 5.9987 4.7071 8.6626 6.9306 2.6639 2.2236 7.3203 5.8622 10.348 8.0857 3.0273 2.2236 7.1041 5.32 9.0596 6.8809s6.2114 4.2404 9.4576 5.9543 10.134 6.9342 15.305 11.601l9.4031 8.4846 0.79244 7.1862c1.3277 12.04-0.5469 14.113-8.4888 9.3857-5.7647-3.431-7.067-5.3466-7.067-10.395 0-2.9922-0.79093-5.0915-2.528-6.7099-3.5695-3.3255-4.7131-2.9867-7.9245 2.3474-1.5572 2.5864-4.5622 6.8439-6.6779 9.461-3.0493 3.772-3.6758 5.3712-3.0225 7.7148 1.6158 5.7961 1.099 12.297-1.2412 15.611-1.2571 1.7802-3.0653 4.6996-4.0182 6.4874-0.95297 1.7879-6.4494 8.0886-12.214 14.001-10.083 10.342-19.82 21.53-25.904 29.767-1.5883 2.1499-3.9274 4.9892-5.198 6.3095s-4.535 5.7785-7.2542 9.907c-2.7192 4.1286-7.155 9.88-9.8574 12.781-11.553 12.402-19.844 27.07-16.098 28.478 1.1118 0.41792 4.6204 2.3768 7.797 4.3531 20.827 12.957 36.904 16.605 69.784 15.832l14.98-0.35207 4.719-9.7493zm-112.65-112.63c-13.935-2.868-12.155-12.816 2.6702-14.919 9.2287-1.3088 16.911-4.0378 21.813-7.7484 20.369-15.418 21.219-15.749 21.219-8.2706 0 4.4085-0.60878 5.3894-7.2194 11.632-16.356 15.445-28.249 21.412-38.483 19.306zm106.07-3.6978c-3.4189-4.3346-2.407-18.23 1.6208-22.258 2.6128-2.6128 3.6682-0.96283 4.0782 6.3754l0.35494 6.3531 5.0684 0.36296c2.7876 0.19964 6.6861-0.27934 8.6633-1.0644 4.1692-1.6554 27.356-12.507 36.22-16.951 4.732-2.3726 6.3626-2.732 7.4522-1.6425 4.0605 4.0605-22.663 20.554-41.232 25.448-2.5412 0.66974-7.3171 2.0285-10.613 3.0194-7.2471 2.1789-10.107 2.267-11.612 0.35783zm70.957-45.506c-0.41018-0.41018-7.221-1.1312-15.135-1.6023-15.954-0.94966-23.2-3.283-23.2-7.4703 0-2.6822 3.1312-2.8393 15.594-0.78261 4.1295 0.68148 13.226 1.8188 20.214 2.5275 14.203 1.4402 16.401 2.4856 12.289 5.8453-2.6387 2.1561-8.2384 3.0064-9.7624 1.4824zm-91.673-110.83c-1.3212-3.4428 16.355-15.482 22.731-15.482 7.6511 0 2.9976 7.1624-8.2678 12.725-10.106 4.9907-13.367 5.6122-14.463 2.7568zm-98.689 276.63c1.2487-1.3404 2.8585-4.8884 3.5772-7.8845 3.6914-15.387 6.6554-18.888 11.21-13.241l2.6995 3.3477 3.8205-4.5132c2.1013-2.4823 5.5902-7.9402 7.7532-12.129 2.163-4.1885 4.9852-8.4803 6.2716-9.5374 5.3822-4.4227 0.12061-3.1251-7.1283 1.758-9.2696 6.2443-13.936 10.358-17.465 15.398-1.8184 2.5967-3.6647 3.7891-6.2598 4.0429-2.8337 0.27707-3.8353 1.0244-4.3525 3.2476-1.2076 5.1905-31.815 4.5833-47.442-0.94121-3.4467-1.2184-8.6058-2.8956-11.465-3.727-2.8589-0.8314-8.3168-2.6753-12.129-4.0975-3.8119-1.4222-8.2301-2.8682-9.8184-3.2131-1.5883-0.34497-6.4087-2.9888-10.712-5.8752-4.3034-2.8864-8.294-5.248-8.868-5.248-1.4509 0-8.1425-8.2852-8.1425-10.082 0-2.9761-3.0005-1.3391-5.7755 3.151-1.5706 2.5412-3.1971 4.6204-3.6144 4.6204-6.8453 0 7.3348 15.139 19.654 20.983 4.2019 1.9933 7.8997 3.9354 8.2174 4.3156 0.31765 0.38029 2.9166 1.873 5.7755 3.317 2.8589 1.4441 6.8064 3.6538 8.7722 4.9105s5.8643 2.7658 8.6633 3.3536c2.799 0.58779 8.2078 1.8416 12.02 2.7861 3.8119 0.94459 10.049 2.0689 13.861 2.4984 3.8118 0.42953 9.0098 1.345 11.551 2.0343 2.5412 0.68934 9.0387 1.6002 14.439 2.0242 5.4001 0.42394 10.448 0.85316 11.217 0.95381 0.76939 0.10061 2.4206-0.91365 3.6693-2.254zm108.96-153.21c6.3732-7.2687 6.4329-12.199 0.19598-16.172-6.2941-4.0087-6.5648-3.6761-5.6426 6.9306 1.0623 12.217 1.7756 13.428 5.4466 9.2409zm41.676-135.46c5.0435-2.231 5.4401-2.2461 9.3996-0.35796 3.9069 1.8631 4.593 1.8592 12.497-0.0707 12.274-2.9972 12.778-3.3068 19.147-11.765 5.7157-7.5915 10.806-12.021 13.831-12.037 3.4055-0.0171 11.745 8.4853 12.405 12.648 0.75069 4.7316 3.5404 11.524 4.8339 11.77 8.1814 1.5548 22.699-0.1567 41.314-4.8704 17.972-4.551 22.644-6.1127 26.254-8.7764 2.0075-1.481 4.4586-2.7308 5.447-2.7773 0.98837-0.0464 3.3564-1.0871 5.2624-2.3126 10.513-6.7598 22.091-9.1046 34.587-7.0049 7.6162 1.2798 8.7016 1.1988 13.726-1.0238 4.1908-1.8538 6.6551-2.2337 10.627-1.6381 8.3709 1.2553 26.623-12.731 29.006-22.228 1.7185-6.8473-5.5331-29.239-9.4691-29.239-2.1341 0-2.047 0.80332 1.253 11.551 3.0575 9.9578 3.3275 13.554 1.2553 16.717-1.023 1.5613-1.86 3.8132-1.86 5.0042 0 2.2964-4.2175 4.8347-6.6419 3.9975-2.1056-0.72715-1.7225-3.9271 0.86633-7.2368 4.9296-6.3021-7.5517-35.649-12.891-30.31-0.80922 0.80922-0.74672 2.0024 0.19731 3.7664 3.9626 7.4041 5.4873 28.709 2.2965 32.089-3.467 3.6731-6.2791 1.477-5.3602-4.186 0.65571-4.0407-3.0671-25.3-4.7037-26.861-2.3327-2.2246-11.882-1.0774-11.882 1.4274 0 0.71199 0.81122 1.8877 1.8027 2.6127 1.0374 0.75859 1.7992 3.0193 1.7945 5.3253-0.005 2.2039 0.81272 7.7393 1.8161 12.301 2.0687 9.4046 0.1124 15.563-5.1882 16.333-3.4228 0.4972-4.5247-2.7314-1.916-5.614 1.7736-1.9598 1.8718-2.8807 0.71764-6.7329-0.73535-2.4544-1.337-7.9108-1.337-12.125v-7.663l-3.7541 0.007c-6.3705 0.0104-19.348 3.9745-19.348 5.9092 0 0.55823 3.0499 1.015 6.7776 1.015h6.7776l1.211 5.4868c0.66608 3.0177 1.5767 6.6617 2.0236 8.0978 0.68413 2.1984 0.24201 2.8099-2.7976 3.8695-2.4376 0.84974-3.8472 2.2528-4.34 4.3196-1.0342 4.3373-2.592 5.9489-5.7507 5.9489-3.8175 0-3.5729-3.2799 0.71899-9.6392 4.3142-6.3925 4.31-7.1912-0.05-9.4459-1.9335-0.99983-4.0828-3.0633-4.7764-4.5854-1.2356-2.7118-1.2986-2.7226-3.1265-0.53546-1.364 1.6321-5.902 3.0078-16.882 5.1178-8.259 1.5871-17.355 3.3912-20.214 4.0091-2.8589 0.61788-12.475 2.1929-21.369 3.5001-20.064 2.9488-35.88 5.6984-40.429 7.0286-1.9059 0.55738-9.0336 1.8277-15.839 2.8229l-12.374 1.8095-4.733-4.5932-4.733-4.5932-11.193 0.40149c-6.1563 0.22082-14.052 0.74806-17.546 1.1716-7.1037 0.86114-6.9425 0.93999-28.999-14.191-5.8393-4.0058-12.749-8.3617-15.355-9.6799s-5.1457-3.0942-5.6438-3.9468c-0.49812-0.85255-3.8953-3.3023-7.5493-5.4438-3.654-2.1416-9.0591-5.6647-12.011-7.8293-7.8731-5.7725-14.751-9.7934-19.813-11.583-2.4588-0.86927-5.9055-3.0482-7.6594-4.8421-3.3456-3.422-12.229-5.8923-27.082-7.531-13.482-1.4875-9.9492-5.3349 5.1361-5.5935 14.092-0.24153 18.732-1.8111 34.942-11.819 10.685-6.5975 11.489-7.7398 7.797-11.081-1.2706-1.1499-2.3102-2.7604-2.3102-3.5788 0-0.81848-0.93277-2.1674-2.0728-2.9975-1.14-0.83015-3.6508-3.8485-5.5794-6.7074s-6.3238-9.1556-9.767-13.993c-3.4433-4.8372-6.8437-9.7752-7.5564-10.974-1.2508-2.1027-1.3716-2.0895-3.4653 0.37994-1.1932 1.4072-5.0283 4.0741-8.5225 5.9263s-8.9521 4.8119-12.129 6.577c-3.1765 1.7651-8.2101 4.4108-11.186 5.8794-2.9756 1.4685-5.8345 3.3682-6.3531 4.2214-0.51857 0.85324-4.1618 3.4872-8.0962 5.8532-3.9343 2.366-8.4636 5.9716-10.065 8.0125-1.6014 2.0408-3.7395 4.4903-4.7512 5.4433-15.306 14.417-15.821 22.641-1.8692 29.881 1.6758 0.86961 4.3464 2.7412 5.9346 4.1591 2.7421 2.448 6.0452 4.4957 24.037 14.901 16.063 9.29 30.349 16.887 31.771 16.894 0.51719 0.002 3.7813 1.3043 7.2536 2.8926s6.5888 2.8878 6.9255 2.8878c0.33668 0 7.2621 2.8589 15.39 6.3531 8.1277 3.4942 15.561 6.3531 16.519 6.3531 0.95778 0 3.5266 1.2115 5.7086 2.6922 2.1819 1.4807 5.7484 3.3131 7.9254 4.072 2.177 0.75892 5.2725 2.5851 6.8788 4.0582 1.6063 1.473 5.949 3.6 9.6506 4.7265 7.0169 2.1355 8.9122 4.2059 6.8595 7.493-1.6445 2.6333-0.24298 5.0075 7.5362 12.767 3.5033 3.4942 7.0774 8.0424 7.9426 10.107 1.8887 4.5074 4.6082 4.8227 12.29 1.4248zm29.618-12.186c-0.82566-0.99485-2.8913-2.5277-4.5903-3.4063-5.8123-3.0057-7.2625-6.6833-5.1251-12.997 3.4001-10.044 10.841-14.194 9.3874-5.2362-1.0372 6.3917 3.9675 6.0812 49.483-3.0704 19.168-3.8539 35.647-6.6482 78.397-13.294 10.702-1.6637 13.434-1.4198 13.434 1.1995 0 2.9702-12.441 5.8695-46.782 10.902-3.1765 0.46552-12.013 1.9727-19.637 3.3494-7.6237 1.3766-18.618 3.2424-24.432 4.1461-5.8138 0.90372-12.831 2.1439-15.594 2.756-2.7629 0.61205-10.137 2.0088-16.387 3.1038-11.964 2.0961-13.561 3.1946-11.435 7.8616 2.3186 5.0888-3.1943 8.9329-6.7194 4.6854zm31.799-33.226 8.0563-1.3943 8.9582-10.952c10.262-12.546 11.012-14.27 4.0285-9.2545-2.737 1.9656-7.0253 3.8933-9.5296 4.2839-2.5043 0.39056-5.933 1.6736-7.6194 2.8511-6.3085 4.4051-8.6155 1.2855-3.1893-4.3129 2.6467-2.7307 4.7412-3.8741 6.8082-3.7166 14.61 1.1133 74.036-60.358 64.683-66.909-3.1326-2.1942-2.8707-3.4146 1.1827-5.5107 2.8416-1.4694 3.4653-2.5144 3.4653-5.8052 0-4.4213-1.932-5.5282-2.5186-1.4431-0.74657 5.1982-13.499 6.0009-19.7 1.24-0.80353-0.61688-5.0996-2.6083-9.5467-4.4254-4.4472-1.8171-9.905-4.7002-12.129-6.4069-2.2236-1.7067-6.5119-4.4802-9.5296-6.1633l-5.4868-3.0602v3.438c0 5.7287-4.4415 9.7657-10.503 9.5469-4.6523-0.16792-5.6709 0.34918-11.83 6.0053-8.7215 8.0093-26.275 20.889-32.534 23.872-2.4649 1.1746-3.8284 2.0183-12.071 7.4696-5.0497 3.3396-17.49 9.6236-35.866 18.116-34.607 15.995-48.508 11.785-36.963-11.196 2.5412-5.0585 4.6204-9.337 4.6204-9.5078 0-1.077-4.5764-0.0228-5.6815 1.3087-0.73916 0.89063-2.4922 1.9198-3.8955 2.2869-2.4305 0.63593-5.183 4.1601-10.134 12.975-3.0684 5.4631-2.8266 7.0112 1.4397 9.2174 2.0216 1.0454 7.6926 4.5674 12.602 7.8266 4.9096 3.2592 13.937 9.0447 20.06 12.857 9.6061 5.98 17.646 11.569 26.537 18.448 1.7993 1.392 5.7189 1.6747 20.214 1.4578 15.133-0.22643 18.531 0.042 21.448 1.6942 10.485 5.9404 10.785 6.0364 13.797 4.424 2.4398-1.3058 3.2503-1.2598 5.5053 0.31186 3.1583 2.2013 4.8083 2.2474 15.321 0.42791zm-15.641-16.252c-0.31218-0.3122-4.1912-1.1278-8.6201-1.8125-13.323-2.0598-19.026-5.0671-19.026-10.034 0-2.8126 3.7307-3.9277 5.198-1.5536 2.1242 3.437 5.882-0.46244 12.286-12.749 1.3157-2.5242 2.8641-4.8811 3.441-5.2376 1.142-0.70582 9.1078-12.847 9.1078-13.882 0-0.34968 1.4477-2.8086 3.217-5.4643 1.7694-2.6557 4.7022-7.6874 6.5174-11.182 8.2757-15.931 22.112-17.115 39.415-3.3743 0.66683 0.52952 3.5257 1.2782 6.3531 1.6637 12.894 1.7582 13.491 2.8941 5.9782 11.38-6.2241 7.0302-9.8316 11.537-12.702 15.868-8.0668 12.171-11.92 16.047-15.952 16.047-2.0679 0-2.153-4.1944-0.11008-5.4294 0.84043-0.50805 3.6815-3.7826 6.3134-7.2768 2.632-3.4942 7.1423-9.3876 10.023-13.096 6.3126-8.1274 6.5906-10.003 1.4835-10.012-4.4241-0.008-11.472-1.8123-16.797-4.3011-4.1744-1.951-5.0249-1.4047-8.5055 5.4626-0.80497 1.5883-4.1555 6.5416-7.4456 11.007-3.2901 4.4657-7.6159 11.723-9.6128 16.127-1.9969 4.4041-4.0064 8.2874-4.4654 8.6296-6.4791 4.8291-8.2978 11.942-3.4204 13.378 4.761 1.4016 5.3228 5.5427 0.8231 6.0674-1.612 0.188-3.1864 0.0864-3.4986-0.22578zm-2.4236-18.378c2.5327-3.2974 6.2974-9.114 8.366-12.926 2.0686-3.8119 6.6954-11.349 10.282-16.749 7.5408-11.355 9.8481-16.459 8.7364-19.327-1.024-2.6416-2.9495-0.31026-7.4486 9.0184-1.7083 3.5421-3.7308 7.1806-4.4945 8.0858-0.76371 0.9051-3.2706 5.2842-5.5708 9.7314s-5.6792 9.9798-7.5088 12.295c-1.8296 2.315-3.3265 4.6737-3.3265 5.2416 0 0.56788-1.5383 2.8322-3.4184 5.0318-3.5902 4.2002-5.0357 9.5894-1.8668 6.9594 0.90503-0.7511 3.7177-4.0635 6.2503-7.3609zm43.506 29.644c13.886-2.7042 48.986-8.4939 51.494-8.4939 9.542 0 4.4944-7.7383-5.5126-8.4511-14.9-1.0614-29.232-4.3489-29.232-6.7054 0-4.8524-7.3973 1.794-16.226 14.579-2.1936 3.1766-4.6381 6.1912-5.4322 6.6993-2.3199 1.4841-1.8174 4.6784 0.57755 3.6717 1.1118-0.46732 3.061-1.0521 4.3316-1.2996zm168.29-18.176c4.0101-0.87821 14.308-2.7296 22.885-4.1141 8.5767-1.3846 18.973-3.4874 23.102-4.6729 11.466-3.2919 28.164-6.9428 31.753-6.9428 2.7898 0 12.893-1.4427 21.093-3.012 1.827-0.34964 2.599-1.3131 2.599-3.2436 0-3.0688-9.8773-3.5022-13.389-0.58751-0.90083 0.74763-5.8466 1.5726-10.991 1.8333-5.144 0.2607-12.809 1.2449-17.032 2.1871-4.2238 0.94222-13.138 2.7166-19.808 3.9431-6.6707 1.2265-17.327 3.2453-23.68 4.4864-6.3531 1.241-14.283 2.6156-17.622 3.0546-7.5909 0.99792-11.915 4.0503-9.6324 6.8001 1.8725 2.2563 1.6688 2.2512 10.723 0.26829zm-110.56-7.2307c1.2531-0.86267 4.1822-1.5685 6.509-1.5685 3.2218 0 4.6754-0.67884 6.0961-2.8471 3.1135-4.7519 2.4625-5.5914-3.6212-4.6693-15.861 2.404-32.906-0.15671-33.598-5.0476-0.35961-2.5417-0.10442-2.6862 3.4653-1.9622 16.205 3.2867 25.646 3.133 32.97-0.53711 10.926-5.4747 12.727-10.043 2.5122-6.3693-6.4018 2.3021-23.619 3.0546-34.064 1.489l-5.9007-0.88441-7.0943 6.8988c-10.097 9.8187-8.7083 13.031 6.4877 15.008 4.2831 0.55722 9.0702 1.5054 10.638 2.1071 3.5965 1.3803 12.601 0.44661 15.599-1.6175zm-233.33-27.84c2.1692-1.5937 9.8184-11.63 9.8184-12.883 0-2.0139-1.8899-1.454-5.5837 1.6541-1.8979 1.597-5.3164 3.6831-7.5968 4.6359-4.704 1.9654-4.8952 2.4244-2.2344 5.3645 2.0298 2.2429 3.7128 2.6123 5.5965 1.2284zm238.7-0.45822c5.5266-0.91268 8.3288-1.9293 8.7563-3.1765 0.3458-1.0089 2.0973-4.9872 3.8921-8.8406 5.5477-11.911 18.348-50.17 18.358-54.873 0.005-2.0611-1.5823-4.3964-5.1913-7.6394-3.7791-3.3958-5.198-5.5419-5.198-7.8619 0-4.1106-4.5769-23.949-5.837-25.3-0.54211-0.58132-4.7773 2.8213-9.7047 7.797-4.8086 4.8556-9.2565 8.8284-9.8843 8.8284-1.6048 0-1.4206 1.8851 0.55817 5.7116 4.7252 9.1376 4.025 11.683-5.9418 21.6-9.3347 9.2884-13.487 14.64-12.288 15.838 0.91417 0.91417 5.4945-2.4726 12.672-9.3697 3.3721-3.2404 7.4882-6.0328 9.4798-6.4311 3.4817-0.69633 3.5125-0.76697 2.8338-6.4978-1.4345-12.112 11.814-11.741 22.681 0.63608 6.1719 7.0294 3.366 14.324-3.194 8.3038-3.5666-3.2733-10.048-7.8441-11.123-7.8441-0.40029 0-0.39187 2.5324 0.0187 5.6275 0.81814 6.1674-0.34996 7.9478-3.9504 6.0209-2.164-1.1581-5.6218 0.0955-12.599 4.568-3.4728 2.226-3.276 3.3046 0.86633 4.7486 3.598 1.2543 5.0469 6.7988 2.2315 8.5389-0.67862 0.41942-0.97774 1.43-0.66469 2.2458 0.31303 0.81576-0.0807 2.4525-0.87502 3.6372-0.7943 1.1847-2.3427 5.0789-3.441 8.6537-2.0163 6.5631-6.3629 13.554-12.595 20.257-5.8267 6.267 1.2002 7.9495 20.139 4.8219zm-27.93-53.41c0.57958-1.5244 4.7251-6.5538 9.2123-11.176 8.9876-9.259 8.7136-8.5741 6.6367-16.585-1.7736-6.8409-3.2214-7.5681-7.182-3.6075-13.337 13.337-29.815 23.136-28.496 16.946 2.574-12.085 2.6909-30.294 0.40449-63.03-1.2558-17.98-1.8164-19.116-9.4368-19.116-5.6103 0-5.898 0.5188-3.4117 6.1528 1.1701 2.6514 2.4387 7.9395 2.8191 11.751 1.7474 17.51 1.9991 26.468 0.85512 30.426-1.7814 6.1643-3.6928 17.233-4.121 23.864-0.20512 3.1765-0.72986 6.8151-1.1661 8.0858-0.85976 2.5042 9.9244 10.075 21.451 15.06 2.9933 1.2944 5.8128 2.7238 6.2655 3.1766 1.7708 1.7708 5.1626 0.69961 6.1694-1.9485zm-43.896-16.343c-1.4214-1.7127-8.0422-2.3807-8.0366-0.81084 0.001 0.47648 1.951 1.9167 4.3316 3.2005 4.573 2.466 6.6324 1.1377 3.7049-2.3896zm47.314-19.09 12.253-9.3275-6.2279-12.908c-6.5624-13.602-9.3624-22.012-9.3851-28.189-0.0159-4.3404-4.53-18.795-5.8695-18.795-1.5728 0-9.3945 7.9279-8.7887 8.9081 2.1361 3.4563 6.0141 65.66 4.1647 66.803-1.1017 0.68089-0.41003 2.836 0.91023 2.836 0.37952 0 6.2039-4.1974 12.943-9.3275zm-42.661 1.5305c-0.008-0.47649 0.85463-7.0377 1.9164-14.58 1.5522-11.026 1.68-15.101 0.65208-20.792-0.70316-3.8928-1.2689-8.6959-1.2571-10.673 0.0118-1.9775-0.79513-5.5496-1.7931-7.938-0.99794-2.3884-1.8144-5.3186-1.8144-6.5117 0-1.3771-0.81867-2.1692-2.242-2.1692-3.2772 0-3.658 1.3666-2.2995 8.2531 1.8305 9.279 3.2379 31.981 2.2369 36.082-2.8155 11.532-3.6848 16.76-2.9771 17.906 0.88192 1.427 7.6004 1.8032 7.5779 0.42436zm189.74-99.186c4.7593-1.4067 0.62545-6.2173-5.3426-6.2173-1.5925 0-3.2168-0.5198-3.6094-1.1551-1.8991-3.0728-14.065 1.8704-15.636 6.3531-0.87421 2.4945 17.079 3.2388 24.588 1.0193zm-14.72-16.678c29.545-15.719 37.736-29.384 15.309-25.538-4.5011 0.77185-14.678 1.9307-22.616 2.5753-7.9376 0.64455-14.918 1.4721-15.511 1.8389-0.59356 0.36684-6.5963 0.86526-13.339 1.1076-14.96 0.53762-24.743 3.909-11.343 3.909 13.898 0 35.263 11.784 35.336 19.489 0.0281 2.9734 0.37851 3.6161 1.4806 2.7151 0.79413-0.64922 5.6023-3.3929 10.685-6.097zm-102.36-21.959c22.574-1.8102 23.21-1.8555 45.182-3.2195 33.169-2.0591 35.732-2.4115 32.632-4.4874-1.9514-1.3067-2.599-2.8597-2.599-6.2325 0-8.9626-24.727-39.783-35.041-43.677-7.1949-2.7162-20.35 1.5148-29.854 9.6022-2.3388 1.9901-6.4131 5.1777-9.054 7.0837-16.064 11.594-27.865 33.271-21.975 40.367 1.77 2.1328 1.3008 2.12 20.71 0.56363zm12.13-27.423c-10.528-4.3356-11.082-7.692-2.5602-15.526 6.9366-6.3772 9.9957-6.7542 22.424-2.7638 1.8523 0.5947 2.7106 0.10406 3.7293-2.1319 2.693-5.9105 9.464-3.0673 9.451 3.9685-0.0247 13.349-18.384 22.491-33.045 16.453zm272.16 278.32c0-4.058 4.3432-5.4085 22.525-7.0039 27.175-2.3846 59.619-6.1386 81.905-9.4766 3.7525-0.56206 7.3911-1.477 8.0858-2.0332 1.8128-1.4514 7.8036-0.28894 11.022 2.1386l2.7533 2.0768-3.027 3.027c-2.0378 2.0378-4.2709 3.0285-6.8336 3.0316-2.0936 0.002-8.4848 0.75677-14.203 1.676-31.439 5.0546-102.23 9.5996-102.23 6.5636zm-474.14-48.23c-2.0132-2.0132-1.8782-6.6355 0.74771-25.589 1.2432-8.9732 1.1823-9.698-1.0184-12.129-1.2873-1.4218-3.8948-5.444-5.7944-8.9382-4.8326-8.8891-10.846-18.95-11.737-19.637-0.41201-0.31765-3.5621-4.0862-7.0002-8.3745-3.5975-4.4872-7.1447-7.797-8.3563-7.797-1.279 0-2.7289-1.4732-3.6944-3.7541l-1.5892-3.7541-0.82857 3.093c-1.4592 5.4471-9.8609 2.5084-9.8609-3.4491 0-6.3747 9.7915-13.756 11.184-8.4311 1.2134 4.6401 6.8666 4.0226 18.751-2.048 12.544-6.4075 17.384-7.7906 20.822-5.9501 4.0059 2.1439 2.336 8.122-2.2688 8.122-1.031 0-4.9554 1.4806-8.7211 3.2902-3.7656 1.8096-8.2983 3.6444-10.073 4.0773-5.2637 1.2842-5.1155 3.8206 0.57028 9.7593 6.6222 6.9168 12.693 14.704 15.464 19.837 1.2005 2.2236 2.7959 4.8226 3.5454 5.7755 2.9305 3.7263 9.754 17.714 10.606 21.741 1.0996 5.1996 2.727 5.3101 15.202 1.0325 32.419-11.116 33.884-11.425 40.14-8.465 7.9214 3.7481 7.2179 4.6497-8.5887 11.005-3.2943 1.3246-6.53 2.4083-7.1904 2.4083-0.66037 0-6.5417 3.589-13.07 7.9757-6.5279 4.3866-14.728 9.2509-18.222 10.81-3.4942 1.5587-8.055 4.727-10.135 7.0407-4.1656 4.6333-6.0909 5.1422-8.8847 2.3485zm19.05-16.19c2.5804-1.0325 4.4735-2.0955 4.2068-2.3622-0.83289-0.83288-11.162 2.1482-11.162 3.2215 0 1.4686 1.6452 1.2654 6.9552-0.85927zm53.17-26.352c-1.6492-1.9872-1.2145-6.8632 1.5508-17.398 1.0006-3.8118 1.8354-9.2697 1.855-12.129 0.0577-8.3945 4.4711-11.147 7.6498-4.771l1.3544 2.7167 0.79522-2.5055c1.6116-5.0777 5.811-2.5627 5.685 3.4047-0.25253 11.956-14.809 35.599-18.89 30.682zm123.64-73.785c-1.3273-2.7418-2.4133-6.0339-2.4133-7.3157 0-3.2409-1.0459-3.9585-3.5186-2.4143-2.2459 1.4026-8.0325-0.699-8.0325-2.9172 0-0.58872-0.97398-2.4501-2.1644-4.1365-10.724-15.192-7.4616-29.682 7.1991-31.976 5.008-0.7834 8.8494-4.3042 11.973-10.974 1.942-4.1464 2.3904-4.4113 8.4046-4.9655 3.4942-0.322 7.9202-0.92968 9.8354-1.3504 4.642-1.0197 9.8014 2.8595 9.8014 7.3693 0 3.7555-3.7886 8.2197-6.9756 8.2197-1.2459 0-2.2652 0.47814-2.2652 1.0625 0 0.61714-4.5465 0.79128-10.846 0.41544-10.174-0.607-10.926-0.49702-12.143 1.7755-0.79856 1.4921-2.9549 2.7197-5.6142 3.1962-9.2037 1.649-10.63 7.1174-4.803 18.417 4.6147 8.949 5.3032 9.592 7.3216 6.8367 1.4232-1.9429 1.4238-2.3735 0.005-3.1719-6.2864-3.5354-6.5423-12.736-0.44083-15.849 2.5668-1.3095 5.1474-3.6446 5.7347-5.1892 2.1151-5.5631 19.804-5.1608 20.599 0.46851 0.35521 2.5126 0.0734 2.7003-3.1019 2.0652-2.9828-0.59657-3.5457-0.32555-3.856 1.8567-0.31122 2.1884-1.2931 2.6552-6.8407 3.2517-9.2712 0.99687-11.58 3.3586-7.384 7.5543 2.3425 2.3425 2.1893 5.0272-0.28878 5.0587-1.7305 0.022-1.6557 0.31294 0.51937 2.0214 2.5351 1.9912 8.4327 16.451 8.4327 20.675 0 6.5064-5.9907 6.5165-9.1378 0.0154zm23.734-8.4561c-4.1534-4.1534-4.2432-9.6609-0.15751-9.6609 1.5883 0 2.8884 0.38985 2.8892 0.86633 0.00078 0.47649 1.3003 2.3766 2.8878 4.2225 5.9069 6.8684 0.81764 11.009-5.6194 4.572zm25.319-11.867c-1.1456-1.8536 0.45524-4.1351 4.0035-5.7057 4.0571-1.7959 3.4814-3.7672-1.0004-3.4257-6.1077 0.4654-7.7368-2.4584-3.0726-5.5145 6.7538-4.4252 16.951 3.0786 13.343 9.8192-2.2783 4.257-11.544 7.6262-13.274 4.8267zm-15.06-44.759c-4.4346-2.1204-9.286-3.8552-10.781-3.8552-1.6621 0-2.5305-0.56098-2.2351-1.4439 1.0994-3.2861 20.353-1.8507 23.448 1.7481 5.9787 6.9529 0.54869 8.8014-10.432 3.5511z"/>
</svg>
