<?xml version="1.0" encoding="UTF-8" standalone="no"?>
<svg
   id="big_bag_of_money_xA0_Image_1_"
   xml:space="preserve"
   viewBox="0 0 333.69714 432.73499"
   version="1.1"
   y="0px"
   x="0px"
   sodipodi:docname="persona-sacco-soldi.svg"
   width="333.69714"
   height="432.73499"
   inkscape:version="1.4.3 (0d15f75, 2025-12-25)"
   xmlns:inkscape="http://www.inkscape.org/namespaces/inkscape"
   xmlns:sodipodi="http://sodipodi.sourceforge.net/DTD/sodipodi-0.dtd"
   xmlns="http://www.w3.org/2000/svg"
   xmlns:svg="http://www.w3.org/2000/svg"
   xmlns:rdf="http://www.w3.org/1999/02/22-rdf-syntax-ns#"
   xmlns:cc="http://creativecommons.org/ns#"
   xmlns:dc="http://purl.org/dc/elements/1.1/"><defs
   id="defs41" /><sodipodi:namedview
   id="namedview41"
   pagecolor="#ffffff"
   bordercolor="#000000"
   borderopacity="0.25"
   inkscape:showpageshadow="2"
   inkscape:pageopacity="0.0"
   inkscape:pagecheckerboard="0"
   inkscape:deskcolor="#d1d1d1"
   inkscape:zoom="1.3574776"
   inkscape:cx="149.91039"
   inkscape:cy="212.52653"
   inkscape:window-width="2560"
   inkscape:window-height="1377"
   inkscape:window-x="1912"
   inkscape:window-y="32"
   inkscape:window-maximized="1"
   inkscape:current-layer="big_bag_of_money_xA0_Image_1_" />
<g
   clip-rule="evenodd"
   fill-rule="evenodd"
   id="g41"
   transform="translate(0.071,-0.058871)">
	<path
   d="m 188.02,80.68 c -0.172,2.938 -2.438,3.782 -2.871,6.458 1.018,2.092 4.671,1.549 6.459,2.871 3.115,-0.473 1.372,-5.804 5.023,-5.741 -2.313,6.299 -3.211,14.012 -5.023,20.812 -3.35,-0.726 0.333,-5.223 -1.436,-6.459 -2.352,-1.236 -4.776,-2.399 -7.894,-2.87 -2.786,0.562 0.319,7.018 -3.588,6.458 -0.442,-6.081 2.834,-14.64 6.458,-19.376 0.81,-1.061 0.57,-3.158 2.87,-2.154 z M 183,92.88 c 2.843,0.746 5.08,2.096 8.611,2.153 0.834,-5.14 -5.602,-3.01 -7.894,-5.023 -0.41,1.463 -2.17,1.407 -0.72,2.87 z"
   id="path1" />
	
	
	
	
	
	
	
	<path
   id="path9"
   d="m 116.25127,237.84002 c -1.2e-4,0.009 1.4e-4,0.0179 0,0.0273 10e-4,-0.009 0.003,-0.0181 0.004,-0.0273 -10e-4,-2.9e-4 -0.003,3e-4 -0.004,0 z" />
	
	<path
   d="m 307.14,250.04 c -3.604,1.018 -9.309,-1.554 -14.353,-1.436 -0.68,-2.593 2.826,-1.001 4.306,-1.435 -0.382,-2.011 -3.457,-1.327 -5.023,-2.153 4.05,-2.79 15.5,-1.37 15.06,5.03 z"
   id="path11" />
	
	
	
	
	
	
	
	<path
   d="m 288.49,267.98 c -1.291,1.818 -3.521,2.697 -5.741,3.588 -1.09,-4.05 3.27,-5.35 5.74,-3.59 z"
   id="path19" />
	<path
   d="m 172.95,285.92 c -3.468,-0.838 -2.506,-6.105 -4.306,-8.612 -7.604,-5.111 -17.719,-4.291 -29.423,-4.306 -1.552,1.367 4.186,1.515 3.588,4.306 -5.683,1.032 -11.192,-4.039 -16.505,-5.741 2.094,-3.455 7.284,0.29 10.047,0.718 0.972,-0.702 0.93,-2.419 2.153,-2.87 18.08,-1.53 36.64,0.13 34.45,16.5 z"
   id="path20" />
	
	
	
	
	
	
	<path
   d="m 55.257,289.51 c 6.902,3.623 16.669,4.381 20.094,11.481 -3.201,0.838 -6.013,-2.673 -9.329,-4.306 -3.312,-1.63 -7.129,-2.349 -10.047,-4.306 0.091,-1.28 -0.878,-1.5 -0.718,-2.86 z"
   id="path27" />
	<path
   d="m 54.54,295.97 c 5.214,4.114 15.132,3.526 17.94,10.046 -4.45,-0.667 -11.801,-4.396 -17.223,-6.458 0.294,-1.73 -1.31,-1.56 -0.717,-3.59 z"
   id="path28" />
	
	<path
   d="m 183.71,302.43 h 2.152 c 0.331,7.576 -0.45,14.52 0,20.812 1.269,17.709 8.411,30.27 13.635,43.775 -5.267,-0.952 -4.381,-8.058 -7.894,-10.765 -1.043,2.502 0.968,8.104 0.718,12.2 -5.222,-3.443 -2.54,-12.645 -3.588,-20.094 -1.179,-8.381 -5.129,-16.137 -5.741,-25.117 -0.44,-6.35 -0.21,-14.93 0.71,-20.82 z"
   id="path30" />
	<path
   d="m 124.15,304.58 c 2.975,1.752 3.133,5.155 5.023,7.894 6.149,8.907 17.029,14.445 31.576,15.07 -0.059,3.875 -7.154,2.069 -10.047,1.436 -2.856,-0.626 -6.396,-2.484 -8.611,-3.589 -8.56,-4.27 -15.9,-10.54 -17.94,-20.81 z"
   id="path31" />
	<path
   d="m 165.77,307.45 c -2.16,3.316 -8.495,2.473 -13.635,2.153 -7.99,-0.497 -16.417,-1.506 -22.246,-3.589 3.696,-2.681 10.013,0.262 15.788,0.718 7.03,0.56 14.11,-0.19 20.09,0.72 z"
   id="path32" />
	<path
   d="m 241.84,321.08 c -2.453,7.595 -6.808,13.287 -12.918,17.224 3.47,-5.86 8.328,-10.331 10.765,-17.224 h 2.16 z"
   id="path33" />
	<path
   d="m 184.43,345.48 h 2.152 c -4.07,13.632 -3.911,31.492 -7.176,45.929 -5.004,-0.974 -1.613,-7.257 -0.718,-11.482 1.952,-9.217 1.682,-23.771 5.023,-32.293 -0.19,-1.16 0.69,-1.24 0.73,-2.16 z"
   id="path34" />
	<path
   d="m 109.8,373.47 c 2.484,-1.734 5.879,1.751 6.458,4.306 -3.4,-0.19 -4.04,-3.14 -6.46,-4.31 z"
   id="path35" />
	<path
   d="m 144.96,389.98 c 0.834,-0.116 1.277,0.158 1.436,0.718 -1.257,6.398 -2.126,13.184 -7.176,15.788 -1.13,-6.52 3.77,-9.93 5.74,-16.51 z"
   id="path36" />
	<path
   d="m 109.08,396.44 c 6.955,3.163 15.101,5.808 22.964,8.611 2.289,0.816 5.913,0.545 6.458,3.588 -9.345,-0.502 -18.937,-6.868 -28.705,-9.329 -0.56,-0.64 -0.77,-1.62 -0.72,-2.87 z"
   id="path37" />
	<path
   id="path38"
   d="m 226.07744,0.06267731 c -5.58808,-0.1020293 -10.8051,1.83939059 -13.73047,6.75976559 0.179,4.9620001 -0.24909,9.3194221 -2.87109,11.4824221 -7.31801,0.643 -7.59522,-4.199735 -12.19922,-7.177735 -12.896,-8.3389836 -41.87129,-3.0884803 -47.36328,7.894532 -2.498,4.997 -2.0038,9.360406 -0.7168,17.941406 -4.097,1.038 -0.3113,6.147328 -2.1543,8.611328 -8.118,-9.901 -20.76376,-1.755984 -33.00976,-6.458984 -2.209,-0.535 -1.3789,1.970547 -3.58789,1.435547 -2.541,0.389 -1.76465,-2.540344 -4.30665,-2.152344 -0.847,1.067 -0.61914,3.207094 -2.86914,2.871094 -1.825,-0.806 -3.500434,-1.763094 -5.023434,-2.871094 -6.811,6.585 -20.439375,6.352125 -30.859375,9.328125 -0.563,3.194 3.850844,1.41364 3.589844,4.30664 -0.831,2.519 -4.498531,2.199344 -7.894531,2.152344 0.996,2.14 0.846453,4.392438 -1.435547,5.023438 -2.637,0.233 -6.353531,-0.613203 -7.894531,0.716797 -0.621,3.389 4.148297,3.940984 2.154297,6.458984 -1.51,1.838 -3.964782,2.731141 -7.175782,2.869141 2.718,5.082 -0.602297,5.235078 -2.154297,9.330078 2.207,6.28 8.575782,9.850062 7.175782,15.789062 1.678,0.237 2.96564,0.862547 4.30664,1.435547 1.553,4.665999 7.228875,5.210329 10.046875,8.611329 4.692,0.81 9.801625,1.20223 10.765625,5.74023 -3.191,-0.321 -5.230781,0.51055 -7.175781,1.43555 -0.887,2.323 2.320594,0.54909 1.433594,2.87109 -3.73,1.487 -5.131033,2.38244 -6.457031,5.02344 -1.770001,-0.094 -3.458641,-0.1102 -4.306641,0.7168 -2.221,3.042 -1.842328,8.68373 -8.611328,7.17773 -1.379,1.014 -1.298344,3.48349 -2.152344,5.02149 -6.627,1.746 -7.614516,9.13262 -14.353516,10.76562 0.794,6.344 -2.401984,9.03333 -6.458984,8.61133 v 6.45898 c -3.48,2.953 -3.547186,6.31268 -5.742188,10.76368 -1.023999,2.074 -3.505687,3.92623 -4.304687,5.74023 -0.9,2.04 -0.429547,4.92978 -1.435547,7.17578 -0.478,1.067 -2.152094,2.41385 -2.871094,3.58985 -2.428,3.974 -2.398187,6.21457 -5.742187,7.89257 0.222,4.049 -1.0518908,6.60254 -3.5878907,7.89454 1.89,4.393 -2.1114376,7.51312 -5.0234376,9.32812 2.8610002,3.847 -1.8883437,6.22308 -2.1523437,9.33008 2.689,5.85 -0.51373353,13.82062 2.9472656,17.89062 -0.444,1.71 -3.12734374,1.17864 -2.15234372,4.30664 -0.565,2.957 3.43414062,1.34669 2.86914062,4.30469 -1.077,4.474 -1.3087969,10.12652 -0.7167969,14.35352 -2.89499911,1.65 -2.10834373,6.98047 -2.15234372,11.48047 1.29100002,2.057 3.72968752,2.96818 4.30468752,5.74218 -0.833,0.603 -1.9238909,0.9458 -3.5878906,0.7168 0.454,4.091 5.1307812,3.95798 7.1757812,6.45898 -0.599,1.792 -5.6084375,-0.82465 -5.0234375,2.15235 3.851,3.803 11.3694215,3.94142 11.4824215,11.48242 -2.879,8.222 -9.1902184,16.45864 -12.1992184,23.68164 -2.83699908,6.808 0.232,12.3683 0,21.5293 4.785,6.218 10.4971094,11.50865 15.7871094,17.22265 -0.201,5.755 4.281297,14.1103 2.154297,21.5293 3.24,1.544 1.252234,8.31533 5.740234,8.61133 0.267,-4.812 -1.539547,-7.55022 -1.435547,-12.19922 13.789,-0.646 27.546952,-2.98675 38.751954,-0.71875 -0.627001,7.031 -1.028704,13.28386 2.154296,16.50586 -2.809,-1.134 -1.486093,1.86234 -2.871093,2.15234 -0.093,8.785 -2.609797,18.07074 -0.716797,26.55274 3.232,0.595 6.901375,0.75014 8.609375,2.86914 -3.89,7.403 16.417609,8.2743 17.224609,2.1543 -0.533,-2.098 -3.87389,-1.38965 -3.58789,-4.30665 3.262,-6.786 5.211984,-14.88164 6.458984,-23.68164 6.071,-2.062 6.446632,-9.81876 10.763673,-13.63476 4.082,2.617 5.71122,7.68258 12.19922,7.89258 0.625,-7.807 -7.71653,-10.45336 -7.89453,-15.06836 8.518,1.529 8.31615,11.77647 18.66015,11.48047 0.207,-5.207 -5.83828,-4.49699 -8.61328,-6.45899 -1.609,-1.137 -2.84048,-3.58248 -5.02148,-5.02148 -2.183,-1.44 -3.97678,-2.7821 -7.17578,-2.8711 -0.694,7.153 5.12723,7.78877 5.74023,13.63477 -4.627,-4.224 -9.979766,-7.72202 -13.634766,-12.91602 -8.246,-0.845 -15.170859,-3.01062 -16.505859,-10.76562 2.962,-2.27 6.113672,-5.82164 10.763672,-4.30664 2.999,-2.024 5.553078,-4.49424 9.330078,-5.74024 4.129995,4.242 13.024295,3.72089 21.529295,3.58789 2.799,4.922 10.93967,8.10777 10.76367,13.63477 -4.883,-1.337 -7.05767,-5.37858 -10.76367,-7.89258 -6.08,0.292 -8.26017,0.7505 -12.20117,-1.4375 1.698,3.804 4.69908,6.30674 9.33008,7.17774 4.459,4.631 7.49601,10.68351 12.91601,14.35351 -0.66,-4.309 -3.71103,-7.88362 -6.45703,-10.76562 -2.349,-2.465 -7.42498,-4.20553 -6.45898,-7.89453 6.388,1.745 7.61731,8.65007 15.07031,9.33007 2.627,-1.918 0.63,-5.23848 0,-7.89648 -8.024,-2.262 -7.29675,-13.27467 -20.09375,-10.76367 0.473,-4.905 -1.97575,-8.32222 -0.71875,-12.19922 0.47432,-1.4609 2.71434,-2.15719 2.86914,-3.58203 h -0.002 -0.002 -0.002 c -0.16323,-0.0535 -2.08591,-2.40706 -2.14453,-2.87696 -0.112,-0.904 1.32455,-1.54534 1.43555,-2.15234 0.817,-4.463 0.006,-6.67887 -0.7168,-10.04687 2.319,-7.136 1.14297,-19.81294 6.45899,-25.83594 10.483,1.614 24.14831,2.32709 34.44531,2.87109 2.884,0.152 8.11812,2.95345 9.32812,-1.43555 -6.449,0.395 -11.4789,-0.80054 -16.5039,-1.43554 -10.668,-1.347 -22.42872,-1.17014 -33.01172,-2.86914 -13.376,-2.148 -26.233206,-8.04608 -38.033206,-9.33008 -2.586,-0.281 -5.536531,-0.85325 -7.894531,0.71875 8.721,2.282 18.411976,3.59478 25.833985,7.17578 -6.444001,0.254 -12.096907,1.29789 -16.503907,3.58789 -1.741,3.577 0.0557,7.19213 -2.154297,9.32813 -1.888,0.213 -0.565093,-2.78335 -2.871093,-2.15235 -5.392,5.853 -16.753657,9.55641 -17.222657,17.94141 4.379,-5.433 11.716407,-11.72297 17.941407,-12.91797 0.501,3.133 -2.071344,3.19119 -2.152344,5.74219 0.669,0.765 2.646344,0.22039 2.152344,2.15039 0.518,2.194 -0.73475,2.61664 -0.71875,4.30664 4.699,7.74 3.783281,21.09608 8.613281,28.70508 1.692,1.757 1.334891,-1.0708 3.587891,-0.7168 -0.605001,3.236 1.679343,3.58323 2.152343,5.74023 -3.728,2.736 -8.815515,7.11324 -14.353515,5.74024 -2.853,2.648 -6.871672,4.13219 -10.763672,5.74219 -2.091,-1.02 -1.970094,-4.24999 -2.871094,-6.45899 6.158,-3.17 16.73575,-1.92353 20.09375,-7.89453 -10.315,1.166 -19.007281,3.95798 -27.988281,6.45898 -1.191,-5.666 -1.781453,-10.24071 1.435547,-13.63671 -1.029,-1.123 -3.740891,-0.56314 -3.587891,-2.86914 2.228,-19.988 -1.378203,-38.1073 0.716797,-60.2793 14.361,-5.381 35.492356,-8.47008 53.822263,-9.33008 3.424,-0.16 6.23508,0.629 9.33008,0 2.678,-0.543 4.06099,-2.19534 6.45899,-2.15234 6.321,0.113 11.0559,6.17068 16.5039,4.30468 -0.718,-2.641 -3.55023,-1.82514 -5.74023,-2.86914 -3.32262,-1.58419 -6.69091,-4.30914 -11.60547,-4.54687 -0.0403,7.4e-4 -0.0801,0.002 -0.1211,0.002 h -1.17968 c -0.0348,0.001 -0.0667,-0.002 -0.10157,0 -0.65931,0.032 -1.34621,0.1087 -2.0625,0.23828 -0.002,-0.006 -0.004,-0.0132 -0.006,-0.0195 -0.133,0.0372 -0.26306,0.0855 -0.39454,0.12695 -0.49364,0.16381 -1.00631,0.24524 -1.52148,0.30274 -0.16058,0.016 -0.32165,0.0269 -0.48242,0.0352 -16.554961,4.18111 -34.324688,2.75332 -48.548831,-2.59766 -1.127,0.309 -0.61214,2.25655 -2.86914,1.43555 -3.056336,-1.40236 -6.291631,-2.62646 -9.353516,-4.02344 -0.264748,-0.0135 -0.528886,-0.0312 -0.792969,-0.0547 -0.629208,-0.0629 -1.252777,-0.15497 -1.871093,-0.28906 -0.468192,-0.10734 -0.935551,-0.2236 -1.398438,-0.35156 -0.505863,-0.12714 -1.012025,-0.25366 -1.513672,-0.39649 -0.653493,-0.20644 -1.295356,-0.45203 -1.914062,-0.74805 -0.869161,-0.42303 -1.720989,-0.88779 -2.404297,-1.58593 -0.448485,-0.44854 -0.882208,-0.91499 -1.242188,-1.43946 -0.316695,-0.43903 -0.62512,-0.88509 -0.90039,-1.35156 -0.290247,-0.52846 -0.546734,-1.0719 -0.753906,-1.63867 -0.214686,-0.57146 -0.437354,-1.14023 -0.626954,-1.7207 -0.246489,-0.73521 -0.481543,-1.47614 -0.677734,-2.22657 -0.214201,-0.83606 -0.42852,-1.67252 -0.566406,-2.52539 -0.192756,-1.07159 -0.354351,-2.14816 -0.457031,-3.23242 -0.09147,-0.90175 -0.16087,-1.8061 -0.242188,-2.70898 -0.278562,-0.66478 -0.526017,-1.39127 -0.736328,-2.18164 -0.0812,-0.30515 -0.162941,-0.61087 -0.244141,-0.91602 -0.382115,-1.50016 -0.724362,-3.01142 -1.164062,-4.49609 -0.461164,-1.54327 -0.890834,-3.09624 -1.166016,-4.68555 -0.256737,-1.49128 -0.459645,-2.99193 -0.605469,-4.49805 -0.09511,-0.93154 -0.284743,-1.83839 -0.501953,-2.75 -0.247182,-1.46306 -0.414742,-2.93752 -0.320312,-4.42382 0.03379,-1.16227 0.08977,-2.32329 0.183594,-3.48243 0.110995,-1.35087 0.241254,-2.70044 0.333984,-4.05273 0.123581,-1.42108 0.181906,-2.84724 0.375,-4.26172 0.20848,-1.45433 0.491322,-2.8962 0.751953,-4.3418 0.216633,-1.2761 0.439139,-2.54975 0.675781,-3.82226 0.156104,-1.01337 0.230702,-2.03782 0.439453,-3.04297 0.288026,-1.2986 0.660532,-2.57935 1.136719,-3.82227 0.540095,-1.2879 1.133997,-2.55147 1.796875,-3.78125 0.616637,-1.13749 1.203035,-2.29054 1.820313,-3.42773 0.694318,-1.2665 1.396137,-2.52825 2.027343,-3.82813 0.728316,-1.35207 1.4843,-2.68904 2.230469,-4.03125 0.7355,-1.26685 1.437364,-2.55252 2.132813,-3.84179 0.828636,-1.5074 1.693662,-2.99467 2.49414,-4.51758 0.892591,-1.59238 1.805981,-3.17144 2.75586,-4.73047 0.784712,-1.26621 1.59965,-2.51499 2.345703,-3.80469 0.775946,-1.29289 1.579343,-2.56779 2.300781,-3.89258 0.698123,-1.22596 1.33275,-2.48786 2.011719,-3.7246 0.651235,-1.24087 1.373425,-2.44136 2.042969,-3.67188 0.799841,-1.42815 1.63234,-2.83754 2.507812,-4.2207 0.973938,-1.60689 1.986497,-3.18703 3.035156,-4.7461 0.141428,-0.21178 0.28323,-0.42369 0.425782,-0.63476 -0.897532,0.0448 -1.766499,-0.32103 -2.216797,-1.25391 -0.06118,-2.21149 2.171309,-2.13237 4.30664,-2.15234 -0.0199,0.1431 -0.02791,0.27403 -0.02539,0.39453 0.01186,-0.0172 0.0233,-0.0336 0.03516,-0.0508 0.782823,-1.08441 1.49981,-2.21743 2.320312,-3.27539 0.561067,-0.73515 1.091554,-1.49545 1.59375,-2.27149 0.641841,-0.98088 1.262765,-1.97476 1.9375,-2.93359 0.61651,-0.86265 1.206898,-1.74252 1.833985,-2.59766 0.352137,-0.42182 0.554281,-0.79118 0.86914,-1.25781 0.427462,-0.73162 0.718611,-1.23263 1.181641,-2.05078 0.382938,-0.61222 0.823623,-1.39593 1.289063,-2.14063 0.49786,-0.74984 1.025719,-1.48068 1.474609,-2.26171 0.334361,-0.48347 0.463207,-1.09251 0.658203,-1.63868 1.896405,-5.31167 5.171364,-7.70373 7.978516,-7.67187 0.249679,0.003 0.495357,0.0255 0.736328,0.0664 0.368533,-0.30349 0.731114,-0.63463 1.078125,-1.00781 0.755,-0.812 0.773594,-2.80289 1.433594,-3.58789 1.901999,-2.264 5.236781,-4.24919 7.175781,-5.74219 0.787997,-0.606 1.940087,-0.0918 2.871087,-0.71679 1.032,-0.695 1.1283,-2.314096 2.1543,-2.871096 2.921,-1.587 7.59347,-2.958094 11.48047,-2.871094 6.404,-4.987 18.53639,-4.012328 24.40039,-8.611328 2.329,-0.416 3.33844,0.48975 5.02344,0.71875 1.799,-4.197 6.97147,-1.483891 11.48047,-3.587891 1.19999,1.193 2.90609,1.877688 2.87109,4.304688 -0.009,0.0044 -0.0167,0.0092 -0.0254,0.01367 0.0204,0.143005 0.0332,0.293775 0.0391,0.453125 0.003,0.06402 0.005,0.127567 0.01,0.191407 0.0141,0.150523 0.0549,0.29618 0.0664,0.447265 0.0156,0.18975 0.0412,0.378977 0.0605,0.56836 0.0207,0.306381 0.0207,0.612504 -0.0156,0.917968 v 0.002 c 0.24304,1.001065 0.21014,2.278244 1.30274,2.429687 3.09,-2.413 0.31669,-10.686219 4.30469,-12.199219 3.246,3.733 -2.19755,8.599563 -1.43555,14.351563 -0.0109,0.004 -0.0223,0.0077 -0.0332,0.01172 0.0906,0.0643 0.17774,0.136807 0.25976,0.216796 0.0276,0.02695 0.054,0.05587 0.0781,0.08594 0.34271,-0.11017 0.75443,-0.166208 1.23633,-0.146484 0.21284,0.0088 0.10401,0.0047 0.32617,0.01563 0.30453,0.01869 0.60849,0.04166 0.9082,0.101562 0.0677,0.01161 0.13469,0.02501 0.20117,0.03906 2.32823,-1.399505 4.6789,-2.717609 7.07227,-3.91211 1.692,2.954 -1.693,5.659281 0,8.613281 3.977,-0.527 1.58639,-4.407984 2.15039,-6.458984 1.6,-5.811 5.67248,-10.319312 7.89648,-15.070312 -4.871,-0.565 -3.34073,5.271234 -7.17773,5.740234 -1.429,-0.724 -3.06589,-1.239141 -3.58789,-2.869141 V 76.38299 c -0.963,-2.776 -2.75489,-6.397875 -3.58789,-10.046875 -1.034,-4.53 0.32511,-10.758969 -3.58789,-12.917969 0.967,5.278 4.05234,11.812063 2.15234,15.789063 -2.404,-1.184 -3.20789,-3.967782 -3.58789,-7.175782 -6.576,-8.016 -11.85822,-17.326172 -12.19922,-31.576172 -1.924,-0.706 -1.32,-3.08364 0,-4.30664 1.625,2.576 3.28116,3.83464 5.74024,4.30664 11.36796,2.182 16.43873,-13.480421 26.55273,-11.482421 -0.011,3.576 -3.19436,3.981437 -5.74023,5.023437 -1.262,3.044 -4.37999,4.231031 -6.45899,6.457031 -2.509,8.273 1.32934,16.134844 2.15234,22.964844 0.828,6.864 1.11035,11.285109 2.15235,15.787109 0.684,2.959 -0.55486,7.595532 2.86914,7.894532 0.518,-10.386 -4.71969,-24.881063 -4.30469,-35.164063 2.851,0.048 4.23499,0.90375 6.45899,0.71875 11.592,-0.963 9.459,-13.972859 19.375,-16.505859 2.941,6.995 -7.52813,9.209859 -9.32813,16.505859 -0.765,3.099 0.167,7.239672 0,10.763672 -0.231,4.862 -0.83575,10.861906 -0.71875,16.503906 0.066,3.164 -1.6997,9.406078 2.1543,9.330078 0.491,-7.885 1.25439,-21.704171 2.15039,-31.576171 3.015,3.552 11.24551,2.00889 14.35351,3.58789 -3.414,8.546 -5.73732,18.182531 -8.61132,27.269531 -0.763,2.676 2.69229,1.135891 2.15429,3.587891 -1.595,1.515 -1.53809,4.682984 -2.87109,6.458984 -1.264,-0.634 -1.18617,-3.184546 -2.87109,-1.435546 0.38899,8.043 -3.1089,12.203033 -3.5879,19.376951 4.198,0.849 2.46162,-4.23719 4.30665,-5.74219 2.888,0.46 7.63012,-0.933159 9.32812,0.7168 -0.511,2.851 -3.0722,7.52728 0.7168,8.61328 0.377,-6.733 4.72129,-16.573295 2.15429,-21.529295 -1.232,0.921 -0.0153,4.291641 -2.15429,4.306641 -2.133,-0.737 -5.73503,-0.0063 -6.45703,-2.154297 4.946,-9.508 9.05021,-21.243172 12.19921,-31.576172 1.027,-3.37 1.46244,-8.291875 5.02344,-10.046875 5.092,4.647 9.58141,13.208969 17.93946,12.917969 3.84,-0.135 5.83387,-4.348094 10.04687,-2.871094 -8.825,12.943 -15.84163,27.695063 -30.14062,35.164063 -2.10804,-0.942 2.29945,-5.547188 -1.43555,-5.742188 0.238,6.886 -5.76835,14.541748 -2.15235,20.093748 1.35,-1.759 0.18735,-6.03078 2.15235,-7.17578 3.294,0.186 3.46698,0.763 6.45898,0 0.399,-3.748959 -6.11798,-0.57989 -6.45898,-3.58789 3.026,-0.801 3.50953,-4.14589 7.89453,-3.58789 0.916,4.317 -0.98755,7.38808 -1.43555,9.33008 -2.526,10.927 -4.76052,22.62231 -5.02343,34.44531 -0.137,6.154 2.02354,12.7702 1.43554,18.6582 -0.724,7.256 -9.411,15.9755 0,20.8125 2.799,-5.314 6.18674,-9.42306 7.17774,-15.78906 1.185,-7.617 -1.8465,-16.28298 -1.4375,-25.83398 0.096,-2.241 -1.46971,-7.43958 2.15429,-7.89258 2.727,17.837 5.0268,35.98831 0.7168,53.82031 2.516,2.028 2.49719,6.59453 5.74219,7.89453 8.3,-0.397 5.07039,-8.26522 2.15039,-12.19922 2.157,-6.217 1.82464,-14.9225 4.30664,-20.8125 -3.885,-11.187 -8.05088,-25.91461 -10.04688,-36.59961 5.558,4.489 2.45543,17.63821 11.48243,18.65821 2.784,-3.907 6.67003,-7.05842 6.45703,-11.48242 -0.147,-3.086 -4.35503,-6.72093 -6.45703,-10.04493 -2.54,-4.017 -4.35344,-7.51587 -5.02344,-10.04687 10.65,3.224 10.6852,17.06189 18.6582,22.96289 2.638,-0.472 3.57444,-2.64469 5.02344,-4.30469 -0.762,-2.373 -4.13805,-5.87753 -2.8711,-7.89453 6.324,3.244 12.07497,7.06111 12.91797,15.78711 4.337,3.557 5.48633,10.30031 8.61133,15.07031 6.802,1.81 8.65377,8.57117 13.63477,12.20117 2.585,-1.864 0.32525,-2.47064 -0.71875,-4.30664 -3.317,-5.835 -9.84277,-9.38576 -13.63477,-13.63476 -0.348,-1.632 -1.424,-3.66644 0,-5.02344 3.482,2.976 6.70242,6.21653 11.48242,7.89453 2.478,7.055 11.28752,10.68091 14.35352,16.50391 1.874,3.559 1.01534,7.44887 2.15234,10.04687 3.517,8.042 8.06133,16.82874 8.61133,26.55274 -6.632,0.502 -14.0642,4.13025 -18.6582,-0.71875 -0.417,-2.809 0.6186,-4.16624 1.43554,-5.74024 1.741,1.346 7.02413,6.07335 9.32813,2.15235 -10.091,1.002 -7.17367,-11.00491 -10.76367,-16.50391 -0.393,1.043 0.83725,3.70889 -0.71875,3.58789 -1.181,-2.902 -5.08489,-6.85387 -3.58789,-10.04687 2.366,1.462 2.20823,5.44523 5.74023,5.74023 1.237,-2.55 -4.19375,-3.77878 -0.71875,-7.17578 -7.084,-4.533 -21.33623,2.09056 -25.11523,-5.02344 4.501,-3.086 17.33534,3.88341 21.52734,-1.43359 -5.413,-1.821 -18.71198,-0.5211 -25.83398,-2.8711 -0.271,10.556 9.9155,10.65693 20.8125,10.04493 2.681,8.867 5.87589,17.49382 3.58789,29.42382 5.331,8.905 -2.23389,21.01163 -3.58789,30.14063 2.24475,2.36305 1.11797,6.8707 -0.38282,9.49805 -0.0421,0.20326 -0.0848,0.40709 -0.13281,0.60937 -0.12141,0.57484 -0.34255,1.11944 -0.55664,1.66406 -0.25766,0.64365 -0.56837,1.26521 -0.87891,1.88477 -0.25049,0.57649 -0.53925,1.13408 -0.85742,1.67578 -0.29244,0.52192 -0.60321,1.03195 -0.90429,1.54883 -0.46435,0.74805 -0.942,1.48903 -1.42579,2.22461 -0.39334,0.63575 -0.80291,1.26066 -1.19921,1.89453 -0.46998,0.75496 -1.01076,1.46061 -1.52735,2.18359 -0.58521,0.81279 -1.2328,1.57838 -1.85156,2.36524 -0.44682,0.58022 -0.91116,1.15158 -1.30859,1.76758 -0.28225,0.4513 -0.53368,0.92138 -0.77344,1.39648 -0.0774,0.15332 -0.15267,0.30697 -0.22852,0.46094 v 0.002 l -0.002,0.002 c -0.33814,0.71981 -0.64874,1.45234 -0.96094,2.1836 -0.32905,0.73788 -0.63243,1.48598 -0.93164,2.23633 -0.30438,0.7724 -0.6246,1.53715 -0.97656,2.28906 -0.38613,0.82346 -0.80986,1.62916 -1.21484,2.44336 -0.3475,0.68859 -0.66008,1.39368 -0.97461,2.09765 -0.3009,0.69617 -0.62133,1.38343 -0.96289,2.06055 -0.44816,0.84728 -0.9436,1.66807 -1.41211,2.50391 -0.43015,0.72549 -0.77574,1.49341 -1.12891,2.25781 -0.38973,0.90272 -0.80591,1.79126 -1.27734,2.6543 -0.54958,0.97711 -1.13749,1.93186 -1.71485,2.89257 -0.51263,0.85536 -1.06788,1.6851 -1.60156,2.52735 -0.56266,0.88956 -1.16108,1.75223 -1.80078,2.58789 -0.52482,0.6534 -1.02358,1.32703 -1.52539,1.99805 -0.41657,0.56639 -0.83748,1.12931 -1.23828,1.70703 -0.40091,0.56686 -0.76958,1.15347 -1.13086,1.74609 -0.30369,0.485 -0.6075,0.96975 -0.9043,1.45898 -0.31185,0.53911 -0.69573,1.03008 -1.06836,1.52735 -0.45837,0.58336 -0.9499,1.13903 -1.41015,1.7207 -0.13527,0.17508 -0.27171,0.34917 -0.41016,0.52149 -0.65295,1.13122 -1.64976,2.06955 -2.87305,2.81445 -0.0498,0.0387 -0.0987,0.0766 -0.14844,0.11523 -0.79953,0.57949 -1.65437,1.10178 -2.58007,1.45508 -0.22318,0.0852 -0.45294,0.14941 -0.67969,0.22461 -1.23458,0.35991 -2.51955,0.46648 -3.79688,0.54688 -0.56641,0.0291 -1.13252,0.0489 -1.69921,0.0625 -0.0526,0.0102 -0.10559,0.0194 -0.15821,0.0293 -0.21239,0.0398 -0.42278,0.0908 -0.62695,0.16211 -0.23258,0.0805 -0.46272,0.16771 -0.69336,0.25391 -0.42149,0.16417 -0.86117,0.26978 -1.30273,0.36328 -0.25561,0.055 -0.51428,0.0897 -0.77344,0.11133 -0.32111,0.1916 -0.67068,0.32713 -1.02344,0.44922 -0.43591,0.13282 -0.88549,0.21682 -1.33398,0.29492 -0.3761,0.0721 -0.75558,0.12858 -1.13086,0.20508 -0.33025,0.0622 -0.65523,0.14822 -0.98243,0.22461 -0.27736,0.0774 -0.55468,0.15235 -0.83398,0.22265 -0.45476,0.0998 -0.90876,0.20898 -1.36523,0.30078 -0.50219,0.0899 -1.00543,0.16754 -1.50977,0.24414 -0.2232,0.0292 -0.44598,0.0631 -0.66797,0.0996 -0.42903,0.13224 -0.82729,0.19372 -1.18945,0.19532 -0.42396,0.0545 -0.85067,0.0848 -1.27735,0.10937 -0.51679,0.0266 -1.03342,0.036 -1.55078,0.043 -0.0699,0 -0.14113,3.5e-4 -0.21093,0.002 -0.29126,0.003 -0.56393,-0.0126 -0.81836,-0.0449 -2.13429,0.30809 -4.27589,0.53237 -6.42578,0.42578 -4.28605,-0.213 -10.70977,-3.558 -13.63477,0 3.663,4.231 13.69695,2.09164 19.37695,4.30664 -3.835,3.181 -11.34506,6.25299 -15.78906,6.45899 -0.531,-2.818 1.51466,-8.21349 -2.15234,-7.89649 -0.985,16.422 0.483,31.56624 0,47.36524 -0.098,3.235 -2.61321,6.54112 0.71679,9.32812 3.849,-2.131 -1.68256,-13.64397 5.02344,-12.91797 2.159,6.809 -0.868,14.36505 0,22.24805 -9.284,10.091 -24.50608,14.24488 -28.70508,29.42188 1.341,1.404 2.62864,0.221 4.30664,0 -1.871,3.374 1.68164,4.78218 4.30664,5.74218 0.633,-4.282 4.73555,-8.99497 1.43555,-12.91797 -4.268,-0.92 -2.13319,4.56569 -5.74219,4.30469 2.263,-4.673 4.74008,-9.13347 9.33008,-11.48047 -0.207,5.737 -0.74175,11.05832 -0.71875,15.07032 0.039,6.559 -5.07134,12.60845 -2.15234,17.93945 3.856,-3.299 4.62598,-9.74331 6.45898,-15.07031 3.006,-8.735 6.73542,-16.3771 11.48242,-22.2461 3.531,-4.365 7.65802,-9.53098 12.91602,-6.45898 -3.746,5.583 -8.78877,9.87051 -13.63477,14.35351 1.267,4.376 -2.11234,4.10678 -2.15234,7.17578 2.767,1.059 5.42308,2.2333 9.33008,2.1543 1.036,-1.597 1.80059,-3.46098 1.43359,-6.45898 4.792,-0.949 7.37288,-4.11174 10.04688,-7.17774 3.726,-1.298 7.75642,-2.28989 11.48242,-3.58789 4.143,-8.79 16.3743,-0.74953 21.5293,-7.89453 0.433,-3.304 -3.71763,-2.02464 -4.30665,-4.30664 0.879,-6.171 12.15174,-7.58836 7.17774,-15.06836 1.427,-0.964 3.41448,-1.36834 5.02148,-2.15234 0.465,-2.619 -0.48354,-3.82244 -1.43554,-5.02344 1.466,-0.687 2.84064,-1.46534 4.30664,-2.15234 0.351,-2.264 -1.2928,-2.53444 -0.7168,-5.02344 2.195,0.52 2.10969,-1.23975 4.30469,-0.71875 2.343,-2.627 -3.2818,-3.33524 -0.7168,-5.74024 1.788,0.605 3.84403,0.94075 6.45703,0.71875 0.554,-1.837 0.7173,-4.06843 2.1543,-5.02343 2.264,-0.35 2.53248,1.29279 5.02148,0.71679 2.101,-9.142 16.81675,-5.66876 20.09375,-13.63476 1.594,1.661 2.79744,-0.243 5.02344,0 2.478,-2.785 4.26653,-6.26053 7.89453,-7.89453 0.924,0.988 3.11744,0.71175 5.02344,0.71875 0.425,-3.773 -1.7073,-4.99253 -2.1543,-7.89453 1.489,-2.612 2.49641,-9.26088 -1.43359,-10.04688 0.238,2.87 -1.28075,3.98278 -0.71875,7.17578 -7.143,10.34 -24.7052,9.48272 -38.0332,13.63672 -5.107,1.592 -8.80477,5.33069 -13.63477,4.30469 3.989,-3.263 4.70214,-8.66852 2.86914,-14.35352 2.576,0.422 3.47144,-0.83354 5.02344,-1.43554 0.854,-1.537 0.77334,-4.00944 2.15234,-5.02344 7.768,0.353 7.04367,-7.78547 10.76367,-11.48047 4.049,-1.734 7.05743,2.05334 11.48243,2.15234 7.753,-4.292 2.51134,-19.16833 2.15234,-27.98633 2.634,-4.064 5.90408,-7.49362 9.33008,-10.76562 -0.69,-10.274 5.94964,-14.52564 4.30664,-23.68164 -3.506,-6.544 -10.77895,-13.13917 -19.37695,-12.20117 7.355,4.418 16.89665,6.67906 17.22265,15.78906 0.214,5.969 -6.95844,13.455 -5.02344,19.375 -2.57,3.171 -5.43837,6.04228 -8.60937,8.61328 -0.102,8.419 -0.0525,17.02199 1.43555,25.83399 -0.923,1.23 -1.48585,2.82209 -3.58985,2.87109 -1.747,-4.254 -10.20951,-7.40109 -14.35351,-2.87109 1.897,3.121 0.9244,6.87312 -1.4336,9.32812 -4.36,-0.577 -10.69276,-1.68055 -13.63476,-1.43555 0.153,3.195 0.16814,6.53074 2.86914,7.17774 0.638,-2.619 -1.268,-3.82244 0,-5.02344 1.475,1.874 7.20433,-0.50545 8.61133,1.43555 -5.286,-0.262 -4.51252,5.53378 -7.89454,7.17578 l -0.0879,0.0156 c -0.78,-1.71 -3.51906,-1.71213 -4.28906,0.0391 1.356,0.161 1.58214,-0.8088 2.86914,-0.7168 -0.183,2.448 -1.53564,3.72689 -4.30664,3.58789 -0.687,-1.337 2.149,-2.39809 0,-2.87109 -4.123,3.464 2.3791,3.45098 2.8711,6.45898 -0.496,3.994 -1.26224,10.16363 -5.74024,10.76563 -3.451,0.463 -5.21433,-4.23924 -8.61133,-5.74024 -8.11,-3.584 -25.48228,-0.62173 -27.98828,-7.17773 13.758,-3.465 30.53197,-3.913 32.29297,-19.375 3.994,-4.14 7.37028,-8.89711 8.61328,-15.78711 2.596,-2.189 3.54503,-6.02349 6.45703,-7.89649 0.352,-3.476 0.72585,-6.92958 3.58985,-7.89258 4.31,0.475 4.47258,5.09499 7.89257,6.45899 1.558,-2.748 4.21008,-4.40284 9.33008,-3.58984 1.268,-3.459 6.58964,-5.25988 4.30664,-10.04688 -6.812,0.296 -14.34129,6.95334 -21.52929,2.15234 4.067,-7.347 13.34687,-12.73018 10.04687,-25.11718 4.086,-2.373 2.79144,-10.12557 5.02344,-14.35157 9.203,-1.492 18.09109,3.39613 22.24609,9.32813 1.594,-2.478 -2.05925,-4.19003 0.71875,-6.45703 -1.084,-4.146 -8.63798,-3.29733 -6.45898,-8.61133 4.01,4.849 11.25245,2.19534 17.93945,2.15234 -4.552,19.612 -3.66844,44.81178 -5.02344,68.17578 -0.374,6.464 -2.869,13.10132 0,15.07032 4.435,-8.494 2.8551,-18.90583 2.8711,-29.42383 0.028,-19.308 4.59444,-39.41161 5.02344,-55.97461 -1.579,-1.052 -5.34919,0.0837 -5.74219,-2.1543 0.987,-3.123 -0.217,-3.99958 0,-7.89258 -1.364,-2.872 -4.92524,0.71771 -5.74024,-2.15429 1.865,0.429 2.58235,-0.28735 2.15235,-2.15235 -2.382,-1.626 -6.02253,1.336 -7.89453,0 -2.582,-6.494 -2.64144,-13.757 -5.02344,-19.375 -0.7,-1.653 -2.31114,-2.58864 -2.86914,-4.30664 -2.04,-6.286 -1.09489,-9.13822 -3.58789,-12.19922 -1.401,-1.721 -4.13699,-2.01064 -6.45899,-4.30664 -0.627,-0.62 -0.99034,-3.41168 -2.15234,-4.30468 -0.824,-0.635 -1.50634,0.0802 -2.15234,-0.71875 -1.306,-1.612 -1.94088,-4.22124 -3.5879,-5.74024 -2.27099,-2.094 -6.29828,-2.45964 -8.61328,-4.30664 -3.48,-2.779 -4.74337,-6.84133 -8.60937,-8.61133 -2.817,-10.34 -11.9055,-14.4082 -20.8125,-18.6582 1.733,-1.944 -2.22155,-2.55219 -1.43555,-5.74219 6.576,0.118 12.93051,0.0164 17.93945,-1.43359 0.69501,-6.435041 -2.67923,-8.801423 -5.74023,-11.482423 -10.831,0.175 -22.34242,3.486891 -30.85742,3.587891 8.201,-5.145 20.25808,-10.706859 28.70508,-16.505859 5.261,-3.612 13.76986,-10.69011 16.50586,-15.78711 5.2,-9.684 -5.23908,-15.99364 -9.33008,-23.68164 -2.511,-4.72 -4.50753,-10.624969 -7.89453,-12.917969 -4.148,-2.809 -10.88911,-2.969438 -15.78711,-5.023438 0.777,-3.768 2.32989,-6.760875 3.58789,-10.046875 C 245.73669,6.0802893 235.39075,0.23293614 226.0773,0.06288731 Z m -1.6875,3.80859379 c 6.99422,-0.2515313 13.80437,2.8080036 17.45312,6.4785159 -3.242,6.185 -20.114,1.769468 -19.375,11.480468 0.259,3.421 2.74444,3.131188 5.02344,5.742188 14.94,-1.318 28.05411,-0.262469 35.16211,7.894531 -2.314,5.807 10.22287,13.577547 10.04687,20.810547 -0.101,4.167 -4.47767,9.744781 -10.76367,7.175781 -3.429,-5.078 -1.21034,-10.747656 -2.15234,-17.222656 -0.842,-5.784 -4.82908,-12.299016 -9.33008,-12.916016 -4.723,-0.647 -11.28847,3.387329 -11.48047,8.611329 -0.259,7.031 7.29138,5.451218 8.60938,12.199218 -6.164,1.568 -12.37666,3.29275 -17.22266,0.71875 -1.056,-0.561 -8.36733,-8.887625 -8.61133,-10.765625 -0.582,-4.472 4.71164,-7.315672 4.30664,-10.763672 -0.723,-6.14 -16.55061,-11.441796 -17.22461,-0.716796 -0.171,2.736 3.2281,5.075578 2.8711,7.892578 -1.029,8.103 -11.81831,6.9515 -15.07031,1.4375 -0.392,-4.696 7.54532,-4.958078 8.61132,-9.330078 1.202,-4.926 -1.00848,-7.303875 -5.02148,-10.046875 -10.352,2.163 -9.72359,18.879312 -23.68359,15.070312 -3.03,-10.372 9.97996,-10.470656 12.91796,-17.222656 -4.717,-16.6810082 -22.33317,8.713031 -31.57617,6.457031 -3.115,-0.76 -1.55348,-3.369891 -5.02148,-3.587891 -0.38,1.104 -0.74975,0.0462 -0.71875,-0.716796 7.511,-10.076 26.44429,-16.7138126 40.90429,-10.048829 6.514,3.003 8.97786,11.632829 16.50586,10.048829 h 0.0156 c 7.05,-1.484 4.8289,-10.55761 7.87891,-17.2246098 2.26175,-0.9195 4.6139,-1.3712344 6.94531,-1.4550781 z m 19.60351,12.2207029 c -0.226,3.122 -2.15809,4.539781 -2.87109,7.175781 h -14.34961 c 0.61,-7.519 10.8907,-5.375781 17.2207,-7.175781 z m -27.87304,12.708985 c 2.12827,-0.03315 4.53765,1.654046 5.6289,3.794921 -6.454,14.835 -9.98665,32.592485 -17.22265,46.646485 0.59,-4.865 2.81848,-11.347203 5.02148,-18.658203 1.885,-6.254 5.35944,-13.261953 5.02344,-19.376953 -0.163,-2.977 -2.72335,-5.859375 -2.15235,-8.609375 0.56,-2.70375 2.04585,-3.77109 3.70118,-3.796875 z m 34.0957,8.738281 c 0.535,0.0046 1.09453,0.03195 1.67578,0.08008 5.683,7.473 0.87608,25.437625 9.33008,30.140625 3.475,0.213 2.93078,0.72775 7.17578,0.71875 -0.555,3.322 -4.11498,4.653031 -6.45898,6.457031 -5.511,4.241 -12.27141,8.372766 -17.94141,13.634766 -5.631,1.784 -9.39156,5.438531 -14.35156,7.894531 1.029,-3.205 -0.399,-5.016125 0,-9.328125 5.491,-4.206 9.55436,-9.159609 15.06836,-17.224609 3.584,-5.241 7.78273,-12.464907 7.17773,-16.503907 -0.546,-3.641 -9.73033,-7.458171 -8.61133,-12.201171 h 0.0117 c 0.62125,-2.63375 3.17883,-3.700413 6.92383,-3.667969 z M 96.559859,48.347834 c 1.852548,-0.059 1.89,1.698437 1.757813,3.625 -2.209,0.502 -1.378891,0.502 -3.587891,0 -0.537,-2.211 2.474547,-0.874891 1.435547,-3.587891 0.140125,-0.02056 0.271028,-0.03318 0.394531,-0.03711 z m 7.500001,0.03711 c 1.483,0.431 2.71734,1.108891 2.15234,3.587891 h -0.002 c -2.9,0.804 -3.55039,-2.203891 -2.15039,-3.587891 z m 14.17969,0.708984 c 1.18456,0.07174 1.72117,0.790782 1.60742,2.160157 h -2.1543 V 49.10174 c 0.19575,-0.01625 0.37765,-0.01846 0.54688,-0.0078 z m -36.359378,0.291016 c 1.007385,-0.02954 1.780156,0.844687 1.367187,3.304687 -1.769,0.095 -3.456687,0.109204 -4.304687,-0.716796 0.354344,-1.36 1.795797,-2.554409 2.9375,-2.587891 z m 29.503908,5.396484 c 1.7892,0.09401 1.95337,1.811141 1.99805,3.650391 -2.65001,0.501 -3.15915,-1.135891 -2.86915,-3.587891 0.32625,-0.05725 0.6155,-0.07593 0.8711,-0.0625 z m -15.935549,0.0625 h 2.152344 c 1.331,1.416 1.067656,5.282688 -2.152344,4.304688 -0.805,-2.26 -0.065,-1.623688 0,-4.304688 z m 30.681639,0.552735 c 1.55916,-0.08294 1.23345,3.856481 0.17578,3.751953 h -0.002 -0.002 c -2.57664,0.683874 -1.26662,-3.09705 -0.7168,-3.587891 0.20307,-0.103739 0.38353,-0.155477 0.54492,-0.164062 z m -8.43164,0.164062 c 0.63869,0.440784 1.28079,0.86538 1.4336,0.002 h -0.002 v -0.002 h 0.002 v 0.002 c 2.92923,0.784131 -2.56299,3.000299 -1.4336,-0.002 z m 15.78516,0 h 1.43554 v 1.435547 h -1.43554 z m -45.107424,0.01758 c 1.135214,0.02745 2.39125,1.251016 2.046875,2.853516 -2.287,0.613 -2.723891,-0.625547 -3.587891,-1.435547 0.222375,-1.020375 0.859887,-1.434439 1.541016,-1.417969 z m -12.859375,0.628907 c 1.949609,-0.06526 3.147359,0.619156 2.708984,2.941406 -2.047,0.902 -4.110844,0.562906 -3.589844,-2.871094 0.306625,-0.03737 0.602344,-0.06099 0.88086,-0.07031 z m 57.648439,6.49414 c 1.85255,-0.059 1.89,1.698438 1.75781,3.625 h -0.004 c -2.91,0.804 -3.54843,-2.20389 -2.14843,-3.58789 0.14012,-0.02056 0.27102,-0.03318 0.39453,-0.03711 z m 21.22265,0.695313 c 0.0604,-0.003 0.12346,-0.0026 0.1875,0 0.13664,0.0056 0.28047,0.02484 0.4336,0.05859 0.304,1.5 -0.4908,1.900094 -0.7168,2.871094 h -0.002 c -1.88906,-0.118066 -1.7728,-2.83633 0.0976,-2.929687 z m -49.79882,0.701172 c 2.45273,-0.0078 2.27773,5.122421 -0.52539,4.380859 -1.41,-1.341 -0.22,-2.628641 0,-4.306641 0.18687,-0.04944 0.36187,-0.0737 0.52539,-0.07422 z m -8.423832,0.07422 c 2.413,-0.172 3.707344,2.666641 2.152344,4.306641 -3.485,0.339 -4.075344,-2.998641 -2.152344,-4.306641 z m 15.074222,0 c 0.577,0.379 1.16629,0.74975 2.15429,0.71875 0.333,2.247 -0.62409,3.204094 -2.87109,2.871094 h -0.002 c -0.23,-1.664 0.10875,-2.757844 0.71875,-3.589844 z m 7.16992,0 h 2.1543 v 3.589844 h -0.004 c -2.9,0.804 -3.55039,-2.205844 -2.15039,-3.589844 z m -48.525392,0.53711 c 1.931604,-0.04755 1.44636,2.322984 2.59961,3.052734 -0.725003,2.021 -3.048641,-0.198 -4.306641,0 0.557,-0.639 0.77175,-1.621094 0.71875,-2.871094 0.386375,-0.11725 0.712338,-0.174847 0.988281,-0.18164 z m 7.621094,0.18164 c 0.603,0.833 0.94775,1.923891 0.71875,3.587891 -2.339,0.187 -3.452891,-0.852094 -3.587891,-2.871094 0.639,-0.558 1.620141,-0.771797 2.869141,-0.716797 z M 63.852828,65.47674 c 0.209547,0.0079 0.451141,0.04747 0.736328,0.130859 v 2.871094 c -2.055,0.141 -3.91689,0.08966 -3.58789,-2.152344 1.404812,0.238063 1.55702,-0.777013 2.652343,-0.847656 0.06319,-0.0041 0.12937,-0.0046 0.199219,-0.002 z m 69.630862,5.154297 c 3.4,1.095 -1.22,6.213 0,0 z m -21.79492,0.673828 c 2.07488,-0.05644 1.73226,2.303984 1.70507,4.349609 h -2.87109 -0.002 c -1.19,-1.116 0.23875,-2.795687 0.71875,-4.304687 0.16062,-0.02606 0.31089,-0.04116 0.44922,-0.04492 z m -14.806645,0.04492 c 2.22,-0.067 2.140297,2.165687 2.154297,4.304687 h -3.587891 c 0.011,-1.903 -0.400406,-4.224687 1.433594,-4.304687 z m 71.048825,0 h 2.15235 c 0.879,3.915 0.1529,6.314578 -2.8711,7.892578 h -0.002 c 0.23,-2.637 -0.6093,-6.351578 0.7207,-7.892578 z m -91.857419,0.716797 c 1.262,0.173 1.634594,1.235093 1.433594,2.871093 h -2.152344 c -0.304,-1.5 0.49275,-1.900093 0.71875,-2.871093 z m 27.988279,0 h 2.15235 v 3.58789 h -0.004 c -2.9,0.804 -3.54844,-2.20389 -2.14844,-3.58789 z m 15.42578,0.02734 c 0.6625,0 1.32493,0.228953 1.79493,0.689453 0.329,2.242 -1.53291,2.295297 -3.58789,2.154297 V 72.78338 c 0.46993,-0.459812 1.13096,-0.689453 1.79296,-0.689453 z M 63.124313,72.25213 c 1.043808,-0.0013 1.739296,0.640547 1.466796,2.685547 -2.055,0.141 -3.91689,0.0877 -3.58789,-2.154297 0.74325,-0.298875 1.494808,-0.530447 2.121094,-0.53125 z m 63.689457,6.144532 c 0.27517,0.0015 0.58468,0.04144 0.92968,0.128906 v 2.871094 c -3.02687,0.581812 -3.58972,-3.014892 -0.92968,-3 z m 26.04687,0.128906 h 2.1543 v 3.587891 h -0.004 c -2.24,0.329 -2.30039,-1.532891 -2.15039,-3.587891 z m 8.60742,0 c 0.5778,0.137724 0.71715,0.718797 1.43555,0.716797 h 0.006 c -0.38,1.69052 -3.38821,0.437923 -1.44141,-0.716797 z m -56.46093,0.662109 c 0.15093,0.0019 0.31382,0.01938 0.48632,0.05469 -0.065,1.958 1.195,1.445094 0,2.871094 -2.5875,0.530625 -2.75039,-2.953727 -0.48632,-2.925782 z M 62.436813,79.47674 c 0.551249,0 1.101843,0.159922 2.152343,0.482422 v 2.871093 c -1.681,1.47 -5.297687,0.525907 -4.304687,-2.871093 1.0505,-0.3225 1.601094,-0.482422 2.152344,-0.482422 z m 18.660156,0.482422 c 0.779,0.178 0.485594,1.4285 1.433594,1.4375 0.131997,0.61 -0.278797,0.675797 -0.716797,0.716797 h -1.435547 c -0.203,-1.158 0.67875,-1.236297 0.71875,-2.154297 z m -11.060547,1.34375 c 0.820173,0.03542 1.877421,0.308122 2.447266,0.09375 -0.072,1.826 -2.672891,1.694797 -3.587891,0.716797 -0.04538,-0.5835 0.300607,-0.776379 0.806641,-0.808594 0.105423,-0.0067 0.216816,-0.007 0.333984,-0.002 z m 101.205078,2.36914 c 2.57766,0.171282 4.91242,2.429891 5.29492,4.900391 -2.236,0.739 -7.37758,-1.015641 -7.89258,-4.306641 h 0.004 c 0.85,-0.476 1.73453,-0.650843 2.59375,-0.59375 z m -52.83203,1.3125 c 2.019,0.134 3.05809,1.248891 2.87109,3.587891 h -3.58789 -0.002 c -0.23,-1.664 0.11875,-2.754891 0.71875,-3.587891 z m -14.16992,1.34375 c 1.87263,0.01105 2.2332,1.53136 1.9707,3.677735 h -3.58789 -0.002 c -0.23,-1.664 0.1207,-2.754891 0.7207,-3.587891 0.33175,-0.06262 0.63092,-0.09142 0.89844,-0.08984 z m 7,0.08984 c 2.481,0.216 2.8902,4.591891 -0.7168,3.587891 h -0.002 c -0.23,-1.664 0.10875,-2.754891 0.71875,-3.587891 z m -14.392581,0.671875 c 3.14031,0.08654 2.39,4.739141 -1.398438,3.634766 -0.593,-2.028 1.009797,-1.858891 0.716797,-3.587891 0.244188,-0.03787 0.472287,-0.05264 0.681641,-0.04687 z m -34.410156,0.04687 c 1.257999,0.655 2.492343,1.333891 2.152343,3.587891 -2.904,0.804 -3.548346,-2.203891 -2.152343,-3.587891 z m 26.335937,0.699219 c 2.205762,0.07291 0.02461,2.433594 0.216797,3.605469 -1.556,0.121 -0.324797,-2.544891 -0.716797,-3.587891 0.188063,-0.0165 0.352949,-0.02244 0.5,-0.01758 z m 80.5293,1.388672 c 0.24066,0.0013 0.5,0.02283 0.78125,0.06445 0.33289,2.246304 -0.62364,3.203192 -2.86914,2.871094 -0.28875,-1.96525 0.40324,-2.944557 2.08789,-2.935547 z m 57.47265,0.783203 c 2.572,0.44 1.19475,4.829984 0.71875,6.458984 -3.59744,0.386512 -2.19847,-5.659134 -0.71875,-6.458984 z m -25.70507,3.835937 c 2.324,0.04223 5.62125,1.526422 8.48437,1.185547 0.4,5.995995 -7.77047,2.879094 -11.48047,2.871094 -0.0306,-3.250188 1.18848,-4.089489 2.9961,-4.056641 z M 88.718063,94.267755 c 2.074881,-0.05644 1.732265,2.305938 1.705078,4.351563 -3.555,0.642 -2.953344,-2.360641 -2.152344,-4.306641 0.160625,-0.02606 0.30894,-0.04116 0.447266,-0.04492 z m -12.646485,0.04492 c 0.577,0.38 1.164344,0.747797 2.152344,0.716797 0.193,2.586 0.178906,4.964641 -2.871094,4.306641 -0.447,-2.778 -0.59325,-2.954438 0.71875,-5.023438 z m 20.810547,0.002 c 2.018,-0.104 2.069344,1.756891 2.152344,3.587891 -1.515,1.265 -2.119688,1.616797 -4.304688,0.716797 1.232,-0.92 0.01434,-4.290688 2.152344,-4.304688 z m -34.363281,1.398438 c 0.279284,-1.3e-4 0.716969,0.201781 1.351562,0.753906 -1.322656,1.803125 -2.349005,-0.753442 -1.351562,-0.753906 z m 193.640626,1.025391 c 2.73765,-0.03477 5.41273,0.09722 7.92773,0.449218 -1.011,3.575998 -4.47078,1.757344 -7.17578,2.152344 -2.94,0.429 -6.71087,1.028544 -10.04687,1.435544 -5.431,0.662 -9.28652,2.0942 -14.35352,-0.7168 l -0.004,-0.002 c 6.66748,-1.614822 15.43937,-3.21406 23.65234,-3.318356 z m -27.88281,1.853515 c 0.20936,-0.0089 0.42734,6.91e-4 0.65234,0.02734 0.766,1.656001 -0.88489,5.993981 -3.58789,6.458981 h -0.002 c -1.54688,-2.38125 -0.20295,-6.352823 2.9375,-6.486325 z m 29.95703,3.164071 c 1.1983,-0.0326 2.38492,-0.0165 3.48828,0.0391 1.47114,0.0741 2.79537,0.21832 3.80469,0.40819 -4.86321,1.42177 -10.55601,2.42374 -16.50196,1.43556 1.90992,-1.24619 5.61409,-1.78495 9.20899,-1.88282 z m -23.3125,1.19921 c 3.82752,0.0118 8.31828,2.03118 12.66015,2.8418 l 0.002,-0.002 c 2.68,6.93 8.52136,14.3793 8.61132,21.5293 -6.17599,-4.349 -7.81896,-13.23121 -12.91796,-18.65821 -3.432,-0.395 -5.29556,-2.35889 -7.89453,-3.58789 -5.13204,4.775 9.40712,16.31786 9.32812,22.96484 -0.03,2.55502 -1.85648,5.51877 -5.02148,7.17579 -2.97,0.33898 -1.9071,-3.35644 -2.8711,-5.02344 -2.698,-5.729 -9.34778,-14.1658 -7.17578,-20.0918 4.873,5.891 6.35567,15.17136 10.76367,21.52734 1.419,-4.935 -2.1607,-9.40877 -4.30468,-13.63477 -2.119,-4.178 -4.11274,-9.06922 -7.17774,-12.19922 1.64363,-2.13337 3.70154,-2.84887 5.99805,-2.84179 z m -11.01758,6.43164 c 2.421,1.347 -0.4278,4.48977 -0.7168,7.17579 -0.727,6.751 -0.0845,16.06603 -1.43554,22.24803 -3.69627,-6.99959 0.0335,-18.47705 0,-26.54882 l -0.002,0.002 h -0.002 l 0.004,-0.006 c 0,0.002 -1e-5,0.002 0,0.004 1.0484,-0.62779 2.26209,-1.07899 2.15234,-2.875 z m -145.292969,4.26758 c 0.803714,0.0337 0.96325,0.71305 1.765625,0.74805 -0.236,1.678 -0.862547,2.96369 -1.435547,4.30469 v 0.006 c -2.085,-0.01 -1.694797,-4.04929 -0.716797,-5.02931 0.144875,-0.0252 0.271902,-0.0341 0.386719,-0.0293 z m -10.433594,10.08593 v 2.8711 c -1.3725,-0.30189 -3.087606,-0.26143 -2.871094,-2.15235 0.639,-0.56 1.621094,-0.77875 2.871094,-0.71875 z m 160.033203,1.43165 c 0.6378,0.31759 1.28455,0.63173 1.43555,1.43555 -0.722,10.505 6.82078,19.23882 7.17578,29.42382 0.207,5.935 -4.12889,15.10709 -3.58789,22.24609 0.253,3.34201 3.50434,4.76634 2.15234,8.61134 -2.012,0.87898 -4.70544,-4.14726 -5.02344,-5.74024 -1.493,-7.463 3.1633,-17.60548 2.1543,-27.27148 l 0.004,-0.004 c -1.19,-11.4076 -5.20855,-19.53317 -4.31055,-28.70117 z m -162.314453,4.98046 c 1.261078,-0.005 2.369859,0.14224 3.005859,0.76172 -0.448,3.03202 -1.59564,2.63731 -4.30664,2.15431 v -0.002 -2.86913 c 0.44225,-0.0235 0.880422,-0.0433 1.300781,-0.0449 z m -5.517578,0.004 c 0.19834,-4e-5 0.407531,0.0134 0.628906,0.0391 1.647,2.006 0.394906,5.70844 -2.871094,5.02344 v -0.004 c -1.150312,-2.27812 -0.732921,-5.05793 2.242188,-5.05859 z m -1.523438,9.36328 h 2.152344 c 0.299,2.453 -0.217094,4.08889 -2.871094,3.58789 -1.330953,-1.26939 0.312864,-2.08831 0.71875,-3.58789 z m -5.220703,0.70898 c 0.563684,0.0104 1.10625,0.19727 1.632813,0.72852 0.303,3.84201 -5.614188,3.281 -5.742188,0 1.522813,0.0825 2.86927,-0.75134 4.109375,-0.72852 z m 167.072262,2.13672 c 0.80354,0.0337 0.96238,0.71109 1.76563,0.7461 1.32,11.94201 3.66536,23.01782 -4.30664,29.42383 -2.754,-4.355 2.15314,-8.17497 2.86914,-12.91797 l -0.006,-0.004 c 0.87,-5.77 -1.81094,-11.53875 -0.71094,-17.21875 0.14488,-0.0252 0.27388,-0.0341 0.38867,-0.0293 z m -161.101559,5.00391 c 0.201272,-0.007 0.427279,0.006 0.681641,0.0449 -0.802712,1.03363 -0.772621,1.7532 0.716797,2.1543 5.35e-4,-8.5e-4 0.0014,-0.003 0.002,-0.004 v 0.004 h -0.002 c -1.690468,2.70383 -4.417516,-2.09906 -1.398438,-2.19922 z m -14.939453,0.67383 c 1.539228,0.009 2.849891,0.63415 2.705078,2.24414 -1.086,0.875 -6.180781,1.409 -7.175781,0 0.134437,-1.24875 2.491696,-2.25589 4.470703,-2.24414 z m 8.779297,7.85937 c 0.571787,0.001 1.032559,0.2157 1.101563,0.8457 1.097999,2.20599 -4.685891,2.20599 -3.587891,0 0.271875,-0.25625 1.533349,-0.84774 2.486328,-0.8457 z m -15.404297,0.12695 c 0.981,0.918 0.981,3.38965 0,4.30664 -2.028,0.593 -1.85889,-1.01175 -3.58789,-0.71875 -0.434705,-2.82812 1.606366,-3.17798 3.58789,-3.58789 z m 6.947266,0.21486 c 0.843935,-0.006 1.435312,0.4289 2.382812,1.22264 -0.031,2.158 -5.09564,2.08324 -4.30664,-0.71875 v -0.002 c 0.819375,-0.3375 1.417466,-0.49862 1.923828,-0.50195 z m -7.666016,6.95703 c 1.23,0.923 2.822094,1.48389 2.871094,3.58788 -0.962,1.28 -4.153234,2.22076 -5.740234,0.71875 -0.123972,-2.51564 2.423387,-2.35772 2.86914,-4.30663 z m 7.947266,0.69726 c 1.360483,-0.0182 2.576328,0.83125 2.099609,2.89844 h -5.021484 c -0.345844,-1.74251 1.379993,-2.87779 2.921875,-2.89844 z m -15.121094,1.46289 c 1.681,1.60901 0.305,6.38387 0,10.04688 h -2.871094 c -1.638262,-3.34978 1.188371,-7.70726 2.871094,-10.04688 z m 14.794922,6.64258 c 0.638661,0.0229 1.236074,0.18903 1.710937,0.53125 0.624,2.77699 -1.754296,2.55364 -2.154296,4.30663 -1.832946,-0.3198 -3.296785,-1.00752 -4.302735,-2.15234 -5.8e-4,0.002 -0.0014,0.004 -0.002,0.006 v -0.008 l 0.002,0.002 c 0.535141,-1.54302 2.830109,-2.75416 4.746094,-2.68554 z m -6.619141,0.49805 c 0.138179,0.004 0.282032,0.0157 0.433594,0.0332 v 2.8711 c -2.195,0.52 -2.109687,-1.23975 -4.304687,-0.71875 v -0.002 c 1.16625,-0.85312 1.798416,-2.24398 3.871093,-2.1836 z m -9.404297,7.57031 c 0.905378,1.7e-4 1.900289,0.42307 2.66211,1.07032 0.344,2.258 -1.022547,2.80468 -1.435547,4.30468 -1.990837,-0.16098 -2.030268,-2.27394 -3.587891,-2.86914 0.180552,-1.80895 1.197271,-2.50607 2.361328,-2.50586 z m -6.154297,1.81446 c 0.302768,-0.0142 0.634204,0.17468 0.923829,0.69531 v 1.43555 0.006 c -2.733594,0.5625 -2.005142,-2.08619 -0.923829,-2.13671 z m -0.554687,5.42773 c 1.500939,-0.0506 2.830562,1.17688 2.195312,4.59375 -0.956999,1.024 -4.065437,1.024 -5.023437,0 -1.315125,-2.35125 0.898346,-4.52873 2.828125,-4.59375 z m 6.298828,1.66016 c 1.094707,-0.0477 1.506719,0.58545 2.355469,0.78319 v 0.002 c -0.129,2.08 -3.412094,1.72929 -2.871094,-0.7207 0.1875,-0.0379 0.359238,-0.0576 0.515625,-0.0644 z m -6.974609,7.24609 c 2.018,-0.10401 2.071297,1.75689 2.154297,3.58788 v 0.002 c -3.306,0.19 -4.156297,-2.08985 -2.154297,-3.58985 z m -6.054688,0.58008 c 0.308506,0.01 0.65025,0.0542 1.03125,0.13672 v 2.87109 c -0.918,0.981 -3.387687,0.981 -4.304687,0 v -0.002 c 0.606375,-1.4875 1.113896,-3.07449 3.273437,-3.00586 z m 305.693359,3.21484 c 1.31031,-0.0192 2.61742,0.11836 3.91992,0.50586 0.489,2.623 1.00275,5.21928 0.71875,8.61328 -7.179,0.449 -14.14786,-0.97873 -16.50586,-7.17773 l 0.008,-0.006 c 3.9675,-0.405 7.92843,-1.87789 11.85937,-1.93555 z m -22.29687,1.96094 c 0.69307,0.0104 1.41585,0.27633 1.81835,0.70508 0.12,1.555 -2.54489,0.32379 -3.58789,0.71679 l -0.002,0.002 c 0.0394,-1.02938 0.88038,-1.43721 1.77149,-1.42383 z m -275.910161,2.13281 c 0.602,0.833 0.94775,1.92389 0.71875,3.58789 -1.729,0.294 -1.55989,-1.30979 -3.58789,-0.71679 v -2.15039 c 0.638,-0.56 1.61814,-0.77071 2.86914,-0.72071 z m 277.607421,0.68946 c 2.94962,0.099 6.44359,1.38218 8.01172,2.17968 v 0.002 c -0.1,-0.12 -10.66117,1.99929 -12.20117,-0.72071 0.84525,-1.15425 2.41968,-1.52031 4.18945,-1.46093 z m -286.218749,0.0312 h 2.152344 c 0.141,2.055 0.08966,3.91689 -2.152344,3.58789 -0.919969,-0.94023 -0.920656,-2.64825 0,-3.58789 z m 290.656249,4.16406 c 1.89041,-0.0644 4.17217,0.90734 5.01367,1.57422 l 0.004,0.002 c -1.43,1.61 -4.99969,-0.7007 -7.17969,-0.7207 0.52531,-0.58282 1.30283,-0.82619 2.16211,-0.85547 z M 24.96025,211.7619 c 0.258595,0.002 0.549859,0.0773 0.876953,0.24609 -0.211,1.463 -1.941344,1.40614 -2.152344,2.86914 -0.67425,3.71563 -1.224359,-3.13711 1.275391,-3.11523 z m 273.62305,0.17382 c 1.39609,-0.0744 1.36523,2.31446 -1.47852,0.78321 0.58406,-0.54688 1.08761,-0.76237 1.47852,-0.78321 z m 9.28125,0.78125 c 3.446,1.338 7.86232,1.70524 8.61132,5.74024 h -0.002 c -2.3,-2.48 -7.52937,-2.03024 -8.60937,-5.74024 z m -293.037112,1.23047 c 3.44454,-0.092 3.046078,5.11666 -1.19336,3.80078 v -3.58789 c 0.438563,-0.13603 0.837021,-0.20337 1.19336,-0.21289 z m -9.804688,0.92969 h 3.5878906 c 0.501,2.655 -1.1348906,3.17109 -3.5878906,2.87109 v -0.002 z m 9.724609,7.13672 c 1.852654,-0.059 1.890938,1.69844 1.757813,3.625 v 0.002 c -1.621,-0.48 -3.594344,-2.15984 -2.152344,-3.58984 0.140125,-0.0206 0.271021,-0.0332 0.394531,-0.0371 z m -8.4257809,0.67578 c 1.392326,0.008 2.66875,0.59188 2.2890625,2.23438 -1.137,1.052 -5.6984375,1.48145 -5.0234375,-1.43555 v -0.004 c 0.497875,-0.45937 1.6514549,-0.8015 2.734375,-0.79492 z m -0.1523437,7.18164 c 1.0478906,0.0285 1.8186093,0.33486 2.4433594,0.78711 v 0.002 c 0.1739999,3.48 -4.5078907,3.5893 -3.5878907,-0.7207 0.416,-0.057 0.7952344,-0.0779 1.1445313,-0.0684 z m 45.4374996,22.19336 c -0.05157,0.003 -0.102597,0.005 -0.154296,0.008 0.07319,0.0426 0.146535,0.0846 0.220703,0.125 l 0.002,0.002 h 0.002 c -0.02336,-0.0436 -0.04621,-0.0879 -0.07031,-0.13477 z m 249.794926,1.5625 c -0.343,3.246 -3.64524,6.54823 -5.74024,5.74023 0.56,-3.28 2.10024,-5.56023 5.74024,-5.74023 z m -17.58985,3.38672 c 2.596,-0.096 6.09297,0.71172 8.26172,0.19922 -3.092,2.276 -6.64442,0.37054 -11.48242,1.43554 l 0.002,-0.006 c 0.4275,-1.18875 1.66115,-1.57131 3.21875,-1.62891 z m 3.39844,3.0293 c 0.10783,-0.004 0.22026,-0.004 0.33594,0 0.55588,0.0176 1.18,0.10121 1.65625,0.0391 -0.173,1.263 -1.2341,1.63555 -2.8711,1.43555 -0.39098,-1.17761 0.12413,-1.44562 0.87891,-1.47461 z m -199.003906,4.20312 c -0.01324,0.0224 -0.0274,0.0436 -0.04102,0.0664 0.250514,0.0122 0.502845,0.0237 0.75586,0.0332 -0.238275,-0.0339 -0.476408,-0.0667 -0.714844,-0.0996 z m -35.820313,8.04102 c 10.784,1.607 15.700938,-0.97891 25.835938,2.87109 -1.775,1.651 -5.770078,2.05714 -9.330078,2.86914 -7.628,1.74 -15.18786,4.19977 -16.50586,-5.74023 z m -2.103515,7.14843 c 1.1455,0.0322 2.082875,1.41063 3.539062,1.46094 -0.922,1.229 -1.483896,2.82014 -3.58789,2.86914 -0.308,-1.366 -1.546547,-1.80289 -1.435547,-3.58789 v -0.002 c 0.555468,-0.55969 1.036135,-0.75285 1.484375,-0.74024 z m -23.730469,2.89063 c 2.102,0.051 4.045891,0.26109 3.58789,2.87109 -2.452998,0.3 -4.08989,-0.21109 -3.58789,-2.87109 z m 17.941406,0 c 0.37,1.826 1.222453,2.78309 -1.435547,2.87109 v -0.002 c 0.062,-1.01 0.11625,-2.03039 -0.71875,-2.15039 0.116,-0.841 1.309297,-0.60675 2.154297,-0.71875 z m 246.550777,4.45508 c 0.66193,-0.0141 1.52157,0.45437 2.46094,0.57812 0.121,1.557 -2.54489,0.32575 -3.58789,0.71875 l -0.002,0.002 c 0.21875,-0.98438 0.61407,-1.28788 1.1289,-1.29883 z m -246.984371,9.83398 c 0.349474,-0.0103 0.73,0.009 1.146485,0.0645 0.593,2.028 -1.01275,1.86085 -0.71875,3.58985 -1.826356,-0.088 -2.782513,-1.0444 -2.871094,-2.86914 0.624741,-0.44997 1.394939,-0.75423 2.443359,-0.78516 z m 49.121094,3.58008 c 1.277797,-0.008 2.534563,0.0363 3.695313,0.082 l -0.002,-0.002 c 6.849994,0.26 13.850154,2.39984 18.660154,3.58984 -1.249,4.407 -0.65235,6.26688 -2.15234,10.04688 -1.76203,-0.87 -1.91965,-3.34289 -4.30665,-3.58789 -10.26583,1.713 -19.784977,-2.39779 -25.833977,-7.17579 2.094,-2.4195 6.106063,-2.92776 9.939453,-2.95312 z m -49.074219,5.08398 c 0.665079,0.0296 1.315226,0.25771 1.81836,0.73243 -1.171906,2.3738 -2.805711,3.40186 -5.023438,1.4375 v -0.002 c 0.206178,-1.33799 1.742591,-2.23306 3.205078,-2.16797 z m 183.388676,7.19141 c 8.243,3.478 16.04532,7.39773 27.98632,7.17773 3.177,2.564 5.97263,5.50904 10.76563,6.45704 -7.006,4.613 -16.37844,4.08198 -24.39844,6.45898 0.8,-4.462 5.09928,-5.42287 5.73828,-10.04687 -3.622,-0.467 -3.66748,4.04518 -5.02148,5.74218 -2.991,3.749 -6.81463,6.77213 -10.76563,9.32813 0.734,2.355 2.177,3.16444 0,5.02344 -4.09804,0.8294 -3.39681,-3.93247 -6.45117,-2.15821 l -0.004,0.008 -0.004,-0.004 0.008,-0.004 c 3.53402,-6.6913 0.0772,-18.63561 2.14649,-27.98242 z m -184.992191,0.64453 c 1.949131,-0.0657 3.147359,0.62199 2.708984,2.94336 -2.34,0.19 -3.45389,-0.85109 -3.58789,-2.87109 0.3065,-0.0375 0.600458,-0.0629 0.878906,-0.0723 z m 41.078125,0.36719 c 0.831861,0.02 1.220137,0.66387 1.099609,2.57812 -1.875326,0.20193 -3.08504,-0.26109 -2.86914,-2.15039 0.630937,-0.22812 1.165766,-0.39455 1.597656,-0.42382 0.05938,-0.004 0.116417,-0.005 0.171875,-0.004 z m 230.019526,0.42383 h 2.15235 v 2.15234 h -2.15235 v -0.002 z m -12.625,2.80859 c 0.82,-0.0175 1.90399,0.22681 2.58399,0.0664 -0.106,1.57 -1.80789,1.5425 -3.58789,1.4375 l -0.004,0.004 c -0.37,-1.21 0.18783,-1.49031 1.00781,-1.50781 z m -82.09374,1.49219 c 0.75398,2.93 -0.35402,5.06408 0,9.33008 -3.46201,2.04 -7.03068,3.97123 -10.76368,5.74023 -1.509,-2.797 -0.35879,-8.25122 -0.71679,-12.19922 h 0.002 c 3.6796,0.19 6.84932,-2.12069 11.47852,-2.87109 z m -124.148442,1.44336 c 2.555999,-0.164 3.75189,1.03089 3.58789,3.58789 v 0.002 c -2.9,0.51 -4.09589,-0.68984 -3.58789,-3.58984 z m -4.644532,0.6914 c 0.107232,0.003 0.219703,0.0116 0.337891,0.0254 0.202,1.877 -0.261344,3.0871 -2.152344,2.8711 v -0.002 c -0.190312,-1.7625 0.205974,-2.93599 1.814453,-2.89454 z m 199.117184,0.0215 c 1.967,0.015 1.7028,3.38564 0.7168,4.30664 -2.05311,0.14087 -3.91156,0.0894 -3.58789,-2.14649 1.88,0.2 3.59109,0.23985 2.87109,-2.16015 z m -6.6289,1.31445 c 1.18843,0.0663 2.31258,0.61313 2.33008,1.5625 0.838,2.943 -4.98944,2.8818 -5.02344,0.7168 l 0.004,0.002 c -0.4725,-1.65937 1.16148,-2.36646 2.68946,-2.28125 z m -7.00196,2.27539 h 3.58789 c -0.215,1.064 -3.01889,3.08955 -3.58789,1.43555 v -0.006 z m -53.59179,1.43164 c 1.09036,0.031 1.36937,0.87555 2.64062,0.72461 v 6.45899 0.002 c -1.92,-1.25 -4.83914,-4.31969 -2.86914,-7.17969 0.0804,-0.006 0.15583,-0.008 0.22852,-0.006 z M 41.624313,326.1076 h 3.58789 c -0.091,2.062 -0.897891,3.40809 -3.58789,2.87109 v -0.002 z m -25.117188,0.7207 h 3.589844 c 1.068,3.88 -4.396844,3.46 -3.589844,0 z m 259.789065,1.59766 c 1.01278,0.0199 1.81054,0.76094 1.43554,2.71094 -2.193,0.518 -2.61664,-0.73475 -4.30664,-0.71875 l -0.004,-0.002 c 0.30281,-1.11031 1.72718,-2.01279 2.875,-1.99023 z m -8.11524,0.0977 c 1.54864,0.0624 2.97969,0.75547 3.08594,2.60547 -1.85858,1.49967 -6.11407,0.80589 -5.74023,-2.14843 0.75375,-0.30375 1.72511,-0.49448 2.65429,-0.45704 z m -52.17382,3.32422 c 1.46198,2.844 2.82198,5.78899 6.45898,6.45899 -1.138,2.449 -2.39744,4.77823 -5.02344,5.74023 -1.843,-3.66 -4.13678,-6.86512 -7.17578,-9.32812 v -0.002 c 0.08,-2.8 3.12021,-2.61914 5.74024,-2.86914 z m -175.099614,0.72071 h 3.58789 c 0.984,2.61 -4.82989,3.43 -3.58789,0 z m 203.216794,1.97851 c 1.65502,0.041 3.2535,0.70538 2.74219,2.32031 l -0.002,0.004 c -2.06,1.86 -4.23024,-0.53945 -5.74024,-1.43945 0.39025,-0.57138 1.71276,-0.91662 3,-0.88477 z m 7.63672,0.12891 c 1.26099,-0.005 2.36911,0.14222 3.00586,0.76172 l 0.004,0.004 c -0.11,2.24 -4.39055,1.3793 -4.31055,-0.7207 0.4425,-0.0238 0.88045,-0.0432 1.30078,-0.0449 z m -13.5,0.0391 c 0.581,0.136 0.71555,0.7198 1.43555,0.7168 v 1.43554 h -2.8711 l -0.004,0.008 c 0.25,-0.94 1.25945,-1.13016 1.43945,-2.16016 z m -195.542967,3.53711 c 0.932021,-0.0265 1.865046,0.21648 2.498046,0.77148 0.091,1.287 -0.877796,1.5151 -0.716796,2.8711 -1.633001,-0.52 -3.666438,-0.6415 -5.023438,-1.4375 v -0.004 c 0.140625,-1.3625 1.688818,-2.15703 3.242188,-2.20117 z m 195.671877,1.44336 c 0.18609,0.006 0.38114,0.0219 0.58594,0.0469 -0.087,2.65875 -1.04349,1.80561 -2.86915,1.43555 0.1502,-1.09978 0.98053,-1.52654 2.28321,-1.48242 z m 5.60547,0.043 h 2.86914 c 0.16,2.35 -3.35914,2.84 -2.86914,0 z m 17.94726,0.008 c -0.117,0.835 0.1578,1.27755 0.7168,1.43555 -0.0989,2.05094 -2.98789,1.31439 -5.01758,1.43554 -4e-5,0.003 4e-5,0.005 0,0.008 l -0.006,-0.008 c 0.002,-1.2e-4 0.004,1.3e-4 0.006,0 0.0346,-2.36252 2.04344,-2.74124 4.30078,-2.87109 z m -160.23242,0.0586 c 0.81463,0.0228 1.48039,0.93797 2.35352,1.3711 -0.063,2.135 -4.279095,1.91925 -3.58789,-0.71875 l -0.002,-0.002 c 0.46563,-0.4875 0.86604,-0.66076 1.23633,-0.6504 z m 150.91211,0.83204 c 0.31654,0.0145 0.7807,0.16601 1.42383,0.54101 -1.41375,1.90938 -2.79553,-0.60401 -1.42383,-0.54101 z m -210.275391,4.05273 c 1.17425,0 2.34714,0.26406 2.86914,0.78906 0.091,1.287 -0.877796,1.5141 -0.716796,2.8711 -2.265,0.35 -2.534438,-1.29475 -5.023438,-0.71875 v -2.15235 c 0.522,-0.525 1.696844,-0.78906 2.871094,-0.78906 z m 203.802731,0.0801 c 1.023,0.958 1.023,4.06644 0,5.02344 -2.493,-1.261 -2.72443,-0.62655 -5.02343,-1.43555 l 0.002,-0.008 c 0.46,-2.42 2.44148,-3.31008 5.02148,-3.58008 z m -138.98437,0.60937 c 2.69509,0.0208 1.9008,3.38438 1.20117,5.12891 l -0.004,-0.004 c -2.86,0.47 -2.05039,-2.72953 -2.15039,-5.01953 0.35747,-0.0749 0.67433,-0.10761 0.95313,-0.10547 z m -5.63281,0.0762 c 1.60837,-0.0382 2.00382,1.13679 1.81445,2.89648 -1.87622,0.20192 -3.08582,-0.26332 -2.87109,-2.15234 0.60836,0.12885 0.66878,-0.27917 0.71875,-0.71875 0.11817,-0.0135 0.23066,-0.0229 0.33789,-0.0254 z m 136.73046,0.0254 c 0.826,0.849 0.8118,2.53568 0.7168,4.30468 -1.729,-0.293 -1.55989,1.31275 -3.58789,0.71875 -0.319,-0.639 -0.62955,-1.28354 -1.43555,-1.43554 l -0.004,0.002 c 0.18,-2.45 1.53054,-3.71984 4.31054,-3.58984 z m 12.91211,0.006 h 2.8711 v 2.87109 c -1.83,-0.09 -2.7811,-1.05109 -2.8711,-2.87109 z m 8.47852,0.15625 c 0.99774,0.0269 1.96141,0.46359 2.28516,1.27734 0.882,2.386 -4.85144,1.75575 -5.02344,0.71875 l 0.004,0.002 c 0.1125,-1.38937 1.45157,-2.0327 2.73438,-1.99804 z m -235.250001,0.55468 h 2.871094 c 0.303,1.5 -0.49275,1.9011 -0.71875,2.8711 -1.89,0.22 -2.354344,-0.9911 -2.152344,-2.8711 z m 197.349611,0.002 c 4.068,1.916 5.14087,2.10075 10.04687,0.71875 0.502,2.209 0.502,1.37889 0,3.58789 -5.027,-1.928 -6.44867,0.50725 -10.76367,-0.71875 l -0.002,0.002 c -0.29,-1.73 1.30875,-1.55984 0.71875,-3.58984 z m -138.501954,0.7207 c 1.458,0.524 2.930545,2.15889 1.435547,3.58789 v 0.002 c -2.484003,0.5 -2.574547,-2.51984 -1.435547,-3.58984 z m -41.16211,5.14062 c 1.192875,0.009 2.23286,0.81586 1.69336,2.75586 -1.262,-0.412 -4.217641,0.86725 -4.306641,-0.71875 v -0.002 c 0.074,-1.255 1.420406,-2.04391 2.613281,-2.03516 z m 66.591794,0.41797 c 0.32389,0.01 0.69372,0.0663 1.1211,0.17969 -0.086,2.067 0.39125,4.69623 -0.71875,5.74023 -1.71483,-1.39386 -6.84391,0.62744 -6.45703,-2.86914 h -0.002 l -0.002,-0.002 h 0.004 v 0.002 c 4.12798,1.09291 2.92376,-3.14662 6.05468,-3.05078 z m 143.08399,0.81836 c 1.39214,0.009 2.66765,0.59383 2.28515,2.23633 -2.361,0.162 -3.99248,1.66845 -5.02148,-1.43555 l 0.002,-0.004 c 0.49875,-0.46375 1.6516,-0.80423 2.73438,-0.79688 z m -226.642581,0.0781 c 1.049,0.626 2.780297,0.57009 2.154297,2.87109 -1.664,0.229 -2.75489,-0.11575 -3.58789,-0.71875 v -0.002 c 0.254,-0.94 1.261593,-1.13039 1.433593,-2.15039 z m 218.166021,0.65039 c 1.13227,-0.0411 2.38339,0.30027 2.86328,0.78515 -1.04214,2.46795 -3.8109,0.90692 -5.02149,0.7168 0.011,-1.03914 1.02591,-1.4609 2.15821,-1.50195 z m -6.46094,0.15234 c 0.85874,1e-5 1.71664,0.69032 1.43164,2.07031 -1.42676,1.1948 -0.91231,-0.0635 -2.86914,0 -0.27998,-1.37998 0.57875,-2.07031 1.4375,-2.07031 z m -5.34375,0.63281 c 0.0982,-0.006 0.20258,-0.004 0.31445,0.004 0.216,1.891 -0.99409,2.3563 -2.87109,2.1543 l 0.002,-0.004 c 1.05938,-0.51562 1.08113,-2.06933 2.55469,-2.1543 z m 27.8457,2.69922 c 1.9892,-0.10582 2.0963,1.67305 4.04492,1.60742 -1.851,0.782 -2.92289,2.33965 -3.58789,4.30665 -2.209,0.534 -1.37889,-1.97055 -3.58789,-1.43555 l -0.008,0.004 c -0.39,-2.54 2.55015,-1.76054 2.16015,-4.31054 0.37188,-0.10288 0.69435,-0.15676 0.97852,-0.17188 z m -216.951171,1.85742 c 1.006812,-0.0287 1.608181,0.46312 1.40625,2.62305 -1.904818,0.76053 -4.081358,0.53684 -4.306641,-2.14844 1.088455,-0.11378 2.117314,-0.45228 2.900391,-0.47461 z m 201.914061,1.11719 c 0.34977,-0.0102 0.73127,0.0114 1.14844,0.0664 0.501,2.654 -1.13589,3.16914 -3.58789,2.86914 v -2.15234 c 0.62231,-0.44933 1.39014,-0.75244 2.43945,-0.78321 z m -7.30859,0.20313 c 0.7552,-0.007 1.37797,0.54515 1.27734,2.01953 -1.367,-1.345 -1.80484,-0.079 -3.58984,0 0.15187,-1.08 1.34153,-2.01116 2.3125,-2.01953 z m -211.552737,0.002 c 0.815033,-0.0404 1.728203,0.18094 2.564453,0.58594 -0.129,2.262 -2.360437,2.42334 -5.023437,2.15234 v -0.002 c 0.01312,-1.875 1.100595,-2.66895 2.458984,-2.73633 z m 205.658207,0.57813 c -0.091,1.287 0.87875,1.51509 0.71875,2.87109 -2.258,-0.358 -2.80664,1.564 -4.30664,0 h -0.002 c -0.46,-2.61 1.47985,-2.82109 3.58985,-2.87109 z m -10.05078,0.7207 h 2.87109 c -0.557,0.639 -0.7718,1.61914 -0.7168,2.86914 h -0.004 c -1.89,0.22 -1.85039,-1.49914 -2.15039,-2.86914 z m -3.4629,0.70703 c 1.24369,-0.0526 0.86707,3.24909 -0.84375,2.16797 v -1.43164 h -0.002 l 0.002,-0.004 v 0.004 c 0.60816,0.12868 0.6788,-0.28119 0.71875,-0.72071 0.0435,-0.009 0.0849,-0.0139 0.125,-0.0156 z m -161.716792,1.45508 c 2.285978,0.0441 3.883984,2.90429 2.279296,5.01367 -2.835,-0.035 -4.27064,-1.47164 -4.30664,-4.30664 v -0.004 c 0.692781,-0.5075 1.387269,-0.71547 2.027344,-0.70312 z m 196.587892,3.49609 c 0.27668,0.006 0.57187,0.0326 0.89062,0.0801 0.642,3.555 -2.35868,2.95239 -4.30468,2.15039 l -0.004,-0.002 c 0.53375,-1.3475 1.48121,-2.27254 3.41797,-2.22852 z m -7.00781,0.0801 c 0.642,3.555 -2.36065,2.95239 -4.30664,2.15039 l -0.004,-0.002 c 0.66,-1.5 2.12055,-2.17844 4.31055,-2.14844 z m -175.097661,1.44141 h 2.154297 c 0.141,2.056 0.0877,3.91784 -2.154297,3.58984 -0.91996,-0.95021 -0.920653,-2.6502 0,-3.58984 z m 172.566411,5.71484 c 1.60754,-0.0382 2.00382,1.13484 1.81445,2.89453 h -2.86914 -0.002 c -0.30001,-1.5 0.48875,-1.90109 0.71875,-2.87109 0.11812,-0.0135 0.23072,-0.0209 0.33789,-0.0234 z m -7.28711,0.11719 c 0.36418,-0.0162 0.73855,0.12997 1.20703,0.61718 0.303,1.5 -0.4908,1.9011 -0.7168,2.8711 -1.74784,-0.40396 -3.6915,-0.61373 -3.58789,-2.86914 h -0.002 l -0.002,-0.002 h 0.004 v 0.002 c 1.55146,0.24552 2.29646,-0.58349 3.09766,-0.61914 z m -13.18946,0.58203 c 1.48608,-0.0208 2.3891,0.53981 2.19922,2.19531 -0.942,0.921 -2.64589,0.921 -3.58789,0 l -0.002,-0.002 c 0.38,-0.58 0.74875,-1.17039 0.71875,-2.15039 0.23462,-0.0253 0.45958,-0.04 0.67187,-0.043 z m 6.75,0.002 c 1.18868,0.0472 2.24938,0.65945 1.90625,2.18945 -1.163,1.173 -4.50568,0.86446 -4.30468,-1.43554 l -0.004,-0.004 c 0.47687,-0.48125 1.47782,-0.78674 2.40234,-0.75 z m -18.90429,5.06641 c 1.57,0.106 1.54054,1.80889 1.43554,3.58789 l 0.004,0.002 c -2.88,0.1 -1.89945,-1.83984 -1.43945,-3.58984 z M 92.304,383.46502 c 2.053187,-0.0787 2.064922,2.63758 0.998047,3.64258 v 0.002 c -2.485,0.5 -2.573547,-2.51984 -1.435547,-3.58984 0.155312,-0.0314 0.300621,-0.0494 0.4375,-0.0547 z m 134.47852,0.0527 h 2.86914 v 2.86914 c -2.24,0.33 -3.19914,-0.61914 -2.86914,-2.86914 z m -141.412114,0.58203 c 1.278633,-0.0225 0.618748,1.89549 0.761719,3.00781 -1.262895,-0.17006 -1.63554,-1.24115 -1.435547,-2.87109 0.269803,-0.0904 0.491166,-0.13351 0.673828,-0.13672 z m 113.421874,9.46484 h 2.15235 c 0.98848,0.92352 0.7091,3.11423 0.71679,5.01953 -2.38999,-0.19001 -4.64914,-2.87953 -2.86914,-5.01953 z m -122.552733,5.62695 c 0.400033,0.0113 0.825547,0.0483 1.279297,0.11328 1.996,4.702 3.885328,9.50943 8.611328,11.48243 -2.118,1.71 -1.115094,6.54032 -2.871094,8.61132 -3.319,-0.03 -4.658687,-2.03918 -4.304687,-5.74218 -4.966,-1.911 -10.562282,-5.59722 -8.613282,-12.19922 v -0.002 c 1.528625,-1.19 3.098205,-2.3427 5.898438,-2.26368 z m 113.947263,2.26953 c 3.236,0.814 0.41946,6.79574 -1.43554,7.17774 l -0.004,0.004 c -0.76,-3.63 1.62945,-4.11165 1.43945,-7.18165 z m -125.597654,6.38282 c 0.9503,0.031 1.36168,0.59976 2.158203,0.78515 0.615,2.29 -1.129548,2.22085 -1.435546,3.58985 v 0.002 c -2.342,-1.03 -1.805547,-1.60055 -1.435547,-4.31055 0.1875,-0.0379 0.359236,-0.0576 0.515625,-0.0644 0.06842,-0.003 0.133912,-0.004 0.197265,-0.002 z" />
	
	<path
   id="path40"
   d="m 174.38408,125.8908 c -0.709,4.792 -0.84289,10.16097 -3.58789,12.91797 -18.136,-1.196 -32.38088,12.27308 -29.42188,28.70508 1.572,8.727 11.39841,12.68145 17.94141,17.93945 -1.676,5.538 -2.75264,11.81241 -4.30664,17.94141 -1.486,5.867 -2.33299,12.9279 -6.45899,16.5039 -8.003,-1.326 -8.62536,-10.03001 -15.06836,-12.91601 -1.908,5.603 -5.85843,11.14091 -5.02343,16.50391 1.264,8.115 11.51665,9.34671 17.22265,13.63671 -0.321,3.268 -1.84509,5.33254 -2.87109,7.89454 2.505,1.801 4.81308,3.79989 9.33008,3.58789 1.485,-2.104 1.11314,-6.06254 2.86914,-7.89454 3.296,0.532 7.40183,0.25555 10.04883,1.43555 0.322,3.671 -1.7163,4.98453 -2.1543,7.89453 1.756,1.592 3.87798,2.81889 6.45898,3.58789 3.097,-3.391 4.36603,-9.86422 6.45704,-12.19922 l 0.002,-0.004 c 7.11623,-0.49987 11.48337,-3.74475 16.43164,-6.39649 0.0112,-0.009 0.0218,-0.018 0.0332,-0.0273 0.0969,-0.0824 0.19411,-0.16055 0.28321,-0.25195 0.0448,-0.0411 0.15626,-0.18297 0.23046,-0.26367 0.15519,-0.18348 0.3126,-0.3669 0.48438,-0.53516 0.12804,-0.13152 0.24419,-0.27329 0.375,-0.40234 0.11786,-0.1293 0.23915,-0.25412 0.35547,-0.38477 0.16362,-0.16591 0.31008,-0.35015 0.48633,-0.50391 0.19113,-0.16831 0.38831,-0.33178 0.61328,-0.45117 6.66003,-6.5712 11.94458,-17.3314 10.1289,-29.5293 -1.452,-9.749 -9.25756,-15.4985 -14.35156,-20.8125 1.594,-7.018 3.07622,-14.14575 5.74024,-20.09375 4.88596,0.377 5.66862,4.85449 10.76562,5.02149 2.481,-3.5 2.98489,-8.97456 3.58789,-14.35156 -2.394,-3.825 -7.89287,-4.54633 -10.04687,-8.61133 0.411,-3.656 1.76509,-6.37008 2.87109,-9.33008 -3.147,-1.377 -7.33163,-3.99009 -10.76563,-2.87109 -1.135,2.931 0.45066,8.58482 -2.15234,10.04882 -3.437,-0.63 -7.61353,-0.52064 -7.89453,-4.30664 0.681,-2.905 2.27834,-4.89732 2.15234,-8.61132 -4.108,-0.438 -6.54462,-2.5461 -10.76562,-2.8711 z m -7.10156,26.54297 c 0.21126,-0.008 0.42515,-0.004 0.64453,0.0137 -0.461,5.52 -2.98889,8.97252 -3.58789,14.35352 l -0.002,-0.004 c -6.18062,-2.26687 -3.60391,-14.12439 2.94532,-14.36328 z m 12.90234,1.77149 c 2.30493,-0.0692 5.09406,1.81562 7.11719,2.54687 -1.183,6.95 -3.35164,12.9177 -4.30664,20.0957 -4.076,0.248 -5.75413,-1.90129 -9.32813,-2.15429 0.387,-7.984 2.94544,-13.79975 5.02344,-20.09375 0.46288,-0.25949 0.96517,-0.37866 1.49414,-0.39453 z m -11.54492,35.55859 c 3.639,0.904 5.72637,3.35848 8.60937,5.02148 -2.399,10.038 -5.19658,19.67888 -7.89258,29.42188 -3.048,1.406 -6.78787,-0.2178 -10.04687,-0.7168 v -0.008 c 2.28,-12.08 6.37008,-22.33875 9.33008,-33.71875 z m 16.93554,12.88476 c 1.99608,0.0224 1.81766,2.2186 3.16016,2.89454 -1.431,6.703 -1.04448,15.22581 -7.89648,16.50781 l -0.004,0.004 c -0.67,-5.78 2.62055,-13.58085 4.31055,-19.38085 0.1535,-0.0189 0.29661,-0.0269 0.42968,-0.0254 z" />
	<path
   d="m 285.62,280.9 c -2.559,5.813 -9.272,7.473 -13.635,11.481 -2.62,2.643 -5.241,5.284 -7.895,7.895 4.08,-6.7 12.83,-14.93 21.54,-19.38 z"
   id="path41" />
</g>
<metadata
   id="metadata41"><rdf:RDF><cc:Work><dc:format>image/svg+xml</dc:format><dc:type
         rdf:resource="http://purl.org/dc/dcmitype/StillImage" /><cc:license
         rdf:resource="http://creativecommons.org/licenses/publicdomain/" /><dc:publisher><cc:Agent
           rdf:about="http://openclipart.org/"><dc:title>Openclipart</dc:title></cc:Agent></dc:publisher></cc:Work><cc:License
       rdf:about="http://creativecommons.org/licenses/publicdomain/"><cc:permits
         rdf:resource="http://creativecommons.org/ns#Reproduction" /><cc:permits
         rdf:resource="http://creativecommons.org/ns#Distribution" /><cc:permits
         rdf:resource="http://creativecommons.org/ns#DerivativeWorks" /></cc:License></rdf:RDF></metadata></svg>
