<?xml version="1.0" encoding="UTF-8" standalone="no"?>
<!-- Created with Inkscape (http://www.inkscape.org/) -->

<svg
   width="58.603504mm"
   height="86.36277mm"
   viewBox="0 0 58.603504 86.36277"
   version="1.1"
   id="svg1"
   xml:space="preserve"
   inkscape:version="1.4.3 (0d15f75, 2025-12-25)"
   sodipodi:docname="untore-moderno.svg"
   xmlns:inkscape="http://www.inkscape.org/namespaces/inkscape"
   xmlns:sodipodi="http://sodipodi.sourceforge.net/DTD/sodipodi-0.dtd"
   xmlns="http://www.w3.org/2000/svg"
   xmlns:svg="http://www.w3.org/2000/svg"><sodipodi:namedview
     id="namedview1"
     pagecolor="#ffffff"
     bordercolor="#000000"
     borderopacity="0.25"
     inkscape:showpageshadow="2"
     inkscape:pageopacity="0.0"
     inkscape:pagecheckerboard="0"
     inkscape:deskcolor="#d1d1d1"
     inkscape:document-units="mm"
     inkscape:zoom="2.9606624"
     inkscape:cx="64.005947"
     inkscape:cy="165.67238"
     inkscape:window-width="2560"
     inkscape:window-height="1377"
     inkscape:window-x="1912"
     inkscape:window-y="32"
     inkscape:window-maximized="1"
     inkscape:current-layer="layer1" /><defs
     id="defs1" /><g
     inkscape:label="Livello 1"
     inkscape:groupmode="layer"
     id="layer1"
     transform="translate(-93.295902,-99.178368)"><path
       id="path1"
       style="fill:#000000"
       d="m 139.17994,99.178555 c -0.20747,-0.0055 -0.39312,0.109835 -0.80254,0.398425 -0.38578,0.27192 -0.86122,0.77849 -1.05626,1.12551 -0.19504,0.34703 -0.47128,1.07863 -0.61392,1.62626 -0.14264,0.54764 -0.25677,1.6087 -0.25477,2.35748 0.002,0.74878 0.15287,2.00923 0.33435,2.80086 0.18148,0.79164 0.33235,1.71313 0.33435,2.04794 0.003,0.40758 -0.11356,0.71498 -0.35192,0.93069 -0.1958,0.17719 -0.46257,0.52809 -0.59273,0.7798 -0.13017,0.25171 -0.23668,0.86399 -0.23668,1.36012 0,0.53973 0.10535,1.05225 0.262,1.27589 0.14399,0.20558 0.58206,0.55778 0.97359,0.7829 0.39152,0.22511 0.97835,0.46435 1.30431,0.53175 0.32597,0.0674 0.64887,0.20844 0.71727,0.31316 0.0684,0.10471 0.12612,0.35635 0.12712,0.55914 0.001,0.20279 -0.17594,0.50871 -0.39377,0.68006 -0.21783,0.17135 -0.44099,0.50051 -0.49609,0.73174 -0.0551,0.23123 -0.16837,0.68741 -0.25167,1.01338 -0.0832,0.32597 -0.10792,1.43068 -0.0537,2.45514 0.0535,1.02447 0.0414,2.34952 -0.0264,2.94453 -0.0678,0.59501 -0.28502,1.41692 -0.48317,1.82624 -0.27726,0.57278 -0.43084,0.72179 -0.66663,0.64699 -0.16851,-0.0535 -0.51065,-0.0461 -0.76016,0.0165 -0.39869,0.10006 -0.44545,0.18282 -0.38705,0.68316 0.0621,0.53195 0.0214,0.58565 -0.61909,0.81907 -0.37705,0.1374 -1.1429,0.36896 -1.7017,0.5147 -0.5588,0.14574 -1.85443,0.3096 -2.8789,0.3638 -1.1028,0.0584 -2.27111,0.0217 -2.8639,-0.0899 -0.55068,-0.10366 -1.02415,-0.21179 -1.05265,-0.24029 -0.0285,-0.0285 -0.0544,-0.29544 -0.0574,-0.59325 -0.003,-0.2978 -0.006,-0.76557 -0.007,-1.03973 -0.001,-0.27895 0.11505,-0.56462 0.26407,-0.64802 0.14646,-0.082 0.61606,-0.48592 1.04334,-0.89814 0.42727,-0.41222 0.91588,-1.05425 1.08624,-1.42678 0.17037,-0.37253 0.31168,-0.88063 0.31368,-1.12913 0.002,-0.2485 0.0499,-0.57254 0.10645,-0.71986 0.0565,-0.14731 0.239,-0.26768 0.40566,-0.26768 0.16665,0 0.53861,-0.26815 0.82631,-0.59583 0.2877,-0.32767 0.57242,-0.7919 0.63252,-1.03146 0.0602,-0.23956 0.025,-0.71797 -0.0786,-1.06299 -0.10337,-0.34503 -0.45857,-0.94296 -0.7891,-1.32911 -0.33053,-0.38615 -0.75115,-0.74992 -0.93483,-0.80822 -0.18424,-0.0585 -0.33383,-0.25638 -0.33383,-0.44132 0,-0.18437 0.30743,-0.89513 0.68317,-1.57975 0.49145,-0.89546 0.68725,-1.45647 0.69815,-1.99833 0.008,-0.42169 -0.10172,-0.93226 -0.25012,-1.16013 -0.14579,-0.22386 -0.42771,-1.00294 -0.62683,-1.73116 l -0.36226,-1.32395 0.86042,-0.90951 c 0.6392,-0.67587 0.85989,-1.03935 0.85989,-1.41541 0,-0.27832 -0.11978,-0.6257 -0.26613,-0.77205 -0.14635,-0.14636 -0.28823,-0.26613 -0.31523,-0.26613 h -5.1e-4 -5.2e-4 l -5.2e-4,5.1e-4 h -5.1e-4 l -5.2e-4,5.2e-4 c -0.0248,0.031 -0.0398,0.43774 -0.0331,0.92966 0.01,0.6675 -0.0689,1.01302 -0.27751,1.22163 -0.27498,0.27494 -0.29093,0.25769 -0.29093,-0.31523 0,-0.36751 -0.14812,-0.7983 -0.37673,-1.0945 -0.20736,-0.26867 -0.49336,-0.57798 -0.6351,-0.68678 -0.14174,-0.10879 -0.28731,-0.16744 -0.32401,-0.13074 -0.0367,0.0367 0.0276,0.18065 0.14314,0.31987 0.11555,0.13923 0.21735,0.51513 0.22635,0.83561 0.009,0.32047 -0.0834,0.70371 -0.20619,0.85163 -0.12276,0.14792 -0.3879,0.26923 -0.5886,0.26923 -0.20071,0 -0.55314,-0.1319 -0.78341,-0.293 -0.23028,-0.1611 -0.76171,-0.65745 -1.18081,-1.10278 -0.58745,-0.62422 -0.93649,-0.8448 -1.52394,-0.96376 -0.4191,-0.0849 -1.37159,-0.28674 -2.11666,-0.44856 -1.27847,-0.27736 -1.40975,-0.28131 -2.33526,-0.006 -0.61121,0.17944 -1.23804,0.52051 -1.66347,0.90486 -0.37543,0.33918 -0.82837,0.90216 -1.00665,1.2516 -0.17827,0.34945 -0.49457,0.75487 -0.7028,0.90072 -0.20824,0.14586 -0.58586,0.2651 -0.83923,0.2651 -0.32273,0 -0.75495,0.27321 -1.44384,0.91261 -0.54082,0.50198 -1.31199,1.46374 -1.71359,2.13682 -0.40161,0.67308 -0.68643,1.33773 -0.63303,1.47691 0.0763,0.19886 0.004,0.22958 -0.3359,0.14418 -0.23817,-0.0597 -0.5239,-0.0527 -0.6351,0.016 -0.13135,0.0812 -0.0604,0.15846 0.20309,0.22066 0.22308,0.0527 0.4646,0.20865 0.5364,0.34623 0.0718,0.13758 0.24074,0.61343 0.37517,1.05781 0.1347,0.44514 0.17656,0.84972 0.0946,0.90072 -0.0823,0.0509 -0.30082,0.38888 -0.48576,0.75138 -0.18493,0.36251 -0.33642,0.81915 -0.33642,1.01441 0,0.33303 0.0232,0.33825 0.37621,0.0915 0.20699,-0.14498 0.65216,-0.26355 0.98857,-0.26355 h 0.61185 l -0.0775,1.3255 c -0.075,1.29477 -0.064,1.34059 0.45992,1.93735 0.29511,0.33611 0.79776,0.69709 1.11725,0.80253 0.31949,0.1054 0.65896,0.14346 0.75396,0.0853 0.095,-0.0587 0.1726,-0.22481 0.1726,-0.36897 0,-0.14418 -0.0981,-0.2246 -0.21756,-0.1788 -0.11945,0.0458 -0.373,-0.0428 -0.56328,-0.19689 -0.19027,-0.15408 -0.47763,-0.48201 -0.63923,-0.72864 -0.21547,-0.32878 -0.26255,-0.61343 -0.17725,-1.06815 0.064,-0.34111 0.22565,-0.66245 0.35915,-0.71365 0.1335,-0.0512 0.45977,0.11541 0.72605,0.37052 0.26627,0.25507 0.56748,0.41308 0.66818,0.35088 0.10069,-0.0622 0.18242,-0.21271 0.18242,-0.33435 0,-0.12164 -0.15943,-0.4238 -0.3545,-0.67179 -0.19507,-0.248 -0.6621,-0.60783 -1.03767,-0.79943 -0.50564,-0.25801 -0.90742,-0.33091 -1.54977,-0.28061 -0.47711,0.0374 -1.00129,0.12836 -1.16427,0.20206 -0.17066,0.0772 -0.29663,0.0642 -0.29663,-0.0305 0,-0.0904 0.19773,-0.36154 0.43874,-0.60255 0.241,-0.24101 0.70295,-0.52564 1.02681,-0.63252 0.32386,-0.1069 0.83148,-0.14758 1.12809,-0.0899 0.29661,0.0575 0.8434,0.37029 1.21492,0.69453 0.37151,0.32423 0.77409,0.58911 0.89452,0.58911 0.12042,0 0.48265,-0.11 0.80563,-0.24495 0.40377,-0.16871 0.58756,-0.35573 0.58756,-0.59841 0,-0.19411 -0.1909,-0.72909 -0.42374,-1.18856 -0.23283,-0.45947 -0.42323,-1.06978 -0.42323,-1.35651 0,-0.31867 0.15242,-0.67331 0.39119,-0.91208 0.21484,-0.21484 0.50018,-0.42916 0.63458,-0.47646 0.20032,-0.0705 0.18233,-0.17206 -0.10283,-0.56327 -0.22926,-0.31451 -0.60289,-0.5393 -1.09554,-0.65888 -0.54345,-0.13192 -0.81875,-0.31204 -1.00718,-0.65939 -0.25699,-0.47374 -0.25238,-0.48386 0.58705,-1.22111 0.46567,-0.40899 1.32784,-0.9889 1.91513,-1.2883 0.8567,-0.43677 1.27461,-0.54528 2.11615,-0.54828 0.93054,-0.004 1.24032,0.0931 2.74505,0.85834 0.93286,0.47444 2.10895,0.98556 2.61328,1.13533 0.50433,0.14977 1.34148,0.27234 1.86086,0.27234 h 0.94517 l 0.39739,1.48156 c 0.21852,0.81492 0.43384,1.64188 0.47904,1.83813 0.0654,0.28437 -0.0157,0.37695 -0.39894,0.45475 -0.26443,0.0537 -0.9703,0.47695 -1.56838,0.94103 -0.59809,0.46408 -1.2744,0.87986 -1.50275,0.92346 -0.30272,0.0579 -0.43743,-0.006 -0.49713,-0.2341 -0.0792,-0.30288 -0.10283,-0.30274 -0.72967,0.0176 l -0.64854,0.33073 -0.33848,-0.43046 c -0.18624,-0.23677 -0.5025,-0.9215 -0.70229,-1.52187 -0.20447,-0.61441 -0.52149,-1.20275 -0.72553,-1.34566 -0.19938,-0.13965 -0.55734,-0.25424 -0.7953,-0.25424 -0.23795,0 -0.60079,0.11816 -0.80616,0.262 -0.20536,0.14385 -0.60696,0.601 -0.89245,1.01595 -0.26569,0.38617 -0.44879,0.7087 -0.43201,0.75138 6.7e-4,7.3e-4 0.002,0.002 0.003,0.003 5.1e-4,1.3e-4 0.002,4.1e-4 0.003,5.2e-4 0.051,0 0.46891,-0.21 0.92914,-0.46612 0.83543,-0.46492 0.83795,-0.46503 1.41645,-0.15503 0.31868,0.17077 0.7569,0.62627 0.97359,1.01182 0.21669,0.38556 0.58099,0.87422 0.80977,1.08624 0.22878,0.21203 0.5872,0.38551 0.79633,0.38551 0.25448,0 0.41217,0.12737 0.47697,0.3855 0.0532,0.21213 0.31611,0.59608 0.58446,0.85318 0.38443,0.3683 0.83566,0.5377 2.12649,0.79737 0.90107,0.18126 1.86857,0.44862 2.15025,0.59428 0.28168,0.14566 0.66105,0.5085 0.84285,0.80666 0.1818,0.29817 0.3309,0.81472 0.33124,1.14774 4.4e-4,0.41276 -0.12061,0.71583 -0.38034,0.9524 -0.20955,0.19086 -0.56322,0.44143 -0.78599,0.55655 -0.22276,0.11511 -0.89081,0.20929 -1.48415,0.20929 -0.82868,0 -1.2958,-0.1063 -2.01435,-0.45785 -0.5145,-0.25172 -1.05823,-0.64522 -1.20871,-0.87489 -0.15049,-0.22966 -0.56369,-0.56582 -0.91829,-0.74672 -0.35459,-0.1809 -0.8302,-0.32866 -1.05678,-0.32866 -0.22658,0 -0.45497,-0.11185 -0.50747,-0.24857 -0.0524,-0.13671 -0.0202,-0.2948 0.0713,-0.3514 0.0915,-0.0568 0.44823,-0.0784 0.79271,-0.048 0.48819,0.0429 0.63923,-0.0104 0.68523,-0.24133 0.0484,-0.24333 -0.0645,-0.29611 -0.63097,-0.29611 -0.46398,0 -0.80055,0.11067 -1.02836,0.33848 -0.18627,0.18627 -0.33848,0.48195 -0.33848,0.65681 0,0.17487 0.11113,0.41019 0.24702,0.52296 0.14732,0.1222 0.44667,0.16136 0.74207,0.0961 0.43016,-0.0945 0.62638,0.01 1.4888,0.78962 0.54627,0.49398 1.25266,1.04269 1.56993,1.21956 0.31728,0.17687 1.00353,0.44951 1.52445,0.60617 0.89189,0.26835 0.94372,0.31367 0.89452,0.77928 -0.0287,0.27183 -0.22995,0.76621 -0.44752,1.09864 -0.21758,0.33243 -0.67239,0.86595 -1.01027,1.18546 -0.33788,0.3195 -0.7837,0.62309 -0.99115,0.67489 -0.28931,0.0723 -0.37316,0.21038 -0.35916,0.59273 0.01,0.27414 0.0762,0.74467 0.14728,1.04541 0.11355,0.48057 0.0596,0.61689 -0.44907,1.12552 -0.31831,0.31831 -0.88033,0.66208 -1.2485,0.76429 -0.36816,0.10219 -0.92524,0.18655 -1.23817,0.18707 -0.31622,5.3e-4 -1.01776,-0.23818 -1.57923,-0.53744 -0.55563,-0.29615 -1.27119,-0.84339 -1.59008,-1.21594 -0.31889,-0.37255 -0.57981,-0.72997 -0.57981,-0.79427 0,-0.0643 -0.34401,-0.15569 -0.76481,-0.20309 -0.42137,-0.0475 -1.07146,-0.28878 -1.44643,-0.53692 -0.37446,-0.24781 -0.83115,-0.69477 -1.01492,-0.99373 -0.18377,-0.29895 -0.40173,-0.8104 -0.48473,-1.13637 -0.083,-0.32597 -0.19961,-0.99895 -0.25941,-1.49551 -0.0982,-0.81482 -0.0754,-0.91153 0.23719,-0.99323 0.19049,-0.0498 0.34624,-0.16294 0.34624,-0.25114 0,-0.0882 -0.32352,-0.14533 -0.71934,-0.12713 -0.39582,0.0178 -0.92689,0.0232 -1.17977,0.0109 -0.25288,-0.0123 -0.73332,-0.26309 -1.06816,-0.55708 -0.33484,-0.29399 -0.79153,-0.88479 -1.0144,-1.31258 -0.22286,-0.42779 -0.4089,-0.67495 -0.4129,-0.54932 -0.004,0.12562 0.11396,0.48483 0.26252,0.79789 0.14855,0.31306 0.60618,0.87913 1.01699,1.2578 0.41081,0.37868 0.97064,0.73337 1.24437,0.78807 0.40777,0.0815 0.50702,0.19535 0.54932,0.63045 0.0418,0.42971 -0.0777,0.66009 -0.62684,1.20819 -0.44182,0.44102 -0.84494,1.10259 -1.15496,1.89653 l -0.47594,1.21956 -1.63918,0.87592 c -0.90161,0.48184 -2.24906,1.27931 -2.99413,1.77198 -0.74507,0.49267 -1.77445,1.30247 -2.28772,1.79938 -0.51327,0.49691 -1.23996,1.24643 -1.61437,1.66553 -0.37441,0.4191 -0.83758,0.88414 -1.0294,1.03353 -0.27652,0.21536 -0.37138,0.54201 -0.45888,1.57716 -0.0843,0.99725 -0.051,1.42086 0.14211,1.79421 0.13902,0.26883 0.2527,0.80298 0.2527,1.187 0,0.38402 0.18516,1.24523 0.41134,1.91358 0.22618,0.66836 0.78603,2.00489 1.24385,2.97036 0.749,1.57942 0.81862,1.82538 0.6966,2.45515 -0.0746,0.38496 -0.14021,1.46232 -0.14521,2.39365 -0.006,1.08909 -0.12855,2.16218 -0.34158,3.00757 -0.18218,0.72294 -0.4054,1.45316 -0.4961,1.62264 -0.0907,0.16949 -0.28638,0.40936 -0.43511,0.53279 -0.20483,0.16999 -0.31816,0.17638 -0.46664,0.0279 -0.10781,-0.10782 -0.2687,-0.19585 -0.3576,-0.19585 -0.0889,0 -0.0238,0.15233 0.14469,0.33848 0.16847,0.18615 0.7521,0.6624 1.29708,1.05833 l 0.99064,0.71985 -0.0992,0.93121 c -0.0546,0.51223 -0.021,1.40948 0.0749,1.99368 0.0959,0.5842 0.31936,1.26994 0.49661,1.52394 0.17725,0.254 0.46713,0.84277 0.64389,1.30844 0.19969,0.5261 0.31923,1.26375 0.31523,1.94769 -0.005,0.91672 -0.0829,1.2105 -0.46561,1.75907 -0.25275,0.36224 -0.4594,0.75942 -0.4594,0.88263 0,0.12321 0.15174,0.6302 0.33745,1.12654 0.1857,0.49634 0.3495,1.08985 0.3638,1.31879 0.0143,0.22893 -0.0583,0.85078 -0.16123,1.38183 -0.10291,0.53105 -0.39981,1.29264 -0.65991,1.69292 -0.26011,0.40028 -0.51111,0.91606 -0.55811,1.14618 -0.0537,0.26279 -0.33441,0.55812 -0.75447,0.79375 -0.36784,0.20633 -0.72537,0.52742 -0.79427,0.71365 -0.12105,0.3272 -0.10174,0.3306 0.56431,0.0956 0.46144,-0.16284 1.40571,-0.24339 2.85874,-0.24339 1.19353,0 2.20814,-0.0611 2.25464,-0.13643 0.0465,-0.0752 -0.19632,-0.1544 -0.54002,-0.1757 -0.3437,-0.0213 -1.00607,-0.1031 -1.47174,-0.1819 l -0.84646,-0.14315 1.0635,-0.0202 c 0.58507,-0.011 1.32808,-0.13016 1.65106,-0.2651 0.32297,-0.13495 0.58704,-0.29225 0.58704,-0.34985 v -5.2e-4 -5.1e-4 -5.2e-4 -5.2e-4 l -5.1e-4,-5.1e-4 v -5.2e-4 -5.2e-4 -5.1e-4 c -0.0363,-0.0532 -0.82217,-0.0459 -1.77715,0.0181 -1.18204,0.0792 -1.77819,0.0604 -1.77819,-0.0553 0,-0.0957 0.1904,-0.22169 0.42323,-0.28009 0.34227,-0.0859 0.42372,-0.21136 0.42375,-0.6537 2e-5,-0.30091 0.22558,-0.96623 0.50126,-1.47847 0.27569,-0.51223 0.50398,-1.04986 0.50798,-1.19475 0.004,-0.14489 -0.1842,-0.52158 -0.41703,-0.83716 -0.24833,-0.33659 -0.42323,-0.80268 -0.42323,-1.12758 0,-0.37395 0.16499,-0.7416 0.50798,-1.13223 0.4424,-0.50389 0.50798,-0.70841 0.50798,-1.58389 0,-0.55288 -0.11263,-1.3853 -0.25063,-1.85001 -0.138,-0.46471 -0.57607,-1.29819 -0.97359,-1.85157 l -0.72295,-1.00614 0.0315,-1.49862 c 0.0172,-0.82437 0.0716,-1.53923 0.12092,-1.58853 0.0493,-0.0493 0.33995,0.0274 0.64596,0.17053 0.30601,0.14318 0.97553,0.38895 1.48776,0.54571 0.51958,0.15901 1.80842,0.32563 2.91559,0.37723 1.22939,0.0573 2.38963,0.0156 3.04839,-0.10955 0.58489,-0.11111 1.19764,-0.24139 1.36219,-0.28939 0.16454,-0.048 0.45312,-0.38868 0.64131,-0.75757 0.1882,-0.36889 0.56656,-1.25367 0.84077,-1.96578 0.27421,-0.7121 0.59553,-1.35592 0.71365,-1.43092 0.11813,-0.075 0.27579,-0.13801 0.35089,-0.13901 0.0751,-0.001 0.2823,0.32608 0.45992,0.72761 0.32049,0.72453 0.31898,0.79207 -0.18397,8.93227 -0.27873,4.51126 -0.59997,8.99518 -0.71365,9.96425 l -0.20671,1.76165 -1.07849,-0.0124 c -0.59325,-0.007 -1.14486,-0.0788 -1.22576,-0.15968 -0.0808,-0.0809 -0.15968,-1.66832 -0.17518,-3.52744 -0.0252,-3.0253 0.0123,-3.53674 0.3576,-4.86947 0.23921,-0.92333 0.34865,-1.71643 0.28835,-2.08824 -0.0971,-0.59832 -0.0947,-0.60081 0.99529,-1.09503 0.6008,-0.27241 1.09244,-0.54137 1.09244,-0.59737 0,-0.056 -0.2763,-0.0499 -0.61392,0.0134 -0.33762,0.0633 -1.08063,0.32348 -1.65106,0.57826 -0.57043,0.25479 -1.22754,0.55381 -1.46037,0.66404 l -0.42323,0.19999 0.42323,-0.0357 c 0.23283,-0.0197 0.44759,0.0202 0.47749,0.0884 0.0299,0.0682 0.0134,0.52319 -0.0367,1.01131 -0.0501,0.48813 -0.14891,1.57354 -0.21911,2.41174 -0.0703,0.8382 -0.12011,2.01928 -0.11111,2.62464 0.009,0.60537 0.0452,1.82464 0.0801,2.7094 0.0349,0.88477 0.13071,1.65751 0.21291,1.71721 0.0822,0.0597 0.0369,0.26876 -0.10025,0.46457 -0.13715,0.19584 -0.30027,0.30486 -0.36277,0.24236 -0.0625,-0.0625 -0.32209,0.0851 -0.57723,0.32815 -0.25515,0.24301 -1.04879,0.63727 -1.76371,0.87643 -0.84927,0.28409 -1.67146,0.43511 -2.37144,0.43511 -0.95059,0 -1.16455,-0.0661 -1.89652,-0.58652 -0.45372,-0.32259 -1.10105,-0.6706 -1.43867,-0.7736 -0.33761,-0.103 -0.77953,-0.2681 -0.98237,-0.3669 -0.20283,-0.0988 -0.58415,-0.12604 -0.84698,-0.0594 -0.26284,0.0661 -0.74426,0.16181 -1.07022,0.21291 -0.32597,0.0511 -0.93585,0.086 -1.35495,0.078 -0.4191,-0.008 -1.52383,-0.037 -2.455151,-0.0641 -1.3236,-0.0385 -1.915236,0.0231 -2.709396,0.28267 -0.7397,0.24174 -1.236842,0.55265 -1.828312,1.14308 -0.44682,0.44603 -0.959922,0.81132 -1.139982,0.81132 -0.20821,0 -0.365865,0.15432 -0.433565,0.42426 -0.0589,0.23345 -0.05513,0.7097 0.0088,1.05834 0.0637,0.34863 0.223537,0.80085 0.355017,1.0051 0.13149,0.20425 0.716252,0.63724 1.299662,0.96222 0.58341,0.32498 1.485449,0.74896 2.004529,0.94206 0.51909,0.1931 1.623797,0.49735 2.455147,0.67593 0.831341,0.17858 2.022131,0.3768 2.645841,0.4408 0.66632,0.0684 1.74877,0.0302 2.62464,-0.093 1.27607,-0.1796 1.64883,-0.31257 2.59106,-0.92242 0.60536,-0.39182 1.38361,-1.00523 1.72909,-1.36323 l 0.62787,-0.65112 0.11317,0.70797 c 0.10058,0.62897 0.16422,0.70745 0.57258,0.70745 0.25269,0 0.81017,-0.10565 1.23868,-0.23461 0.42851,-0.12896 1.31723,-0.59206 1.97508,-1.0294 l 1.19631,-0.7953 0.71881,0.262 c 0.39529,0.14393 1.04235,0.34338 1.43816,0.44338 l 0.71985,0.18191 5.2e-4,1.05161 5.2e-4,1.05162 4.69842,2.0655 c 2.58417,1.13593 4.83678,2.0693 5.00589,2.0743 0.1691,0.005 0.43906,-0.0615 0.59945,-0.14728 0.16038,-0.0858 1.20309,-0.20639 2.31716,-0.26769 1.11407,-0.0614 2.71145,-0.22536 3.54965,-0.36431 0.8382,-0.13895 2.24788,-0.3557 3.13264,-0.48163 0.88477,-0.12594 2.48482,-0.38116 3.55586,-0.56741 1.07104,-0.18624 2.50132,-0.39247 3.1786,-0.45837 0.67728,-0.0659 1.27272,-0.18596 1.32293,-0.26716 0.0502,-0.0813 0.2688,-0.1036 0.48576,-0.0491 0.23876,0.0599 0.45192,0.0103 0.54002,-0.12609 0.08,-0.12397 0.19219,-2.13031 0.24959,-4.45864 0.0574,-2.32834 0.18857,-5.52897 0.29146,-7.11223 0.10288,-1.58327 0.2682,-4.32622 0.3669,-6.09575 0.0987,-1.76953 0.33158,-4.89379 0.51779,-6.94273 0.18622,-2.04893 0.49002,-5.01802 0.67489,-6.59804 0.18486,-1.58002 0.41338,-2.952 0.50799,-3.0484 0.0946,-0.0964 0.64214,-0.36558 1.21646,-0.59841 0.73778,-0.29909 1.13235,-0.57465 1.34462,-0.93896 0.16525,-0.28361 0.4066,-1.0225 0.5364,-1.64176 0.2131,-1.01679 0.20892,-1.13612 -0.0377,-1.23352 -0.15053,-0.0593 -0.84507,-0.15004 -1.54357,-0.20154 -0.6985,-0.0515 -1.36515,-0.16886 -1.48156,-0.26096 -0.11647,-0.0921 -0.21188,-0.38675 -0.21188,-0.65474 0,-0.46327 -0.0367,-0.48731 -0.74776,-0.48731 -0.44452,0 -0.77643,-0.085 -0.81803,-0.20981 -0.0385,-0.11547 0.0312,-0.54652 0.15503,-0.95808 0.12387,-0.41157 0.22531,-0.96478 0.22531,-1.22938 0,-0.32027 0.0874,-0.48111 0.26097,-0.48111 0.1434,0 0.55938,0.15221 0.92448,0.33848 0.36511,0.18627 0.82502,0.33848 1.02217,0.33848 0.19714,0 0.58147,-0.2223 0.8537,-0.49454 0.27224,-0.27223 0.49454,-0.58677 0.49454,-0.69867 0,-0.1119 -0.38079,-0.57251 -0.84646,-1.02371 -0.46567,-0.4512 -0.84647,-0.96193 -0.84647,-1.13481 0,-0.18175 -0.45554,-0.68396 -1.08003,-1.19063 -0.59399,-0.48193 -1.22506,-0.87591 -1.40199,-0.87591 -0.17692,0 -0.50972,-0.13126 -0.74,-0.29146 -0.23028,-0.1602 -0.5908,-0.46203 -0.80099,-0.67076 l -0.38241,-0.3793 0.416,-1.43557 c 0.22881,-0.78955 0.53032,-2.22143 0.66973,-3.18172 0.13942,-0.9603 0.33521,-2.81267 0.43511,-4.11654 0.0999,-1.30387 0.30586,-3.42027 0.45786,-4.70308 l 0.27646,-2.33267 -0.39377,-0.4191 c -0.21664,-0.2306 -0.50372,-0.41909 -0.6382,-0.41909 -0.20572,0 -0.22085,-0.2356 -0.0977,-1.48208 0.0808,-0.81491 0.14728,-2.54809 0.14728,-3.85196 0,-1.99157 -0.0518,-2.47485 -0.32298,-3.02101 -0.17754,-0.35756 -0.60223,-0.83501 -0.94361,-1.06092 -0.34138,-0.22591 -1.11858,-0.51503 -1.72703,-0.64233 -0.60845,-0.12731 -1.28847,-0.34602 -1.51154,-0.48628 -0.22307,-0.14025 -0.69151,-0.30518 -1.04076,-0.36638 -0.54128,-0.0949 -0.63836,-0.17908 -0.65836,-0.56948 -0.013,-0.25189 -0.0142,-0.72461 0.008,-1.05058 0.0174,-0.32596 0.1378,-1.0117 0.26665,-1.52394 0.12886,-0.51223 0.28282,-1.27434 0.34262,-1.69344 0.0597,-0.4191 0.0289,-0.97003 -0.0682,-1.224727 -0.10463,-0.27439 -0.4018,-0.555267 -0.72916,-0.688847 -0.19339,-0.0789 -0.32563,-0.125672 -0.4501,-0.129191 z m -0.0171,0.383439 h 5.2e-4 5.2e-4 c 0.01,1.18e-4 0.0182,0.0011 0.0258,0.0036 0.12176,0.03957 0.33317,0.507916 0.46973,1.040766 0.22711,0.88607 0.22058,1.09492 -0.0744,2.44326 -0.1775,0.81083 -0.35284,1.93148 -0.38964,2.49028 -0.0515,0.78251 -0.16056,1.11499 -0.47439,1.44694 -0.22411,0.23705 -0.52973,0.78916 -0.67903,1.22732 -0.1458,0.4279 -0.29396,0.78007 -0.33434,0.79633 h -5.2e-4 l -5.2e-4,5.2e-4 h -5.1e-4 -5.2e-4 -5.2e-4 -5.2e-4 -5.1e-4 c -0.036,0 -0.10206,-0.17131 -0.14676,-0.38086 -0.0447,-0.20955 -0.16987,-0.83853 -0.27854,-1.39733 -0.10868,-0.5588 -0.20719,-1.77754 -0.21859,-2.70887 -0.0155,-1.2614 0.0629,-1.94837 0.30696,-2.69286 0.20326,-0.62005 0.56896,-1.25363 0.96376,-1.66864 0.3281,-0.344843 0.68797,-0.60224 0.83199,-0.600474 z m -17.83457,5.611546 c 0.40105,-0.0112 0.92781,0.0255 1.33222,0.10025 0.53923,0.0997 1.30013,0.3364 1.69085,0.52555 0.39072,0.18914 1.14342,0.72217 1.67225,1.18494 0.78215,0.68443 1.07795,0.84111 1.58647,0.84026 0.34383,-5.8e-4 0.82942,-0.1075 1.079,-0.23771 0.39866,-0.208 0.46626,-0.20432 0.55656,0.031 0.0565,0.14732 -0.0121,0.38267 -0.15245,0.52297 -0.15124,0.15125 -0.6537,0.27809 -1.23403,0.31109 -0.74756,0.0425 -1.19866,-0.0399 -1.90996,-0.34881 -0.51224,-0.22248 -1.40506,-0.64374 -1.98437,-0.93587 -0.57932,-0.29212 -1.49868,-0.64505 -2.04277,-0.78444 -0.75746,-0.19408 -1.19611,-0.21453 -1.87224,-0.0863 -0.48565,0.0921 -1.03972,0.25136 -1.23145,0.35398 -0.19174,0.1026 -0.39397,0.14226 -0.44907,0.0868 -0.0551,-0.0551 0.11668,-0.32628 0.38137,-0.60255 0.26469,-0.27628 0.71624,-0.57524 1.00356,-0.66404 0.28732,-0.0888 0.83819,-0.21015 1.22421,-0.26975 0.0965,-0.0149 0.21617,-0.0236 0.34985,-0.0274 z m 18.97869,1.29966 c 0.25249,10e-4 0.63207,0.0491 0.84388,0.10594 0.37429,0.10028 0.36824,0.11791 -0.22015,0.63252 -0.33299,0.29123 -0.8111,0.94865 -1.06246,1.46089 -0.40664,0.82865 -0.50811,0.92517 -0.92243,0.87747 -0.38015,-0.0437 -0.46498,-0.13701 -0.46198,-0.50798 0.002,-0.24993 0.1453,-0.75919 0.31832,-1.13172 0.17302,-0.37254 0.47896,-0.84878 0.68006,-1.05833 0.20489,-0.2135 0.56752,-0.37979 0.82476,-0.37879 z m 1.87896,0.67541 h 5.1e-4 5.2e-4 c 0.34597,0 1.01051,0.18953 1.47639,0.42168 0.46589,0.23216 1.05858,0.64313 1.31724,0.91312 0.45304,0.4729 0.4696,0.55511 0.4656,2.24483 -0.002,0.9647 -0.11744,2.59237 -0.2558,3.61683 -0.13837,1.02447 -0.29993,2.3201 -0.35863,2.8789 -0.0587,0.5588 -0.14545,1.14908 -0.19275,1.31206 h 5.1e-4 c -0.0702,0.24181 -0.27891,0.29594 -1.13326,0.29094 -0.57581,-0.003 -1.45441,-0.1462 -1.95285,-0.31833 -0.49844,-0.17213 -1.10833,-0.46388 -1.35496,-0.64802 -0.42261,-0.31552 -0.44855,-0.41618 -0.44855,-1.75183 v -1.41749 l -1.12551,-0.18448 c -0.61906,-0.10154 -1.31799,-0.31085 -1.5534,-0.46509 -0.33899,-0.22212 -0.45237,-0.47468 -0.54467,-1.21336 -0.0644,-0.51299 -0.069,-1.12928 -0.007,-1.36994 0.074,-0.29476 0.31462,-0.52335 0.73794,-0.70022 0.43424,-0.18169 0.93131,-0.23503 1.60868,-0.17363 0.53915,0.0489 1.16667,0.21108 1.39423,0.36018 0.22757,0.14911 0.53256,0.50113 0.678,0.78238 0.14547,0.28126 0.21868,0.58501 0.16278,0.67541 -0.0559,0.0904 -0.36572,0.16434 -0.68885,0.16434 -0.32312,0 -1.04021,-0.22858 -1.5937,-0.50798 -0.55349,-0.2794 -1.04924,-0.50798 -1.10174,-0.50798 -0.0524,0 -0.0109,0.15922 0.093,0.35346 0.10396,0.19425 0.16361,0.37353 0.13281,0.39843 -0.0308,0.0249 -0.20854,0.13006 -0.39481,0.23409 -0.18627,0.10401 -0.2383,0.19131 -0.11576,0.19431 0.12254,0.003 0.37642,-0.0772 0.56431,-0.17777 0.26902,-0.14398 0.41311,-0.11837 0.67696,0.12041 0.26645,0.24112 0.57909,0.29521 1.52807,0.26251 0.75766,-0.0261 1.28572,0.0356 1.44643,0.16898 0.13922,0.11555 0.31809,0.38061 0.39739,0.58912 0.0793,0.20851 0.33374,0.50298 0.56534,0.65474 0.23161,0.15172 0.59691,0.25062 0.81184,0.21962 0.34722,-0.0501 0.31118,-0.10175 -0.32195,-0.46354 -0.44807,-0.25605 -0.7779,-0.59491 -0.88883,-0.91312 -0.097,-0.27834 -0.17622,-0.67113 -0.17622,-0.87281 0,-0.25273 0.18476,-0.45535 0.59531,-0.65113 0.32764,-0.15624 0.6837,-0.47675 0.79117,-0.71262 0.17343,-0.38062 0.13734,-0.49046 -0.32091,-0.97513 -0.28397,-0.30035 -0.54459,-0.63965 -0.57929,-0.75396 -0.0347,-0.1143 -0.19275,0.0193 -0.3514,0.29662 -0.27509,0.48075 -0.2748,0.50385 0.0212,0.50385 0.17053,0 0.40112,0.10964 0.51212,0.24339 0.14983,0.1805 0.15436,0.33331 0.0155,0.59273 -0.11592,0.2166 -0.35597,0.34934 -0.63097,0.34934 -0.24405,0 -0.69416,-0.19039 -0.99942,-0.42323 -0.30526,-0.23283 -0.63164,-0.42323 -0.72554,-0.42323 -0.0939,0 -0.21438,-0.0708 -0.26768,-0.1571 -0.0533,-0.0863 0.0626,-0.58275 0.25735,-1.10329 0.19476,-0.52055 0.5454,-1.17365 0.77928,-1.45159 0.33146,-0.39392 0.56389,-0.5054 1.0542,-0.5054 z m -27.41229,2.38487 0.33125,0.64854 c 0.18209,0.35693 0.56245,0.84399 0.84543,1.0821 0.28298,0.23812 0.66744,0.48124 0.85421,0.54054 0.18677,0.0593 0.33951,0.18398 0.33951,0.27698 0,0.093 -0.0793,0.31646 -0.1757,0.49661 -0.1194,0.22312 -0.34853,0.32485 -0.71933,0.31885 -0.29941,-0.005 -1.03182,-0.2532 -1.62781,-0.55242 -0.59598,-0.29922 -1.16394,-0.67097 -1.26194,-0.82631 -0.14398,-0.22825 -0.0255,-0.44582 0.61805,-1.13378 z m 7.40937,2.35644 c 0.0707,0 0.22371,0.15221 0.34003,0.33848 0.10722,0.17171 0.16823,0.31462 0.14521,0.3359 l -5.1e-4,5.2e-4 -5.2e-4,5.1e-4 h -5.2e-4 l -5.1e-4,5.2e-4 -5.2e-4,5.2e-4 h -5.2e-4 l -5.1e-4,5.2e-4 h -5.2e-4 -5.2e-4 l -5.1e-4,5.1e-4 -5.2e-4,5.2e-4 -5.2e-4,5.2e-4 -5.1e-4,5.1e-4 -5.2e-4,5.2e-4 -5.2e-4,5.2e-4 -5.1e-4,5.1e-4 -5.2e-4,5.2e-4 -5.2e-4,5.2e-4 -5.2e-4,5.1e-4 h -5.1e-4 l -5.2e-4,5.2e-4 h -5.2e-4 -5.1e-4 -5.2e-4 -5.2e-4 -5.1e-4 c -3e-4,-1e-5 -0.001,0 -0.001,0 -0.0407,0 -0.19368,-0.11927 -0.34003,-0.26562 -0.14636,-0.14635 -0.26613,-0.29909 -0.26613,-0.33899 0,-0.0399 0.058,-0.0724 0.12867,-0.0724 z m -9.04337,0.0682 c 0.15516,-10e-4 0.53863,0.17203 0.9219,0.42271 0.68472,0.44782 0.73707,0.51886 0.37311,0.50746 -0.23283,-0.007 -0.6709,-0.0847 -0.97359,-0.17208 -0.30268,-0.0874 -0.55035,-0.26637 -0.55035,-0.39791 0,-0.13154 0.0797,-0.28861 0.17725,-0.34881 0.0122,-0.008 0.0295,-0.0112 0.0517,-0.0114 z m 0.44803,1.13895 c 0.0767,0 0.15366,0.0116 0.21187,0.0351 0.11642,0.047 0.021,0.0853 -0.21187,0.0853 -0.23286,0 -0.32778,-0.0383 -0.21136,-0.0853 0.0582,-0.0235 0.13463,-0.0351 0.21136,-0.0351 z m 15.73031,0.14727 c 0.0832,0 0.19496,0.11455 0.24856,0.25425 0.0594,0.1547 7e-5,0.25373 -0.15141,0.25373 -0.13678,0 -0.24857,-0.11403 -0.24857,-0.25373 0,-0.1397 0.0682,-0.25425 0.15142,-0.25425 z m -13.51442,0.1695 c 0.1979,0 0.39724,0.16913 0.49144,0.41703 0.0872,0.22934 0.35882,0.72024 0.6041,1.09089 0.24528,0.37066 0.39628,0.75416 0.33538,0.85266 -0.0609,0.0985 -0.24558,0.17932 -0.41083,0.17932 -0.16524,0 -0.35131,-0.0506 -0.41341,-0.11266 -0.0621,-0.0621 -0.11317,-0.28539 -0.11317,-0.49609 0,-0.32901 -0.13742,-0.41285 -0.97359,-0.59428 -0.53552,-0.11619 -1.31671,-0.22138 -1.73581,-0.23358 -0.70113,-0.0204 -0.7663,-0.0601 -0.817,-0.49402 l -0.0548,-0.47129 1.26142,0.11834 c 0.85798,0.0804 1.29899,0.0579 1.37769,-0.0692 0.0636,-0.10295 0.26549,-0.18707 0.44856,-0.18707 z m 13.12529,0.72347 c 0.0433,9.7e-4 0.0809,0.005 0.11214,0.0129 l 0.39946,0.10025 -0.34623,1.10588 c -0.22711,0.72506 -0.43452,1.10477 -0.60255,1.10277 -0.14092,-10e-4 -0.33725,-0.0587 -0.43615,-0.12712 -0.0989,-0.0684 -0.25226,-0.38516 -0.34106,-0.70383 -0.0888,-0.31867 -0.26722,-0.61433 -0.39636,-0.65733 -0.16241,-0.0541 -0.20721,0.0202 -0.14521,0.24082 0.0493,0.17546 0.11784,0.43287 0.15244,0.57257 0.0491,0.19793 -0.0827,0.24544 -0.59841,0.21394 -0.36394,-0.0222 -0.84019,-0.15731 -1.05833,-0.30024 -0.21814,-0.14292 -0.39688,-0.3343 -0.39688,-0.4253 0,-0.091 0.15629,-0.16536 0.34727,-0.16536 0.19098,0 0.94904,-0.23796 1.68465,-0.52865 0.73181,-0.28923 1.32187,-0.4481 1.62522,-0.44132 z m -5.42034,1.24592 c -0.0396,0.002 -0.0568,0.0991 -0.0568,0.29869 0,0.24278 0.0668,0.44132 0.14831,0.44132 0.0815,0 0.14621,-0.0955 0.14521,-0.21188 -0.001,-0.11642 -0.0682,-0.31496 -0.14831,-0.44131 -0.0369,-0.0583 -0.0661,-0.0877 -0.0884,-0.0868 z m -1.56166,0.10904 c -0.0375,-4.2e-4 -0.0615,0.0191 -0.0615,0.0574 0,0.068 0.12595,0.26273 0.28008,0.43305 0.15414,0.17032 0.30928,0.30954 0.34468,0.30954 5e-4,0 0.002,-4e-5 0.002,0 h 5.2e-4 5.1e-4 l 5.2e-4,-5.2e-4 h 5.2e-4 5.1e-4 5.2e-4 l 5.2e-4,-5.1e-4 5.1e-4,-5.2e-4 5.2e-4,-5.2e-4 c 0.0205,-0.0207 -0.0285,-0.16018 -0.11782,-0.32711 -0.0969,-0.18108 -0.25208,-0.37585 -0.34468,-0.43305 -0.0405,-0.025 -0.0778,-0.0374 -0.10697,-0.0377 z m -3.92379,1.74253 v 5.1e-4 h -5.2e-4 l -5.1e-4,5.2e-4 h -5.2e-4 l -5.2e-4,5.2e-4 h -5.1e-4 -5.2e-4 v 5.1e-4 h -5.2e-4 l -5.2e-4,5.2e-4 c -0.0308,0.0232 0.0282,0.19974 0.13126,0.39223 0.10302,0.1925 0.39529,0.46224 0.64906,0.59996 0.25378,0.13772 0.4895,0.25335 0.524,0.25735 0.0345,0.004 -0.23223,-0.28516 -0.59273,-0.64234 -0.34656,-0.34339 -0.65568,-0.61035 -0.70642,-0.60978 h -5.1e-4 z m 27.66963,0.3514 h 5.1e-4 5.2e-4 c 0.003,-1.5e-4 0.006,-9e-5 0.009,0 0.0775,0.002 0.17617,0.0797 0.32246,0.24133 0.31959,0.3526 0.31882,0.36173 -0.002,0.59686 h -5.2e-4 c -0.17955,0.13129 -0.38823,0.23874 -0.46353,0.23874 -0.0754,0 -0.13536,-0.1713 -0.13436,-0.38085 0.001,-0.20955 0.0642,-0.47824 0.13952,-0.59686 0.0396,-0.0622 0.0803,-0.0962 0.12868,-0.0992 z m -6.66885,0.47904 v 5.1e-4 c 0.18786,-0.002 0.86779,0.2196 1.60921,0.5302 1.11984,0.46913 1.80163,0.64312 2.75849,0.70332 0.69907,0.044 1.57112,-0.003 1.93786,-0.10439 0.36673,-0.10087 0.70261,-0.1485 0.74621,-0.1049 0.0436,0.0436 -0.0178,0.72928 -0.13591,1.52342 -0.15083,1.01379 -0.29854,1.48849 -0.49609,1.59422 -0.15474,0.0828 -0.5465,0.191 -0.87075,0.2403 -0.32426,0.0494 -0.82896,0.0173 -1.12138,-0.0703 -0.29241,-0.0876 -0.95565,-0.48268 -1.47381,-0.8785 -0.51816,-0.39581 -1.44082,-1.10116 -2.05052,-1.56683 -0.8808,-0.67271 -1.10846,-0.93967 -1.10846,-1.30173 0,-0.25062 0.0734,-0.50147 0.1633,-0.55707 0.008,-0.005 0.0224,-0.008 0.0418,-0.008 z m -0.1204,1.78749 1.10071,0.85059 c 0.60537,0.46795 1.49807,1.12361 1.98385,1.45727 0.57134,0.39242 1.15021,0.63685 1.63918,0.69195 0.41576,0.0469 1.00175,-4.9e-4 1.30276,-0.10542 0.29633,-0.10332 0.56066,-0.16767 0.59273,-0.14573 l 5.2e-4,5.2e-4 c 0.0251,0.0252 -0.0296,0.65423 -0.12144,1.39785 -0.0918,0.74361 -0.42937,2.63787 -0.75034,4.20956 -0.32097,1.5717 -0.58343,3.07681 -0.58343,3.3445 0,0.26769 -0.0738,0.48679 -0.16381,0.48679 -0.09,0 -0.43202,-0.26872 -0.76016,-0.59686 -0.32815,-0.32815 -0.87503,-0.78531 -1.21492,-1.01596 -0.37951,-0.25754 -0.85711,-0.41961 -1.23816,-0.41961 -0.47825,0 -0.74221,0.12616 -1.15136,0.55035 -0.29196,0.30268 -0.61175,0.76515 -0.71055,1.02733 -0.0988,0.26218 -0.17983,0.72525 -0.17983,1.02888 0,0.44284 0.1855,0.73863 0.93689,1.49603 0.51517,0.5193 1.20873,1.07354 1.54151,1.23145 0.33278,0.15787 0.7877,0.25199 1.01079,0.20929 0.22309,-0.0426 0.40566,-0.0188 0.40566,0.0527 0,0.0715 -0.35651,0.25101 -0.7922,0.39946 -0.43569,0.14846 -0.88046,0.27027 -0.98805,0.27027 -0.10759,0 -0.23682,-0.0415 -0.28732,-0.092 -0.0505,-0.0505 -0.83801,-0.42785 -1.75028,-0.83871 -1.33795,-0.60257 -1.69894,-0.84295 -1.86707,-1.24282 -0.15434,-0.36707 -0.50651,-0.6363 -1.35599,-1.03766 -1.11554,-0.52707 -1.16514,-0.53507 -1.80506,-0.2837 -0.36195,0.1422 -0.76328,0.21818 -0.89142,0.16898 -0.12814,-0.0492 -0.4062,-0.50742 -0.61805,-1.01854 -0.28233,-0.68117 -0.59128,-1.0806 -1.15652,-1.49552 -0.42414,-0.31135 -0.91462,-0.7246 -1.09037,-0.91881 l -0.31988,-0.35346 0.83096,-0.006 c 0.45682,-0.003 1.40215,-0.11117 2.10065,-0.23927 0.6985,-0.12811 1.73042,-0.3792 2.2934,-0.5581 l 1.02371,-0.32505 0.50023,0.83613 c 0.27522,0.46004 0.68222,0.98086 0.90433,1.15703 0.22211,0.17618 0.59914,0.3204 0.83768,0.3204 h 0.43356 l -0.52089,-0.55036 c -0.28649,-0.30268 -0.60633,-0.71655 -0.71056,-0.91984 -0.10423,-0.20328 -0.26876,-0.57903 -0.36586,-0.83457 -0.15707,-0.41311 -0.083,-0.37648 0.66972,0.32763 0.57364,0.53657 0.99332,0.79168 1.30173,0.79168 0.44443,0 0.43546,-0.0214 -0.39377,-0.89814 -0.46706,-0.49385 -0.904,-1.07008 -0.971,-1.28105 -0.0873,-0.27492 -6e-5,-0.56031 0.30799,-1.00718 0.23639,-0.34293 0.51898,-1.00452 0.62787,-1.47019 0.1089,-0.46566 0.24609,-1.70307 0.30489,-2.74971 z m -17.85938,0.0367 c -0.0633,0.007 -0.27524,0.19115 -0.56637,0.50074 -0.41147,0.43756 -0.91213,1.14449 -1.11259,1.57096 -0.20047,0.42648 -0.47625,1.2493 -0.61289,1.82883 -0.13665,0.57954 -0.25014,1.30136 -0.25114,1.60404 -0.002,0.36929 0.0779,0.55035 0.24288,0.55035 0.13519,0 0.85283,-0.26676 1.59421,-0.59273 0.74139,-0.32597 1.5764,-0.59272 1.8557,-0.59272 0.27929,0 0.99092,0.15187 1.5813,0.33693 0.59038,0.18507 1.08918,0.33748 1.10898,0.33848 0.02,0.001 0.0313,-0.40899 0.0253,-0.91158 -0.006,-0.5026 0.0409,-1.15014 0.10439,-1.43918 0.0793,-0.36117 0.21519,-0.52555 0.4346,-0.52555 0.17559,0 0.40552,-0.16082 0.51056,-0.35709 0.1425,-0.26591 0.13988,-0.40617 -0.003,-0.55035 -0.14572,-0.14521 -0.27331,-0.0892 -0.51057,0.22479 -0.27172,0.35963 -0.38118,0.39556 -0.78134,0.25425 -0.25605,-0.0904 -0.59038,-0.39291 -0.74259,-0.67231 -0.15222,-0.2794 -0.53903,-0.64125 -0.8599,-0.80409 -0.32088,-0.16284 -0.94805,-0.29648 -1.39371,-0.29662 -0.78196,-2.5e-4 -0.80408,-0.0132 -0.62632,-0.38085 0.0285,-0.0589 0.0324,-0.0868 0.006,-0.0863 h -5.2e-4 c -4.6e-4,0 -0.002,10e-6 -0.002,0 h -5.2e-4 z m 0.66508,0.67799 c 0.15076,-0.006 0.28994,0.0344 0.48007,0.11317 0.27652,0.11454 0.71653,0.43172 0.97772,0.70435 l 0.47491,0.49558 -1.34411,-0.0114 c -0.73921,-0.006 -1.51541,-0.0943 -1.72496,-0.19534 -0.20955,-0.10107 -0.38085,-0.24908 -0.38085,-0.32918 0,-0.0801 0.3362,-0.30932 0.74724,-0.50901 0.36335,-0.17653 0.57614,-0.26063 0.76998,-0.2682 z m -1.29811,2.36265 c 0.12262,-4.9e-4 0.27179,0.0512 0.37568,0.13746 0.13851,0.11496 0.25167,0.34411 0.25167,0.50901 0,0.1649 -0.12037,0.34606 -0.26769,0.40256 -0.14732,0.0566 -0.40075,0.10283 -0.56327,0.10283 -0.23366,0 -0.27961,-0.10901 -0.21911,-0.52141 0.0421,-0.28679 0.18238,-0.56225 0.31161,-0.61185 0.0323,-0.0124 0.0702,-0.0184 0.11111,-0.0186 z m 0.33124,1.5875 c 0.34925,-0.0197 0.63511,0.009 0.63511,0.0641 0,0.0547 -0.55262,0.30886 -1.22784,0.56482 v -5.2e-4 c -0.67522,0.25596 -1.28454,0.46451 -1.35444,0.46251 -0.0699,-0.002 -0.12712,-0.11138 -0.12712,-0.24443 0,-0.13304 0.11978,-0.36162 0.26613,-0.50798 0.14635,-0.14635 0.46988,-0.27422 0.71934,-0.28422 0.24947,-0.01 0.73957,-0.0346 1.08882,-0.0543 z m -5.62239,0.83354 0.25114,1.10071 c 0.1384,0.60536 0.39157,1.29109 0.56224,1.52393 0.17068,0.23283 0.73887,0.59605 1.26246,0.80667 0.52359,0.21062 1.43092,0.43056 2.01641,0.48886 0.58549,0.0583 1.15391,0.17578 1.26298,0.26148 0.14089,0.11064 -0.0687,0.42323 -0.72347,1.07798 -0.67612,0.67612 -1.045,0.91863 -1.3839,0.91363 -0.32877,-0.005 -0.78973,-0.31558 -1.59887,-1.07693 -0.91941,-0.86511 -1.16836,-1.21137 -1.30069,-1.81229 -0.09,-0.40873 -0.2049,-1.31534 -0.2558,-2.01384 z m -1.13068,0.30851 h 5.1e-4 5.2e-4 c 0.0549,10e-4 0.0928,0.33761 0.14624,1.13119 0.0534,0.79164 0.22518,2.04909 0.38189,2.79415 0.15671,0.74507 0.62456,2.45006 1.03973,3.7884 0.41518,1.33833 0.73247,2.45427 0.70487,2.48047 h -5.2e-4 -5.1e-4 c -0.0369,0.0188 -0.37696,-0.18003 -0.76378,-0.44907 -0.39296,-0.2733 -1.01524,-0.60307 -1.38286,-0.73277 -0.36763,-0.12971 -1.01002,-0.28725 -1.42731,-0.34985 l -0.75861,-0.11369 0.72657,-2.16679 c 0.39963,-1.19151 0.77129,-2.46066 0.82579,-2.81999 0.0545,-0.35933 0.13964,-1.14854 0.18914,-1.7539 0.0495,-0.60537 0.15284,-1.32928 0.22944,-1.60868 0.0342,-0.12467 0.0622,-0.19383 0.0868,-0.19792 v -0.001 h 5.2e-4 5.1e-4 5.2e-4 5.2e-4 z m 1.93528,0.63458 1.57665,0.67335 c 0.86689,0.37051 1.78843,0.87743 2.04845,1.12654 0.26002,0.24912 0.47284,0.55313 0.47284,0.67541 0,0.13388 -0.18525,0.21608 -0.4656,0.20568 -0.25611,-0.01 -0.69419,-0.0736 -0.97359,-0.1416 -0.2794,-0.068 -0.73656,-0.24318 -1.01596,-0.39015 -0.2794,-0.14696 -0.71223,-0.48437 -0.9617,-0.7488 -0.24948,-0.26443 -0.5049,-0.68756 -0.5674,-0.94051 z m -4.0318,1.34307 c 0.17595,0 0.20068,0.37859 0.11938,1.82005 -0.0625,1.10838 -0.2609,2.38474 -0.50695,3.26336 -0.22224,0.79365 -0.49458,1.61302 -0.60565,1.82056 -0.19712,0.36833 -0.18054,0.37724 0.70229,0.37724 0.49743,0 1.37648,0.15969 1.95336,0.3545 0.57689,0.19482 1.04904,0.45133 1.04904,0.56948 0,0.11815 -0.19801,0.51057 -0.43977,0.87281 -0.24176,0.36225 -0.75286,0.98239 -1.13585,1.37821 -0.383,0.39582 -0.75382,0.71986 -0.82372,0.71986 -0.0729,-0.006 -0.55369,-0.83405 -1.07074,-1.84485 -0.51907,-1.01477 -1.26188,-2.20635 -1.65054,-2.6479 -0.38866,-0.44154 -0.955,-0.90658 -1.25884,-1.03353 -0.30384,-0.12695 -0.86307,-0.231 -1.2423,-0.231 -0.37924,0 -0.99858,0.15801 -1.37666,0.35089 -0.37809,0.19288 -1.02435,0.66071 -1.43609,1.04024 -0.41175,0.37953 -0.78329,0.65539 -0.82579,0.61289 -0.0425,-0.0425 0.0998,-0.40809 0.31626,-0.81287 0.2165,-0.40477 0.88174,-1.22725 1.47795,-1.82728 0.59621,-0.60004 1.61717,-1.49184 2.26911,-1.98179 0.65193,-0.48996 1.87801,-1.32057 2.72438,-1.84589 0.84637,-0.52533 1.63893,-0.95498 1.76113,-0.95498 z m 15.07247,1.18598 c 0.0931,0 0.1695,0.0711 0.1695,0.15864 0,0.0876 -0.0764,0.20699 -0.1695,0.26459 -0.0931,0.0576 -0.1695,-0.0145 -0.1695,-0.15968 0,-0.1452 0.0764,-0.26355 0.1695,-0.26355 z m -0.88729,0.16846 c 0.18859,0 0.38926,0.11973 0.44546,0.26614 0.0562,0.14641 0.0177,0.60095 -0.0853,1.00975 -0.13916,0.55284 -0.13599,0.95704 0.0124,1.57562 0.14392,0.59994 0.40972,1.04721 0.95395,1.60714 l 0.75447,0.77618 -0.78444,0.72708 c -0.43141,0.39985 -0.95809,0.82038 -1.17048,0.93431 -0.37651,0.20197 -0.38911,0.18271 -0.50229,-0.76222 -0.0638,-0.53303 -0.25913,-1.54064 -0.43408,-2.23914 -0.17496,-0.6985 -0.38656,-1.70881 -0.47026,-2.24535 l -0.15193,-0.97565 0.54467,-0.33693 c 0.29974,-0.18525 0.6992,-0.33693 0.8878,-0.33693 z m -5.22862,0.17002 c 0.0931,0 0.21629,0.0764 0.27389,0.1695 0.0575,0.0931 0.0285,0.16846 -0.0646,0.16846 -0.0931,0 -0.21628,-0.0754 -0.27388,-0.16846 -0.0575,-0.0931 -0.0285,-0.1695 0.0646,-0.1695 z m 7.04505,0.19533 v 5.2e-4 5.2e-4 5.2e-4 c 0.19321,-0.006 0.70144,0.15159 1.17512,0.36845 0.50527,0.23132 1.26685,0.74156 1.69292,1.1343 0.42607,0.39274 0.77515,0.76689 0.77515,0.83199 0,0.0651 -0.22199,0.0863 -0.49299,0.0465 -0.4682,-0.0687 -0.51197,-0.0196 -0.87902,0.98702 -0.30185,0.82784 -0.41301,0.98858 -0.50901,0.73638 -0.0676,-0.1775 -0.1814,-0.47519 -0.2527,-0.66145 -0.10482,-0.27387 -0.14971,-0.20874 -0.23461,0.33899 l -0.1049,0.67696 -0.20929,-0.71881 c -0.11519,-0.39582 -0.27632,-0.72037 -0.35812,-0.72037 -0.0818,0 -0.17749,0.0859 -0.21239,0.19068 -0.0349,0.10479 -0.20285,-0.11894 -0.37362,-0.49764 -0.17077,-0.3787 -0.42534,-0.73282 -0.56534,-0.78652 -0.20601,-0.079 -0.23503,0.008 -0.15193,0.45527 0.0497,0.26782 0.0745,0.40735 0.0599,0.43047 l -5.1e-4,5.1e-4 -5.2e-4,5.2e-4 h -5.2e-4 -5.1e-4 -5.2e-4 l -5.2e-4,5.2e-4 h -5.1e-4 -5.2e-4 c -0.0217,0.001 -0.0831,-0.10408 -0.1974,-0.30231 -0.13431,-0.23283 -0.24712,-0.62168 -0.25012,-0.86403 -0.003,-0.24234 0.16803,-0.6986 0.38086,-1.01441 0.21282,-0.31582 0.51776,-0.59965 0.67747,-0.63045 0.01,-0.002 0.0212,-0.003 0.0341,-0.004 z m -6.06785,0.48215 h 0.88005 c 0.79938,0 0.89624,0.041 1.05317,0.45372 0.095,0.25001 0.15049,0.5895 0.12299,0.75344 -0.0414,0.24675 -0.22277,0.16776 -1.05317,-0.45527 z m -0.68471,0.25683 c 0.20429,-0.003 0.40603,0.16472 0.93638,0.60875 0.84976,0.71146 0.85279,0.71746 0.7369,1.49034 -0.064,0.42681 -0.18255,0.89975 -0.26355,1.0511 -0.081,0.15135 -0.28313,0.31099 -0.44906,0.35399 -0.16594,0.043 -0.37819,0.0595 -0.47129,0.0362 -0.0931,-0.0233 -0.36609,-0.0854 -0.60668,-0.13798 -0.2406,-0.0526 -0.43719,-0.21074 -0.43719,-0.3514 0,-0.14065 -0.13941,-0.66531 -0.30954,-1.16582 -0.17017,-0.50052 -0.26289,-1.03103 -0.20619,-1.17874 0.0567,-0.14771 0.33904,-0.39065 0.62787,-0.54001 0.19586,-0.10128 0.31978,-0.16421 0.44235,-0.16589 z m 19.18746,0.46354 c 0.0993,-0.003 0.18339,0.0538 0.31419,0.16898 0.1606,0.14136 0.68656,0.45493 1.16892,0.6966 0.48236,0.24168 0.92761,0.52129 0.98961,0.62166 0.062,0.10037 -0.0942,0.48125 -0.34727,0.84646 -0.2531,0.36522 -0.51089,0.91245 -0.57309,1.21647 -0.0879,0.42969 -0.1481,0.49696 -0.27078,0.30024 -0.0868,-0.13919 -0.17291,-0.35199 -0.19121,-0.47284 -0.0183,-0.12084 -0.32529,-0.57221 -0.68213,-1.00304 -0.35684,-0.43082 -0.78175,-0.98012 -0.94412,-1.22008 -0.16237,-0.23997 -0.2955,-0.49144 -0.29611,-0.55914 -6.1e-4,-0.0677 0.19111,-0.24947 0.42633,-0.40359 0.19159,-0.12553 0.30634,-0.18852 0.40566,-0.19172 z m -24.09155,0.12609 h 0.001 c 0.003,-1.5e-4 0.007,-1.1e-4 0.01,0 h 0.002 c 0.11362,0.004 0.3346,0.16563 0.72398,0.51883 0.4191,0.38015 0.91444,0.75329 1.10071,0.82889 0.20564,0.0835 0.55334,0.0495 0.88522,-0.0868 l 0.54674,-0.22427 0.18345,0.68264 c 0.13192,0.48989 0.13286,0.92912 0.001,1.55598 -0.10065,0.48042 -0.49635,1.94037 -0.87953,3.24424 -0.38318,1.30387 -0.71998,2.39755 -0.74828,2.43035 h -5.1e-4 v 5.1e-4 h -5.2e-4 -5.2e-4 v 5.2e-4 h -5.1e-4 l -5.2e-4,5.2e-4 -5.2e-4,5.1e-4 h -5.1e-4 -5.2e-4 v 5.2e-4 h -5.2e-4 -5.1e-4 -5.2e-4 l -5.2e-4,5.2e-4 h -5.1e-4 c -2.6e-4,0 -0.001,2e-5 -0.002,0 l -5.2e-4,-5.2e-4 h -5.2e-4 -5.1e-4 -5.2e-4 c -0.0314,-0.0133 -0.0895,-0.22763 -0.13539,-0.51056 -0.0506,-0.3122 -0.21038,-1.25366 -0.35553,-2.09186 -0.14516,-0.8382 -0.53394,-2.53034 -0.86403,-3.7605 -0.33008,-1.23016 -0.57506,-2.35485 -0.54416,-2.49907 0.0122,-0.0571 0.0379,-0.0882 0.0837,-0.0904 z m 24.01559,0.7891 -5.2e-4,5.1e-4 v 0.001 h -5.2e-4 -5.1e-4 -5.2e-4 -5.2e-4 -5.1e-4 -5.2e-4 c -10e-4,8.1e-4 -0.002,0.002 -0.003,0.003 -0.004,0.008 -4e-4,0.0255 0.0129,0.0517 0.0729,0.1397 0.2866,0.42488 0.4749,0.63407 0.1883,0.2092 0.3823,0.34014 0.4315,0.29094 0.0492,-0.0492 -0.1645,-0.33437 -0.4749,-0.63407 -0.22795,-0.22024 -0.39327,-0.34961 -0.43615,-0.34726 h -5.2e-4 c -1.6e-4,-1e-5 -0.001,-2e-5 -0.001,0 z m -16.37833,0.51263 0.28887,0.4408 c 0.16387,0.2501 0.36445,1.08536 0.46405,1.93114 0.0966,0.81981 0.18379,1.81447 0.19379,2.20969 0.0142,0.56663 -0.19524,1.1326 -0.99115,2.6789 -0.55514,1.07855 -1.09413,2.03149 -1.19735,2.11719 -0.10322,0.0857 -0.42811,0.20371 -0.72192,0.26251 -0.50229,0.10045 -0.53381,0.0769 -0.53381,-0.39015 0,-0.27325 -0.1025,-0.63673 -0.2279,-0.80822 -0.13585,-0.18579 -0.63217,-0.39217 -1.22783,-0.51108 -0.72088,-0.14391 -1.0157,-0.28297 -1.0573,-0.49816 -0.0317,-0.16413 0.26566,-1.22508 0.66094,-2.35748 0.39528,-1.1324 0.78307,-2.13152 0.86197,-2.22002 0.0788,-0.0885 0.14327,-0.31653 0.14314,-0.50746 -2.1e-4,-0.31436 0.0862,-0.34233 0.91829,-0.29043 0.58823,0.0367 1.00691,0.15833 1.16324,0.33848 0.13432,0.15477 0.37679,0.83397 0.53898,1.50947 0.16219,0.6755 0.44528,1.41919 0.6289,1.65262 0.18362,0.23346 0.4042,0.38166 0.4899,0.32866 0.0857,-0.053 0.15554,-0.31867 0.15554,-0.59015 0,-0.27148 -0.22858,-1.06863 -0.50798,-1.77198 -0.2794,-0.70335 -0.50798,-1.53458 -0.50798,-1.84743 0,-0.31284 0.10449,-0.81836 0.23255,-1.12293 z m 7.09724,0.35346 c 0.13679,-0.005 0.30215,0.12595 0.67386,0.43874 0.35931,0.30235 1.56751,1.24553 2.68511,2.09496 1.1176,0.84943 2.39625,1.91611 2.84117,2.37091 0.54456,0.55665 0.82106,0.99009 0.84646,1.32499 0.0319,0.4201 -0.028,0.50245 -0.38551,0.53175 -0.23284,0.0191 -0.59453,-0.0498 -0.80408,-0.15297 -0.23502,-0.11572 -0.38138,-0.34074 -0.38138,-0.58807 0,-0.28642 -0.22566,-0.55762 -0.79065,-0.94827 -0.43499,-0.30077 -1.13208,-0.80244 -1.54925,-1.11517 -0.65871,-0.49378 -0.77874,-0.53307 -0.91106,-0.29663 -0.0838,0.14974 -0.22293,0.27286 -0.30903,0.27286 -0.0861,0 -0.27461,-0.22858 -0.41909,-0.50798 -0.14448,-0.2794 -0.39977,-0.50798 -0.56741,-0.50798 -0.16764,0 -0.47084,-0.17718 -0.67334,-0.39274 -0.2025,-0.21555 -0.36794,-0.4736 -0.36794,-0.5731 0,-0.0995 -0.16274,-0.22291 -0.36173,-0.27491 -0.30749,-0.0804 -0.34558,-0.17688 -0.25218,-0.64389 0.0605,-0.30223 0.25334,-0.68337 0.42839,-0.84646 0.12391,-0.11544 0.20406,-0.18274 0.29766,-0.18604 z m 8.23722,0.0372 h 0.002 5.2e-4 c 7.4e-4,-2e-5 0.002,0 0.003,0 0.031,0 0.3011,0.30494 0.60048,0.67748 0.2763,0.34382 0.46336,0.63178 0.44338,0.67386 v 5.1e-4 h -5.2e-4 v 5.2e-4 h -5.1e-4 -5.2e-4 l -5.2e-4,5.2e-4 h -5.1e-4 l -5.2e-4,5.1e-4 h -5.2e-4 -5.1e-4 c -4.6e-4,8e-5 -0.002,4.3e-4 -0.003,5.2e-4 l -5.2e-4,5.2e-4 -5.2e-4,5.2e-4 h -5.1e-4 -5.2e-4 -5.2e-4 c -3.5e-4,3e-5 -9.8e-4,0 -0.002,0 -0.0601,0 -0.33028,-0.2363 -0.60048,-0.52555 -0.2702,-0.28925 -0.49145,-0.59418 -0.49145,-0.67748 0,-0.0807 0.024,-0.14733 0.0537,-0.15141 z m 3.90467,0.73329 c 0.15595,0.006 0.3179,0.056 0.4346,0.14159 0.16958,0.12434 1.51784,1.24359 2.9962,2.48667 1.47835,1.24307 2.99116,2.5209 3.36207,2.83962 0.55775,0.47925 0.64273,0.62994 0.49093,0.8723 -0.10255,0.16373 -0.44131,0.31483 -0.76791,0.34313 -0.40456,0.035 -0.73832,-0.0669 -1.08366,-0.33228 -0.27443,-0.21087 -0.55482,-0.46222 -0.62322,-0.55862 -0.0684,-0.0963 -0.12612,-0.37248 -0.12712,-0.6134 -0.002,-0.35117 -0.22934,-0.5893 -1.14567,-1.20251 -0.62865,-0.42069 -1.34866,-0.89005 -1.5999,-1.04231 -0.25123,-0.15221 -0.57551,-0.2315 -0.72089,-0.1757 -0.15701,0.0603 -0.57035,-0.12915 -1.01802,-0.46716 -0.41447,-0.31295 -0.82272,-0.7599 -0.90692,-0.99322 -0.0841,-0.23331 -0.0919,-0.58822 -0.0176,-0.7891 0.0743,-0.20087 0.29655,-0.41737 0.49402,-0.48007 0.0518,-0.0164 0.10854,-0.0252 0.16692,-0.0279 0.0219,-0.001 0.0439,-0.001 0.0661,-5.2e-4 z m -36.49079,0.45217 c 0.25505,0 0.85297,0.19473 1.32912,0.43201 0.47616,0.23728 0.98076,0.60655 1.12137,0.82114 0.14061,0.2146 0.94217,1.62043 1.78077,3.12436 0.8386,1.50393 1.46205,2.7342 1.38545,2.7342 -0.0766,0 -0.51783,0.34074 -0.9803,0.75654 -0.50358,0.45276 -1.0884,1.22665 -1.45779,1.9296 -0.33924,0.64557 -0.6165,1.3053 -0.6165,1.46606 0,0.22542 0.052,0.24888 0.22737,0.10335 0.12506,-0.10378 0.55208,-0.79264 0.9493,-1.53065 0.39721,-0.73801 0.92387,-1.53389 1.16995,-1.76889 0.24608,-0.235 0.6607,-0.46573 0.92139,-0.51263 0.4238,-0.0762 0.46152,-0.0459 0.35709,0.28319 -0.0643,0.20241 -0.25111,0.56014 -0.41548,0.79478 -0.16437,0.23463 -0.46425,0.93904 -0.66611,1.56528 -0.20186,0.62625 -0.34223,1.29531 -0.31213,1.48673 0.0513,0.32661 0.0781,0.3321 0.43564,0.0801 0.25861,-0.18232 0.3814,-0.44223 0.3824,-0.80925 9.1e-4,-0.29741 0.18074,-0.92186 0.39946,-1.38752 0.21873,-0.46567 0.56806,-0.99918 0.77618,-1.18545 0.24743,-0.22145 1.28146,-0.5488 2.98742,-0.9462 1.43491,-0.33426 2.60862,-0.55371 2.60862,-0.48731 0,0.0664 -0.12607,0.45445 -0.2806,0.86197 -0.20042,0.52858 -0.27827,1.25033 -0.27027,2.51871 0.008,1.35381 0.093,1.99277 0.35347,2.67735 0.29282,0.76973 0.30621,0.91277 0.0925,0.99477 -0.1373,0.0527 -0.56423,0.0528 -0.94878,0.002 -0.38454,-0.0516 -1.50504,0.0498 -2.48977,0.22531 -0.98473,0.17556 -2.28593,0.34599 -2.8913,0.37879 -0.60536,0.0329 -1.50215,0.006 -1.99316,-0.0589 -0.49101,-0.0654 -1.31623,-0.32624 -1.83348,-0.5793 -0.72087,-0.35269 -1.18088,-0.76181 -1.97145,-1.75338 -0.56726,-0.71147 -1.35664,-1.97971 -1.7539,-2.81791 -0.39727,-0.8382 -0.99427,-2.42357 -1.32654,-3.5233 -0.33228,-1.09972 -0.60409,-2.18888 -0.60409,-2.42001 0,-0.23114 0.14939,-0.71274 0.33176,-1.07022 0.18238,-0.35748 0.69681,-0.97215 1.14308,-1.36632 0.44628,-0.39417 0.98794,-0.78485 1.20355,-0.86765 0.21561,-0.0828 0.60071,-0.15038 0.85576,-0.15038 z m 28.61531,0.19327 c 0.36725,0.0143 0.61407,0.0977 0.84801,0.27233 0.23363,0.17443 0.45109,0.39726 0.48369,0.49506 0.0326,0.0978 -0.12005,0.29545 -0.33952,0.43925 -0.37986,0.24889 -0.44341,0.2274 -1.31878,-0.44235 l -0.91932,-0.70383 0.83457,-0.0527 c 0.1532,-0.01 0.28893,-0.0117 0.41135,-0.008 z m -6.66678,0.87436 v 5.2e-4 c 0.21062,-0.005 0.45748,0.0437 0.62115,0.13126 0.21821,0.11678 0.76895,0.23156 1.2237,0.25476 0.48553,0.0248 0.93989,0.15484 1.10071,0.31523 0.19336,0.19284 0.29883,0.70116 0.35863,1.72961 0.072,1.23866 0.13772,1.49234 0.44028,1.6924 0.35297,0.23338 0.35551,0.22546 0.27441,-1.03818 -0.0539,-0.8388 -0.0205,-1.27434 0.0982,-1.27434 0.0991,0 0.21688,0.13313 0.26148,0.29611 0.0446,0.16299 0.0584,1.1088 0.031,2.10116 -0.0274,0.99235 -0.0947,1.87699 -0.14986,1.96629 -0.0552,0.0893 -0.40698,0.16175 -0.78187,0.16175 -0.39014,0 -0.67999,-0.0807 -0.67799,-0.18862 0.002,-0.10371 0.15274,-0.37901 0.33486,-0.61185 0.18213,-0.23283 0.33286,-0.51464 0.33486,-0.62632 0.002,-0.11167 -0.25076,-0.39752 -0.56223,-0.6351 -0.31147,-0.23757 -0.66273,-0.4315 -0.78032,-0.4315 -0.12599,0 -0.17107,-0.11077 -0.11007,-0.26975 0.0569,-0.14835 0.14732,-0.44523 0.20102,-0.65939 0.0538,-0.21415 -0.0189,-0.61562 -0.16175,-0.89194 -0.14289,-0.27631 -0.47329,-0.58076 -0.7338,-0.67696 -0.26051,-0.0962 -0.77784,-0.2807 -1.1498,-0.41083 -0.37196,-0.13012 -0.70071,-0.36438 -0.73071,-0.52038 -0.0356,-0.18459 0.0912,-0.32072 0.36381,-0.38912 0.0576,-0.0145 0.12409,-0.023 0.1943,-0.0248 z m 8.07444,0.67593 v 5.2e-4 5.1e-4 5.2e-4 c 0.13588,-7.7e-4 0.32088,0.0515 0.5948,0.16123 0.35533,0.14231 1.63664,0.7167 2.84737,1.27589 1.21073,0.55919 2.52698,1.1134 2.92488,1.23145 0.54213,0.16085 0.75023,0.32101 0.82993,0.63872 0.0797,0.31769 0.0105,0.50092 -0.27647,0.73329 -0.21062,0.17055 -0.52685,0.31006 -0.7028,0.31006 -0.25271,0 -0.31988,-0.12454 -0.31988,-0.59273 0,-0.4233 -0.0755,-0.59273 -0.26355,-0.59273 -0.14486,0 -0.75324,-0.25955 -1.35185,-0.57722 -0.65093,-0.34542 -1.2256,-0.54123 -1.42989,-0.48783 -0.19002,0.0497 -0.34158,0.23031 -0.34158,0.40773 0,0.1754 -0.0573,0.31609 -0.12712,0.31109 -0.0699,-0.005 -0.73402,-0.5751 -1.47588,-1.26762 -1.01669,-0.94907 -1.30076,-1.30737 -1.15394,-1.45418 0.0642,-0.0642 0.1403,-0.0981 0.24598,-0.0987 z m 6.64456,0.66766 c 0.16092,0.004 0.31241,0.10014 0.47025,0.29507 0.16876,0.20841 0.30696,0.63778 0.30696,0.95343 0,0.31565 -0.0572,0.56479 -0.12712,0.55449 -0.0699,-0.0104 -0.53762,-0.24923 -1.03973,-0.53123 l -0.91313,-0.51315 0.40515,-0.31161 c 0.22271,-0.17178 0.55228,-0.36178 0.73277,-0.42168 0.0563,-0.0187 0.11121,-0.0263 0.16485,-0.0248 z m -28.00294,0.0677 c 0.0106,-4.9e-4 0.0216,-3.9e-4 0.0331,0 0.0837,0.003 0.19066,0.0294 0.33693,0.0713 0.28497,0.0818 0.57792,0.11259 0.65112,0.0677 0.0732,-0.0452 0.17429,0.0527 0.22479,0.21705 0.0505,0.16434 0.2821,1.01402 0.5147,1.88929 0.2326,0.87527 0.38443,1.65436 0.33693,1.73116 -0.0475,0.0768 -0.58662,0.29489 -1.19786,0.48369 -0.61124,0.18879 -1.12235,0.33141 -1.13585,0.31781 -0.0135,-0.0136 -0.46235,-0.48198 -0.99787,-1.04077 -0.53552,-0.55879 -0.9741,-1.06467 -0.9741,-1.12447 0,-0.0598 0.37674,-0.47926 0.83716,-0.93276 0.46043,-0.4535 0.92384,-1.03429 1.02991,-1.29036 0.11229,-0.27109 0.18122,-0.38068 0.34107,-0.38809 z m 12.86743,0.0739 c 0.42166,-0.007 0.92226,0.0961 1.11259,0.22945 0.19034,0.13331 0.44135,0.56027 0.55759,0.94826 0.11535,0.38495 0.18399,0.72586 0.15399,0.76223 l -5.1e-4,5.1e-4 c -0.0318,0.0318 -0.60311,0.17159 -1.26969,0.31058 -0.66659,0.13899 -1.54121,0.40484 -1.94355,0.58963 -0.47538,0.21831 -0.61332,0.33874 -0.39326,0.34674 0.18627,0.006 0.79616,-0.0986 1.35496,-0.23357 0.5588,-0.13492 1.33424,-0.24763 1.72341,-0.25063 0.42445,-0.004 0.81396,0.0998 0.97358,0.25941 0.14636,0.14636 0.26582,0.50806 0.2651,0.80409 -0.001,0.52911 -0.016,0.53897 -0.8537,0.56947 -0.46866,0.017 -1.22897,0.15596 -1.68981,0.30903 -0.46085,0.15307 -0.88788,0.35883 -0.94878,0.45733 -0.0743,0.1203 0.0778,0.14346 0.46353,0.0677 0.31591,-0.0621 0.99362,-0.18353 1.50585,-0.26923 0.76822,-0.12859 0.97595,-0.10915 1.18546,0.11058 0.19915,0.2089 0.20622,0.28397 0.0357,0.34727 -0.12011,0.0444 -1.30119,0.63107 -2.62465,1.30379 -1.32346,0.67272 -3.56886,1.88444 -4.98936,2.69286 -1.4205,0.80842 -2.62138,1.4702 -2.66908,1.4702 -0.0477,0 -0.23926,-0.24767 -0.4253,-0.55036 -0.18604,-0.30268 -0.41792,-0.8413 -0.51522,-1.19682 -0.1487,-0.54349 -0.12125,-0.76092 0.17157,-1.36581 0.19155,-0.39568 0.3483,-0.84955 0.3483,-1.00872 0,-0.15916 0.1957,-0.36396 0.4346,-0.45476 0.2389,-0.0908 0.71463,-0.16536 1.05781,-0.16588 0.34319,-5.2e-4 0.90041,-0.0778 1.23817,-0.17156 0.33775,-0.0938 0.81125,-0.36786 1.05213,-0.60875 0.24089,-0.24088 0.78713,-1.08349 1.21388,-1.87276 0.42675,-0.78927 0.90736,-1.78952 1.06816,-2.2226 0.25274,-0.68071 0.38396,-0.8151 0.96634,-0.99064 0.37051,-0.11168 1.01857,-0.209 1.44023,-0.216 z m 5.51646,0.49506 h 5.1e-4 c 3.7e-4,-1e-5 10e-4,0 0.002,0 0.0346,0 0.55872,0.35724 1.16479,0.79324 0.6291,0.45256 1.10174,0.91833 1.10174,1.08623 0,0.16175 -0.0463,0.41492 -0.10284,0.56224 -0.0565,0.14732 -0.18965,0.26394 -0.2961,0.25994 -0.10646,-0.004 -0.61276,-0.31273 -1.125,-0.68678 -0.51223,-0.37406 -0.99932,-0.74814 -1.08262,-0.83044 -0.0889,-0.0878 -0.0633,-0.36335 0.0625,-0.66715 0.11525,-0.27825 0.23719,-0.50721 0.27492,-0.51728 z m 10.88305,0.54364 c 3.5e-4,-2e-5 0.001,-4e-5 0.002,0 h 5.2e-4 l 5.1e-4,5.2e-4 c 0.003,-2e-4 0.007,0 0.0109,0 0.12897,0.002 0.65042,0.20202 1.20974,0.46663 0.59661,0.28224 1.17582,0.5136 1.28674,0.51367 0.11092,7e-5 0.24766,0.074 0.30386,0.16485 0.0562,0.0909 -8.5e-4,0.36201 -0.12661,0.60203 l -0.22841,0.43614 -1.04954,-0.70073 c -0.57709,-0.38536 -1.16442,-0.86487 -1.30535,-1.06608 -0.14099,-0.20122 -0.19069,-0.38826 -0.11059,-0.41496 h 5.2e-4 l 5.2e-4,-10e-4 h 5.1e-4 5.2e-4 l 5.2e-4,-5.1e-4 h 5.1e-4 c 7.7e-4,-1e-5 0.002,5e-5 0.004,0 z m -5.09529,0.75706 c 0.14136,-0.003 0.70039,0.21571 1.32446,0.52451 0.68862,0.34074 1.25212,0.70241 1.25212,0.80306 0,0.10065 -0.0918,0.27478 -0.2036,0.38654 -0.11176,0.11177 -0.24491,0.19665 -0.29611,0.18965 -0.0512,-0.007 -0.44568,-0.14085 -0.87643,-0.29662 -0.43076,-0.15576 -0.907,-0.38792 -1.05833,-0.51574 -0.15132,-0.12782 -0.27492,-0.40077 -0.27492,-0.60668 0,-0.2059 0.0459,-0.42005 0.10232,-0.47645 0.005,-0.005 0.0159,-0.008 0.0305,-0.008 z m -0.71521,0.73174 h 5.2e-4 c 7.3e-4,-2e-5 0.002,0 0.003,0 0.0513,0 0.0695,0.24714 0.0403,0.54983 -0.0483,0.50021 -0.007,0.55614 0.45475,0.60824 0.2794,0.0315 0.59285,0.1271 0.6966,0.2129 0.1228,0.10158 0.14438,0.39865 0.0615,0.85215 -0.07,0.38299 -0.23127,0.76192 -0.35812,0.84232 -0.12685,0.0804 -0.39747,0.14835 -0.60152,0.14935 -0.20405,0.001 -0.41834,0.0785 -0.47594,0.17156 -0.0576,0.0931 -0.35469,0.16899 -0.66042,0.16899 -0.50097,0 -0.57582,-0.0658 -0.75706,-0.67077 -0.18765,-0.62628 -0.22983,-0.66028 -0.63045,-0.50797 -0.23616,0.0898 -0.69089,0.16278 -1.01079,0.16278 -0.41962,0 -0.58188,-0.0748 -0.58188,-0.26975 0,-0.14861 0.16164,-0.49724 0.35915,-0.77463 0.35848,-0.50343 0.36158,-0.50449 1.6092,-0.38758 l 1.24954,0.11731 0.2558,-0.61237 c 0.13778,-0.32979 0.29117,-0.60099 0.34571,-0.61236 z m 5.81205,0 c 0.0788,0 0.35266,0.16442 0.60875,0.36587 0.46021,0.362 0.46425,0.38287 0.34623,1.73581 -0.0657,0.75287 -0.20064,1.41903 -0.30024,1.48053 -0.0996,0.0615 -0.28369,0.0723 -0.40876,0.0243 -0.12507,-0.048 -0.41746,-0.0398 -0.65009,0.0186 -0.27298,0.0685 -0.42323,0.22533 -0.42323,0.44183 0,0.18449 -0.0635,0.33538 -0.14107,0.33538 -0.0776,0 -0.19163,-0.0506 -0.25373,-0.11265 -0.0621,-0.0621 -0.11318,-0.29592 -0.11318,-0.51935 0,-0.22343 -0.0788,-0.55366 -0.17518,-0.73381 -0.16139,-0.30158 -0.20664,-0.30608 -0.57051,-0.0677 -0.38173,0.25012 -0.39861,0.24044 -0.50178,-0.27544 -0.0587,-0.29377 -0.10697,-0.59082 -0.10697,-0.66042 0,-0.0696 0.29872,-0.17466 0.66405,-0.23306 0.36533,-0.0584 0.89041,-0.29604 1.16685,-0.52865 0.27644,-0.23261 0.55077,-0.61439 0.60927,-0.8475 0.0585,-0.23311 0.17079,-0.42374 0.24959,-0.42374 z m -10.68203,0.59273 0.005,0.42323 c 0.003,0.23284 -0.0606,0.57545 -0.14056,0.76171 l -0.14522,0.33848 0.005,-0.33848 c 0.003,-0.18626 0.066,-0.52887 0.14056,-0.76171 z m -21.27467,0.002 c 0.085,-0.004 0.20937,0.0292 0.32659,0.092 0.1705,0.0913 0.54513,0.50782 0.83251,0.92552 0.28739,0.4177 0.46187,0.75156 0.38757,0.74156 -0.0743,-0.01 -0.33763,-0.0983 -0.58497,-0.19637 -0.24733,-0.0981 -0.60771,-0.45968 -0.80099,-0.80357 -0.1933,-0.34389 -0.30453,-0.67206 -0.24753,-0.72916 0.0178,-0.0178 0.0482,-0.0281 0.0868,-0.03 z m 33.75969,0.59118 c 0.14262,0 0.3008,0.10783 0.3514,0.23978 0.0506,0.13196 -0.0379,0.70367 -0.19688,1.27021 -0.15897,0.56655 -0.36257,1.02991 -0.45217,1.02991 -0.0931,0 -0.1233,-0.308 -0.0708,-0.71934 0.0506,-0.39582 0.0952,-0.96753 0.10025,-1.27021 0.006,-0.37756 0.0903,-0.55035 0.2682,-0.55035 z m -11.86904,0.24908 h 5.2e-4 5.1e-4 c 0.024,-0.002 0.0553,0.0299 0.0941,0.0899 0.0902,0.1397 0.16539,0.38305 0.16639,0.54053 0.001,0.15749 -0.0733,0.33359 -0.16639,0.39119 -0.10174,0.0629 -0.16892,-0.1531 -0.16692,-0.54053 10e-4,-0.32169 0.021,-0.47279 0.0708,-0.48008 v -5.1e-4 h 5.1e-4 z m 6.43475,0.2589 c 0.13421,0 0.28593,0.0675 0.33693,0.14986 0.051,0.0824 0.01,0.38739 -0.0915,0.67748 -0.10112,0.2901 -0.29935,0.5271 -0.4408,0.5271 -0.18408,0 -0.22813,-0.10816 -0.15503,-0.38086 0.0561,-0.20955 0.10339,-0.51449 0.10439,-0.67747 0.001,-0.16298 0.11178,-0.29611 0.24598,-0.29611 z m -8.37158,1.13947 1.86965,0.0863 c 1.02833,0.0475 1.91159,0.12927 1.96319,0.18087 0.0515,0.0516 0.0426,0.32734 -0.0202,0.6134 l -0.11421,0.52038 -1.29863,-0.0222 c -0.71438,-0.0127 -1.48954,-0.059 -1.72237,-0.10232 -0.23283,-0.0433 -0.47937,-0.16635 -0.54777,-0.27337 -0.0684,-0.10703 -0.12613,-0.37623 -0.12713,-0.59841 z m -1.62988,0.58549 c 0.16903,0.001 0.54095,0.21231 0.85887,0.49144 0.35707,0.31352 0.91615,0.59923 1.3286,0.67903 0.39171,0.0758 1.36948,0.14121 2.17299,0.14521 1.09886,0.006 1.51318,-0.0555 1.67173,-0.2465 0.1159,-0.1397 0.14894,-0.25424 0.0718,-0.25424 -0.0766,0 -0.0577,-0.0813 0.0419,-0.18087 0.10828,-0.1083 0.42837,-0.13506 0.79582,-0.0656 0.3381,0.0634 0.61443,0.20781 0.61443,0.32091 0,0.1131 0.17182,0.36648 0.38137,0.56224 0.30848,0.28818 0.69295,0.37892 2.01952,0.47542 1.60769,0.11696 1.64549,0.11093 2.03708,-0.31161 0.30522,-0.32936 0.46746,-0.39215 0.68988,-0.26768 0.15995,0.0895 0.29094,0.27091 0.29094,0.40359 0,0.13268 0.22494,0.35762 0.49971,0.49971 0.3552,0.18365 1.01608,0.25787 2.28617,0.25787 1.07805,0 1.78645,-0.0673 1.78645,-0.1695 0,-0.0931 0.4237,-0.16898 0.94206,-0.16898 0.51835,0 1.09006,0.0793 1.27021,0.1757 0.24733,0.13237 0.32763,0.35626 0.32763,0.91674 0,0.40821 -0.0463,0.86347 -0.10284,1.01079 -0.0755,0.19668 -0.31159,0.26096 -0.88883,0.24236 -0.43242,-0.0139 -1.0151,-0.0539 -1.2945,-0.0899 -0.2794,-0.0361 -1.8301,-0.25345 -3.44578,-0.48266 -1.61568,-0.22921 -4.01551,-0.49381 -5.33353,-0.58911 -1.31802,-0.0953 -3.91354,-0.32787 -5.7676,-0.51573 -1.85405,-0.18787 -3.43238,-0.37848 -3.50728,-0.42478 -0.0748,-0.0463 -0.17664,-0.33 -0.22634,-0.62942 -0.0497,-0.29941 -0.0307,-0.81045 0.0424,-1.13585 0.0753,-0.33521 0.25141,-0.61357 0.40618,-0.64337 0.009,-0.002 0.0197,-0.003 0.031,-0.003 z m 11.49129,0.12351 -0.11989,0.64182 c -0.066,0.3532 -0.1407,0.66368 -0.1664,0.68988 v 5.1e-4 c -0.0257,0.0262 -0.19027,0.0668 -0.36586,0.0904 -0.17558,0.0233 -0.58612,0.0175 -0.91209,-0.009 -0.32597,-0.0284 -0.76871,-0.0911 -0.98392,-0.13901 -0.32477,-0.0723 -0.38218,-0.17949 -0.33848,-0.63149 l 0.0522,-0.54467 1.41748,-0.0491 z m 2.1332,0.52244 1.32654,0.002 c 0.72938,10e-4 1.49732,0.0482 1.70687,0.10439 0.2999,0.0804 0.38086,0.2239 0.38086,0.67489 l 5.1e-4,0.57361 h -1.60868 c -0.88476,0 -1.61141,-0.0191 -1.61541,-0.0424 -0.003,-0.0233 -0.0475,-0.32823 -0.0982,-0.67748 z m -14.77015,0.21601 c 0.0457,0.0457 0.0334,0.45516 -0.0269,0.91002 l -0.10956,0.82683 -1.46503,0.70228 c -0.8058,0.38628 -2.95105,1.59312 -4.76715,2.68201 -1.8161,1.0889 -3.57933,2.12154 -3.9181,2.29443 l -0.61599,0.31419 -0.11834,-1.10742 c -0.0644,-0.59972 -0.0922,-1.11405 -0.063,-1.156 h 5.2e-4 v -5.2e-4 h 5.1e-4 v -5.2e-4 h 5.2e-4 v -5.2e-4 h 5.2e-4 l 5.1e-4,-5.1e-4 c 0.0315,-0.0273 2.51927,-1.28672 5.52835,-2.7988 3.00852,-1.51181 5.50653,-2.7107 5.55315,-2.66547 z m 1.07177,2.02003 c 0.14764,-0.003 0.33833,0.0156 0.59531,0.0522 0.46971,0.0669 1.00643,0.14396 1.19269,0.17156 0.18627,0.0276 1.40553,0.20641 2.7094,0.39739 1.30386,0.19098 3.47562,0.41925 4.82606,0.50695 1.35043,0.0877 3.82714,0.39985 5.50354,0.69401 1.6764,0.29417 3.22834,0.57182 3.44888,0.61702 0.22055,0.0452 0.35974,0.12343 0.30954,0.17363 -0.0502,0.0502 -0.34468,0.14698 -0.65474,0.21498 -0.34162,0.075 -1.23111,0.007 -2.25722,-0.17363 -0.93134,-0.16366 -3.44571,-0.49433 -5.58777,-0.73484 -2.14207,-0.2405 -5.40646,-0.62006 -7.25383,-0.84336 -1.84737,-0.2233 -3.40111,-0.44833 -3.45301,-0.50023 -0.0519,-0.0519 0.009,-0.2181 0.13435,-0.36949 0.11457,-0.13807 0.24072,-0.2017 0.4868,-0.20619 z m -24.8419,1.02423 0.58188,0.64389 c 0.31989,0.35408 0.93919,0.87104 1.37666,1.14877 0.43747,0.27774 1.20929,0.62619 1.71514,0.77411 0.50585,0.14792 1.49654,0.26765 2.20142,0.26665 0.70488,-0.001 1.62843,-0.10705 2.05207,-0.23564 0.42363,-0.1286 1.4907,-0.28747 2.37143,-0.35347 l 1.60145,-0.12041 -0.0909,1.24489 c -0.05,0.68458 -0.21115,1.47346 -0.35812,1.75286 -0.14697,0.2794 -0.54127,1.38411 -0.87591,2.45515 -0.33463,1.07103 -0.70708,2.07948 -0.82786,2.24121 -0.14971,0.20047 -0.62402,0.34656 -1.48983,0.45837 -0.6985,0.0902 -1.80322,0.18849 -2.45515,0.21859 -0.65194,0.03 -1.74775,-0.004 -2.43499,-0.0744 -0.71681,-0.0742 -1.63603,-0.30613 -2.15594,-0.54415 -0.49845,-0.2282 -1.4031,-0.76928 -2.01022,-1.20251 -0.60711,-0.43323 -1.1038,-0.87981 -1.1038,-0.9927 0,-0.1129 0.0645,-0.27789 0.14314,-0.36639 0.0786,-0.0885 0.34506,-0.65606 0.59221,-1.26142 0.24715,-0.60537 0.55901,-1.59605 0.69298,-2.20142 0.13397,-0.60536 0.29565,-1.71936 0.35915,-2.47582 z m 24.34425,0.031 2.24379,0.37207 c 1.23402,0.20485 4.07243,0.57641 6.30763,0.8263 2.2352,0.24989 5.0058,0.59175 6.15724,0.75861 1.62139,0.23496 2.17222,0.38216 2.44275,0.65268 0.34069,0.34069 0.34431,0.40869 0.14159,2.76985 -0.11432,1.33144 -0.2504,2.63983 -0.3023,2.90835 -0.063,0.32571 -0.13856,0.41728 -0.22686,0.2744 -0.002,-0.003 -0.005,-0.006 -0.007,-0.008 v -5.2e-4 h -5.1e-4 l -5.2e-4,-5.2e-4 h -5.2e-4 c -1.6e-4,-6e-5 -0.002,-8e-4 -0.003,-0.001 h -5.2e-4 c -6.7e-4,-3e-5 -0.003,-5e-5 -0.004,0 h -5.2e-4 c -0.0723,0.0281 -0.17313,0.94416 -0.23151,2.14612 -0.0628,1.29286 -0.34248,5.43684 -0.62167,9.20874 -0.27918,3.7719 -0.58559,8.30583 -0.68109,10.07536 -0.0955,1.76953 -0.21232,3.95987 -0.25942,4.86792 -0.0471,0.90805 -0.14819,1.65106 -0.22479,1.65106 -0.0767,0 -0.16927,-0.0889 -0.20567,-0.19792 -0.0483,-0.14478 -0.54344,-0.0992 -1.83452,0.16898 -0.97259,0.20205 -4.48457,0.78625 -7.80469,1.29863 -3.32013,0.51238 -6.07694,0.93172 -6.12624,0.93172 -0.0493,0 -0.14316,-0.42637 -0.20826,-0.94774 -0.0651,-0.52136 -0.0421,-1.49295 0.0507,-2.15904 0.0929,-0.66608 0.17878,-4.56414 0.19068,-8.66201 0.0119,-4.09787 0.0668,-9.20297 0.12196,-11.34504 0.0552,-2.14207 0.1314,-4.1998 0.1695,-4.57233 0.038,-0.37253 0.14641,-1.78219 0.24081,-3.13263 0.0944,-1.35043 0.21035,-2.81591 0.25735,-3.25665 0.0471,-0.44074 0.16026,-0.99814 0.25166,-1.23868 0.0915,-0.24054 0.1664,-1.10164 0.1664,-1.91358 z m -1.78283,0.0574 v 5.1e-4 h 5.1e-4 5.2e-4 l 5.2e-4,5.2e-4 c 0.004,-5e-5 0.007,-2.1e-4 0.009,0 v 0.001 5.2e-4 h 10e-4 l 5.2e-4,0.001 v 5.2e-4 5.2e-4 0.001 5.2e-4 c -7.4e-4,0.003 -0.004,0.008 -0.009,0.0129 -0.0931,0.093 -1.35058,0.90931 -2.79415,1.81436 -1.44356,0.90505 -3.37974,2.02103 -4.30258,2.47995 -0.92284,0.45892 -1.95119,0.87229 -2.28565,0.91829 -0.47536,0.0654 -0.55253,0.042 -0.35398,-0.10645 0.1397,-0.10441 1.06974,-0.67967 2.06706,-1.27848 0.99732,-0.59882 2.44516,-1.40693 3.21737,-1.79575 0.77222,-0.38883 2.12797,-1.04326 3.01274,-1.45418 0.76035,-0.35313 1.34561,-0.59487 1.43609,-0.59686 z m 0.93224,0.71623 c 0.0672,0 0.0922,0.36118 0.0558,0.80357 -0.0364,0.44238 -0.2517,2.36648 -0.47853,4.27571 -0.22684,1.90924 -0.48836,5.18571 -0.58136,7.28121 -0.093,2.0955 -0.21433,5.06806 -0.26923,6.60476 -0.0549,1.5367 -0.12743,3.02221 -0.16123,3.30161 -0.0338,0.2794 -0.10913,2.14673 -0.16743,4.1491 -0.0583,2.00237 -0.25392,5.05027 -0.4346,6.77323 -0.18067,1.72297 -0.34775,3.40892 -0.37155,3.74654 l -0.0434,0.61392 -1.86242,-0.62839 c -1.02447,-0.3456 -2.22464,-0.78914 -2.66702,-0.98547 -0.75144,-0.3335 -0.80539,-0.39935 -0.81649,-1.00149 -0.007,-0.35448 -0.0692,-0.79102 -0.13953,-0.97048 -0.12113,-0.30921 -0.13393,-0.30937 -0.24546,-0.0186 -0.0648,0.16868 -0.0697,0.56297 -0.0109,0.87643 0.0935,0.49844 0.0627,0.56999 -0.24495,0.56999 -0.19347,0 -0.6212,-0.1283 -0.95033,-0.28525 -0.50845,-0.24246 -0.60228,-0.37645 -0.62528,-0.88935 l -0.0274,-0.6041 -0.0682,0.55087 c -0.0423,0.34082 -0.16287,0.54984 -0.3173,0.54984 -0.20795,0 -0.23504,-0.25956 -0.16174,-1.5658 0.0566,-1.00779 0.0347,-1.41546 -0.0615,-1.14308 -0.0823,0.23283 -0.16248,0.76584 -0.17828,1.18494 -0.0158,0.4191 -0.0919,0.91444 -0.16847,1.10071 -0.11822,0.28751 -0.15568,0.29821 -0.24908,0.0708 -0.0605,-0.14738 -0.0314,-0.60454 0.0646,-1.01596 0.096,-0.41142 0.2126,-1.51037 0.2589,-2.44171 0.0463,-0.93133 0.12271,-3.20629 0.17001,-5.05602 0.0474,-1.84973 0.24164,-5.37396 0.4315,-7.83105 0.18985,-2.45709 0.4145,-6.08701 0.4992,-8.06669 0.0848,-1.97968 0.23863,-3.95181 0.34209,-4.38216 0.18111,-0.75341 0.22676,-0.797 1.22318,-1.18494 0.56914,-0.22159 2.63229,-1.2983 4.58474,-2.39262 1.95244,-1.09432 3.60451,-1.98954 3.67161,-1.98954 z m -22.82445,4.26899 -5.2e-4,5.2e-4 v 5.2e-4 5.1e-4 l -5.1e-4,5.2e-4 v 5.2e-4 5.1e-4 h 5.1e-4 v 5.2e-4 5.2e-4 l 5.2e-4,5.1e-4 c -2e-5,-0.002 0,-0.003 0,-0.005 z m 12.49898,0.81029 c 0.0931,0 0.1695,0.0769 0.1695,0.17001 0,0.0931 -0.0764,0.1695 -0.1695,0.1695 -0.0931,0 -0.1695,-0.0764 -0.1695,-0.1695 0,-0.0931 0.0764,-0.17001 0.1695,-0.17001 z m -1.00614,0.17001 c 0.0876,0 0.15916,0.0764 0.15916,0.1695 0,0.0931 -0.11835,0.16847 -0.26355,0.16847 -0.14524,0 -0.21728,-0.0754 -0.15968,-0.16847 0.0576,-0.0931 0.17647,-0.1695 0.26407,-0.1695 z m -2.98121,22.41983 c 0.16989,3.1e-4 0.40092,0.0256 0.73122,0.0708 0.56301,0.077 1.13815,0.12282 1.27796,0.10232 0.13981,-0.0205 0.28667,0.0878 0.32607,0.24133 0.0395,0.15351 0.0654,0.62218 0.0574,1.04128 -0.0117,0.63147 -0.0728,0.77042 -0.35812,0.81132 -0.18937,0.0271 -0.8942,-0.226 -1.56631,-0.56224 -0.7993,-0.39987 -1.22098,-0.70991 -1.21698,-0.89607 0.003,-0.15654 0.10695,-0.41794 0.23099,-0.58136 0.12129,-0.15977 0.23463,-0.22737 0.5178,-0.22686 z m -10.27483,0.31677 c 0.001,-1.2e-4 0.003,0 0.005,0 0.12212,-0.003 0.39408,0.32091 0.62322,0.74724 0.41821,0.77808 0.43583,0.7902 0.37723,0.2651 -0.0325,-0.29086 -0.0341,-0.53101 0.006,-0.54932 h 5.2e-4 5.1e-4 5.2e-4 l 5.2e-4,-5.1e-4 5.1e-4,-5.2e-4 h 5.2e-4 5.2e-4 5.1e-4 c 3e-4,-3e-5 0.001,0 0.002,0 0.0393,0 0.27369,0.14412 0.5209,0.31936 0.24721,0.17525 0.81423,0.44149 1.25987,0.59221 0.47532,0.16076 1.35028,0.27227 2.11667,0.27027 0.94024,-0.003 1.61494,-0.11465 2.40709,-0.40153 0.60537,-0.21923 1.23383,-0.45528 1.39681,-0.52348 0.22624,-0.0946 0.29662,-0.0414 0.29662,0.22376 0,0.19104 -0.17674,0.55296 -0.39274,0.80408 -0.28241,0.32832 -1.03169,0.68329 -2.66702,1.26246 -1.25085,0.443 -2.83489,1.00918 -3.5202,1.25832 -1.11143,0.40404 -1.54104,0.46045 -3.97908,0.52245 -1.90811,0.0486 -3.09115,-0.002 -3.918627,-0.16588 -0.65193,-0.12948 -1.497882,-0.34967 -1.879472,-0.48886 -0.38159,-0.13919 -1.010054,-0.41454 -1.396814,-0.61185 -0.38676,-0.19731 -0.703316,-0.42353 -0.703316,-0.50333 0,-0.0798 0.114548,-0.24011 0.254248,-0.35605 0.1397,-0.11594 0.253731,-0.29164 0.253731,-0.38964 0,-0.098 -0.187462,-0.001 -0.416512,0.21394 l -0.416512,0.39119 -0.208256,-0.45682 c -0.19069,-0.41851 -0.165925,-0.49147 0.289905,-0.86558 0.2737,-0.22463 0.916623,-0.56951 1.428853,-0.76636 0.53727,-0.20646 1.341766,-0.36242 1.901176,-0.36742 0.53335,-0.005 1.079943,0.0828 1.214913,0.19482 0.13496,0.11198 0.346423,0.19033 0.469743,0.17363 0.12333,-0.0163 0.35704,-0.0207 0.51986,-0.0103 0.16281,0.011 0.52054,0.38053 0.79478,0.82114 0.41059,0.65967 0.51949,0.74699 0.61599,0.49557 0.0745,-0.19412 -0.0165,-0.48577 -0.2496,-0.80098 l -0.36639,-0.49609 h 0.64854 c 0.35669,0 0.73987,0.0918 0.85163,0.2036 0.1118,0.11176 0.20309,0.43167 0.20309,0.71107 0,0.39833 0.0445,0.46351 0.20567,0.30231 0.16055,-0.16058 0.16221,-0.32343 0.002,-0.74466 -0.16025,-0.42427 -0.15788,-0.56755 0.006,-0.67231 0.1153,-0.0732 0.2968,-0.13491 0.40411,-0.13591 0.1073,-0.001 0.27467,0.22599 0.37207,0.50539 0.0974,0.2794 0.2529,0.50798 0.3452,0.50798 0.0923,0 0.15299,-0.31544 0.13539,-0.70124 -0.0191,-0.41813 0.0502,-0.73038 0.17105,-0.77308 0.004,-0.002 0.009,-0.003 0.0124,-0.003 z m 10.12445,1.92133 c 0.0923,-0.001 0.26407,0.0721 0.56637,0.22634 0.36399,0.18569 0.97728,0.38789 1.36323,0.44959 0.68244,0.10912 0.7004,0.12817 0.6506,0.71055 -0.0281,0.32937 -0.13965,0.62761 -0.24753,0.66301 -0.10789,0.0354 -0.24197,-0.01 -0.29817,-0.10077 -0.0562,-0.0909 -0.4871,-0.2928 -0.95757,-0.44907 -0.60928,-0.20237 -0.90091,-0.4041 -1.01389,-0.70125 -0.0872,-0.22946 -0.15864,-0.52851 -0.15864,-0.66404 0,-0.0875 0.0238,-0.1333 0.0956,-0.13436 z m -0.68368,0.0651 h 0.001 c 3.5e-4,1e-5 10e-4,1e-5 10e-4,0 5e-4,1e-5 0.001,0 0.002,0 0.0623,1e-4 0.0594,0.20903 -0.003,0.46457 -0.0642,0.2556 -0.2028,0.56882 -0.30799,0.69557 -0.10517,0.12672 -0.8215,0.52113 -1.59163,0.87695 -0.77011,0.35578 -1.55459,0.69624 -1.74305,0.75602 -0.22913,0.0727 -0.37632,0.0205 -0.44442,-0.15709 -0.0561,-0.14612 -0.063,-0.36829 -0.015,-0.49351 0.0481,-0.12522 0.45658,-0.32129 0.90744,-0.43667 0.45087,-0.11538 1.14111,-0.32388 1.53427,-0.4625 0.39317,-0.13862 0.90276,-0.47505 1.13223,-0.74776 0.22477,-0.26711 0.45868,-0.48669 0.5271,-0.49558 z m -20.625099,0.19947 v 5.2e-4 c 0.07749,0.002 0.216094,0.0483 0.355534,0.12299 0.18592,0.0995 0.496894,0.43694 0.690914,0.75086 0.26079,0.42197 0.695058,0.7269 1.666048,1.16892 0.72236,0.32884 1.922984,0.73933 2.668054,0.91157 0.982429,0.22709 1.982759,0.30976 3.640609,0.30076 1.68127,-0.009 2.73029,-0.10854 3.96513,-0.37879 0.92346,-0.20208 1.70818,-0.33779 1.74408,-0.30179 l 5.2e-4,5.2e-4 c 0.0311,0.0393 -0.2275,0.30557 -0.57878,0.59531 -0.35404,0.29202 -1.06287,0.69556 -1.5751,0.89607 -0.77611,0.3038 -1.35443,0.3728 -3.4711,0.416 -2.28639,0.0466 -2.69096,0.009 -4.04937,-0.37156 -0.83001,-0.2325 -2.276887,-0.82249 -3.215307,-1.31103 l -1.705839,-0.8878 -0.131259,-0.91261 c -0.0723,-0.50196 -0.09881,-0.94505 -0.05891,-0.98495 0.01,-0.01 0.02895,-0.0156 0.05478,-0.015 z" /></g></svg>
