<?xml version="1.0" encoding="UTF-8" standalone="no"?>
<!-- Created with Inkscape (http://www.inkscape.org/) -->

<svg
   version="1.1"
   id="svg815"
   xml:space="preserve"
   width="820.15332"
   height="820.15466"
   viewBox="0 0 820.15332 820.15466"
   sodipodi:docname="virus.svg"
   inkscape:version="1.4.3 (0d15f75, 2025-12-25)"
   xmlns:inkscape="http://www.inkscape.org/namespaces/inkscape"
   xmlns:sodipodi="http://sodipodi.sourceforge.net/DTD/sodipodi-0.dtd"
   xmlns="http://www.w3.org/2000/svg"
   xmlns:svg="http://www.w3.org/2000/svg"
   xmlns:rdf="http://www.w3.org/1999/02/22-rdf-syntax-ns#"
   xmlns:cc="http://creativecommons.org/ns#"
   xmlns:dc="http://purl.org/dc/elements/1.1/"><metadata
     id="metadata821"><rdf:RDF><cc:Work
         rdf:about=""><dc:format>image/svg+xml</dc:format><dc:type
           rdf:resource="http://purl.org/dc/dcmitype/StillImage" /><dc:title /></cc:Work></rdf:RDF></metadata><defs
     id="defs819"><clipPath
       clipPathUnits="userSpaceOnUse"
       id="clipPath831"><path
         d="M 0,660 H 660 V 0 H 0 Z"
         id="path829"
         inkscape:connector-curvature="0" /></clipPath></defs><sodipodi:namedview
     pagecolor="#ffffff"
     bordercolor="#666666"
     borderopacity="1"
     objecttolerance="10"
     gridtolerance="10"
     guidetolerance="10"
     inkscape:pageopacity="0"
     inkscape:pageshadow="2"
     inkscape:window-width="2560"
     inkscape:window-height="1377"
     id="namedview817"
     showgrid="false"
     inkscape:zoom="0.96477273"
     inkscape:cx="406.31331"
     inkscape:cy="458.65724"
     inkscape:window-x="1912"
     inkscape:window-y="32"
     inkscape:window-maximized="1"
     inkscape:current-layer="g823"
     inkscape:showpageshadow="2"
     inkscape:pagecheckerboard="0"
     inkscape:deskcolor="#d1d1d1" /><g
     id="g823"
     inkscape:groupmode="layer"
     inkscape:label="virus-freesvg.org"
     transform="matrix(1.3333333,0,0,-1.3333333,-34.710666,856.71598)"><path
       d="m 221.084,275.863 c -12.754,-0.793 -20.749,-11.52 -18.006,-24.64 2.848,-13.635 16.213,-24.692 29.848,-24.692 11.964,0 20.161,8.512 20.067,19.807 -2.495,-5.468 -7.958,-9.071 -15.019,-9.071 -11.215,0 -22.205,9.09 -24.55,20.303 -1.681,8.053 1.551,15.01 7.66,18.293 m 225.012,0 c 6.109,-3.283 9.342,-10.24 7.659,-18.293 -2.343,-11.213 -13.332,-20.303 -24.547,-20.303 -7.062,0 -12.525,3.603 -15.021,9.071 -0.093,-11.295 8.103,-19.807 20.067,-19.807 13.636,0 27,11.057 29.85,24.692 2.743,13.12 -5.252,23.847 -18.008,24.64 m 1.081,29.996 c -27.178,0 -53.813,-22.031 -59.488,-49.207 -4.681,-22.396 6.332,-41.294 25.561,-47.252 -11.608,7.304 -17.571,21.316 -14.209,37.412 4.938,23.623 28.089,42.772 51.711,42.772 21.156,0 35.513,-15.361 34.735,-35.538 0.228,0.863 0.43,1.732 0.614,2.606 5.678,27.176 -11.748,49.207 -38.924,49.207 m -227.171,0 c -27.177,0 -44.604,-22.031 -38.926,-49.207 0.183,-0.874 0.389,-1.743 0.614,-2.606 -0.779,20.177 13.577,35.538 34.734,35.538 23.624,0 46.774,-19.149 51.711,-42.772 3.362,-16.096 -2.598,-30.108 -14.208,-37.412 19.229,5.958 30.241,24.856 25.563,47.252 -5.68,27.176 -32.312,49.207 -59.488,49.207 m 1.078,114.018 c -6.109,3.286 -9.341,10.242 -7.66,18.293 2.345,11.215 13.335,20.305 24.55,20.305 7.061,0 12.524,-3.604 15.019,-9.071 0.094,11.296 -8.103,19.805 -20.067,19.805 -13.635,0 -27,-11.054 -29.848,-24.689 -2.743,-13.122 5.252,-23.849 18.006,-24.643 m 225.012,0 c 12.756,0.794 20.751,11.521 18.008,24.643 -2.85,13.635 -16.214,24.689 -29.85,24.689 -11.964,0 -20.16,-8.509 -20.067,-19.805 2.496,5.467 7.959,9.071 15.021,9.071 11.215,0 22.204,-9.09 24.547,-20.305 1.683,-8.051 -1.55,-15.007 -7.659,-18.293 m 1.081,-29.996 c 27.176,0 44.602,22.032 38.924,49.208 -0.184,0.874 -0.386,1.744 -0.614,2.606 0.778,-20.176 -13.579,-35.538 -34.735,-35.538 -23.622,0 -46.773,19.151 -51.711,42.773 -3.362,16.094 2.601,30.109 14.209,37.409 -19.229,-5.956 -30.242,-24.855 -25.561,-47.25 5.675,-27.176 32.31,-49.208 59.488,-49.208 m -227.171,0 c 27.176,0 53.808,22.032 59.488,49.208 4.678,22.395 -6.334,41.294 -25.563,47.25 11.61,-7.3 17.57,-21.315 14.208,-37.409 -4.937,-23.622 -28.087,-42.773 -51.711,-42.773 -21.157,0 -35.513,15.362 -34.734,35.538 -0.225,-0.862 -0.431,-1.732 -0.614,-2.606 -5.678,-27.176 11.749,-49.208 38.926,-49.208 m 72.25,-264.528 c 0.597,20.571 32.513,23.237 78.053,17.162 -41.221,18.833 -101.937,6.4 -78.053,-17.162 m -168.291,250.96 c 20.57,-0.596 23.237,-32.513 17.16,-78.051 18.834,41.221 6.401,101.935 -17.16,78.051 m 419.252,-82.669 c -20.571,0.596 -23.238,32.512 -17.162,78.051 -18.831,-41.22 -6.403,-101.935 17.162,-78.051 m -168.291,250.96 c -0.598,-20.57 -32.516,-23.237 -78.053,-17.161 41.222,-18.832 101.937,-6.401 78.053,17.161 m 248.861,-222.03 c -2.146,-8.955 -5.447,-14.694 -9.153,-14.694 -6.465,0 -11.707,17.476 -11.707,39.035 0,4.337 0.211,8.507 0.603,12.405 -1.597,-6.676 -2.555,-15.136 -2.555,-24.34 0,-21.56 5.241,-39.037 11.708,-39.037 5.166,0 9.55,11.154 11.104,26.631 M 321.188,44.781 c -8.956,2.148 -14.696,5.448 -14.696,9.155 0,6.466 17.477,11.708 39.035,11.708 4.338,0 8.506,-0.213 12.404,-0.605 -6.673,1.598 -15.133,2.556 -24.34,2.556 -21.559,0 -39.035,-5.242 -39.035,-11.709 0,-5.164 11.153,-9.549 26.632,-11.105 M 43.394,347.382 c 2.147,8.957 5.448,14.695 9.153,14.695 6.466,0 11.708,-17.476 11.708,-39.035 0,-4.337 -0.213,-8.508 -0.604,-12.403 1.598,6.674 2.555,15.134 2.555,24.341 0,21.559 -5.242,39.035 -11.708,39.035 -5.165,0 -9.549,-11.154 -11.104,-26.633 m 302.599,277.793 c 8.955,-2.146 14.696,-5.448 14.696,-9.152 0,-6.466 -17.477,-11.709 -39.036,-11.709 -4.336,0 -8.506,0.212 -12.403,0.605 6.675,-1.599 15.136,-2.556 24.341,-2.556 21.558,0 39.037,5.241 39.037,11.708 0,5.166 -11.155,9.55 -26.635,11.104 m 18.358,-70.327 c 53.599,-7.433 101.073,-34.007 135.315,-72.59 -5.884,15.305 -14.884,27.018 -25.907,36.393 l 15.912,15.913 c -9.476,15.043 -12.611,28.308 -6.824,34.096 8.785,8.784 34.807,-2.992 58.12,-26.306 23.313,-23.312 35.088,-49.333 26.305,-58.119 -5.788,-5.787 -19.054,-2.651 -34.096,6.825 l -22.379,-22.378 c 22.262,-29.458 37.349,-64.637 42.661,-102.942 h 37.14 c -2.179,-23.061 0.867,-43.04 7.159,-52.918 -1.035,6.85 -1.601,14.328 -1.601,22.158 0,32.969 10.07,59.695 22.494,59.695 12.425,0 22.498,-26.726 22.498,-59.695 0,-32.97 -10.073,-59.698 -22.498,-59.698 -8.182,0 -15.345,11.596 -19.282,28.935 H 553.46 c -7.433,-53.597 -34.007,-101.073 -72.592,-135.314 15.308,5.884 27.02,14.883 36.396,25.906 l 15.912,-15.913 c 15.042,9.478 28.308,12.615 34.096,6.827 8.783,-8.785 -2.992,-34.808 -26.305,-58.12 -23.313,-23.314 -49.335,-35.09 -58.12,-26.304 -5.787,5.786 -2.652,19.053 6.824,34.097 l -22.376,22.376 C 437.834,135.514 402.657,120.424 364.354,115.111 v -37.14 c -23.064,2.179 -43.041,-0.867 -52.92,-7.158 6.851,1.034 14.327,1.603 22.157,1.603 32.969,0 59.695,-10.073 59.695,-22.498 0,-12.424 -26.726,-22.497 -59.695,-22.497 -32.969,0 -59.697,10.073 -59.697,22.497 0,8.186 11.597,15.347 28.936,19.284 v 45.909 c -53.599,7.433 -101.074,34.005 -135.314,72.588 5.884,-15.303 14.881,-27.018 25.905,-36.393 l -15.911,-15.91 c 9.475,-15.044 12.611,-28.311 6.823,-34.097 -8.784,-8.786 -34.805,2.99 -58.118,26.304 -23.314,23.312 -35.09,49.335 -26.305,58.12 5.788,5.788 19.051,2.651 34.096,-6.827 l 22.379,22.378 c -22.26,29.459 -37.35,64.638 -42.662,102.943 h -37.14 c 2.179,23.06 -0.867,43.041 -7.158,52.919 1.033,-6.851 1.602,-14.327 1.602,-22.156 0,-32.97 -10.073,-59.698 -22.496,-59.698 -12.426,0 -22.498,26.728 -22.498,59.698 0,32.969 10.072,59.695 22.498,59.695 8.183,0 15.346,-11.596 19.282,-28.935 h 45.909 c 7.433,53.598 34.006,101.074 72.59,135.313 -15.306,-5.884 -27.018,-14.882 -36.395,-25.905 l -15.911,15.912 c -15.045,-9.476 -28.308,-12.612 -34.096,-6.825 -8.785,8.786 2.991,34.807 26.305,58.119 23.313,23.314 49.334,35.09 58.118,26.306 5.788,-5.788 2.652,-19.053 -6.823,-34.096 l 22.379,-22.38 c 29.457,22.262 64.635,37.35 102.939,42.663 v 37.138 c 23.063,-2.177 43.042,0.869 52.919,7.159 -6.85,-1.033 -14.326,-1.601 -22.156,-1.601 -32.969,0 -59.697,10.072 -59.697,22.496 0,12.425 26.728,22.498 59.697,22.498 32.969,0 59.695,-10.073 59.695,-22.498 0,-8.184 -11.597,-15.347 -28.935,-19.283 z"
       style="fill:#231f20;fill-opacity:1;fill-rule:evenodd;stroke:none"
       id="path925"
       inkscape:connector-curvature="0" /></g></svg>
